<svg id="Layer_1" data-name="Layer 1" xmlns="http://www.w3.org/2000/svg" xmlns:xlink="http://www.w3.org/1999/xlink" viewBox="0 0 500 500"><defs><style>.cls-1{opacity:0.05;fill:url(#linear-gradient);}.cls-2{opacity:0.15;fill:url(#linear-gradient-2);}.cls-13,.cls-3{opacity:0.5;}.cls-4{fill:url(#linear-gradient-3);}.cls-5{fill:#fff;}.cls-6{fill:url(#linear-gradient-4);}.cls-7{fill:url(#linear-gradient-5);}.cls-8{fill:url(#linear-gradient-6);}.cls-9{fill:url(#linear-gradient-7);}.cls-10{fill:#3dba85;}.cls-11{fill:url(#linear-gradient-8);}.cls-12{fill:url(#linear-gradient-9);}.cls-14{fill:url(#linear-gradient-10);}.cls-15{fill:url(#linear-gradient-11);}.cls-16{fill:url(#linear-gradient-12);}.cls-17{fill:url(#linear-gradient-13);}.cls-18{fill:#1860d3;}.cls-19{fill:#1d425d;}.cls-20{fill:url(#linear-gradient-14);}.cls-21{fill:url(#linear-gradient-15);}.cls-22{fill:url(#linear-gradient-16);}.cls-23{fill:#ffa27b;}.cls-24{fill:#c67d63;}</style><linearGradient id="linear-gradient" x1="27.35" y1="249.92" x2="473.39" y2="249.92" gradientUnits="userSpaceOnUse"><stop offset="0" stop-color="#4279e8"/><stop offset="1" stop-color="#42c2e8"/></linearGradient><linearGradient id="linear-gradient-2" x1="96.93" y1="249.92" x2="403.81" y2="249.92" xlink:href="#linear-gradient"/><linearGradient id="linear-gradient-3" x1="351.1" y1="155.32" x2="466.61" y2="155.32" gradientTransform="translate(561.1 -254.69) rotate(89.57)" gradientUnits="userSpaceOnUse"><stop offset="0" stop-color="#3dba85"/><stop offset="1" stop-color="#1de885"/></linearGradient><linearGradient id="linear-gradient-4" x1="357.56" y1="155.32" x2="460.15" y2="155.32" gradientTransform="matrix(1, 0, 0, 1, 0, 0)" xlink:href="#linear-gradient-3"/><linearGradient id="linear-gradient-5" x1="403.44" y1="152.44" x2="436.54" y2="152.44" gradientTransform="translate(-10.09 -0.13) rotate(0.43)" gradientUnits="userSpaceOnUse"><stop offset="0" stop-color="#c92a1d"/><stop offset="1" stop-color="#ec3931"/></linearGradient><linearGradient id="linear-gradient-6" x1="343.31" y1="146" x2="458.83" y2="146" gradientTransform="translate(544.05 -256.16) rotate(89.57)" xlink:href="#linear-gradient-3"/><linearGradient id="linear-gradient-7" x1="349.78" y1="146" x2="452.37" y2="146" gradientTransform="matrix(1, 0, 0, 1, 0, 0)" xlink:href="#linear-gradient-3"/><linearGradient id="linear-gradient-8" x1="315.95" y1="374.82" x2="413.55" y2="374.82" gradientUnits="userSpaceOnUse"><stop offset="0" stop-color="#db1162"/><stop offset="1" stop-color="#ff6817"/></linearGradient><linearGradient id="linear-gradient-9" x1="47.34" y1="372.63" x2="166.92" y2="372.63" gradientUnits="userSpaceOnUse"><stop offset="0" stop-color="#d35400"/><stop offset="1" stop-color="#ffb62d"/></linearGradient><linearGradient id="linear-gradient-10" x1="47.34" y1="365.58" x2="166.92" y2="365.58" xlink:href="#linear-gradient-9"/><linearGradient id="linear-gradient-11" x1="194.18" y1="-29.94" x2="261.85" y2="-29.94" gradientTransform="translate(34.97 -41.91) rotate(41.51)" xlink:href="#linear-gradient-3"/><linearGradient id="linear-gradient-12" x1="19.55" y1="181.23" x2="119.17" y2="181.23" xlink:href="#linear-gradient-9"/><linearGradient id="linear-gradient-13" x1="36.75" y1="180.83" x2="102.58" y2="180.83" xlink:href="#linear-gradient-9"/><linearGradient id="linear-gradient-14" x1="167.08" y1="219.79" x2="250.49" y2="219.79" gradientTransform="translate(-0.23 -0.15) rotate(-0.03)" xlink:href="#linear-gradient-9"/><linearGradient id="linear-gradient-15" x1="359.01" y1="221.53" x2="374.59" y2="221.53" xlink:href="#linear-gradient-9"/><linearGradient id="linear-gradient-16" x1="220.2" y1="369.11" x2="258.63" y2="369.11" gradientTransform="matrix(1, 0, 0, 1, 0, 0)" xlink:href="#linear-gradient-3"/></defs><circle class="cls-1" cx="250.37" cy="249.92" r="223.02"/><circle class="cls-2" cx="250.37" cy="249.92" r="153.44"/><g class="cls-3"><rect class="cls-4" x="377.71" y="97.8" width="62.29" height="115.04" transform="translate(250.46 563) rotate(-89.57)"/><path class="cls-5" d="M354.94,126.85l108.26.82-.43,56.11L354.52,183Z"/><path class="cls-6" d="M357.7,165.57a15.16,15.16,0,0,1,14.92,15.11l72.63.55A15.17,15.17,0,0,1,460,166.62l.16-21.43a15.17,15.17,0,0,1-14.79-15.14V130L373,129.41c0,.12,0,.24,0,.36a15.18,15.18,0,0,1-15.15,14.92h-.14l-.16,20.89Z"/><path class="cls-5" d="M427.15,155.45a18.3,18.3,0,1,0-18.43,18.16A18.31,18.31,0,0,0,427.15,155.45Z"/><path class="cls-7" d="M392.19,155.35A16.55,16.55,0,1,1,408.62,172,16.55,16.55,0,0,1,392.19,155.35Z"/><rect class="cls-5" x="435.29" y="151.33" width="2.35" height="8.39" transform="translate(277.65 590.81) rotate(-89.57)"/><rect class="cls-5" x="446.7" y="151.42" width="2.35" height="8.39" transform="translate(288.89 602.3) rotate(-89.57)"/><rect class="cls-5" x="369.83" y="150.84" width="2.35" height="8.39" transform="translate(213.18 524.86) rotate(-89.57)"/><rect class="cls-5" x="381.24" y="150.93" width="2.35" height="8.39" transform="translate(224.42 536.36) rotate(-89.57)"/></g><rect class="cls-8" x="369.93" y="88.47" width="62.29" height="115.05" transform="translate(252.06 545.96) rotate(-89.57)"/><path class="cls-5" d="M347.16,117.53l108.25.81L455,174.46l-108.26-.81Z"/><path class="cls-9" d="M349.92,156.24a15.18,15.18,0,0,1,14.92,15.12l72.62.55A15.18,15.18,0,0,1,452.2,157.3l.17-21.43a15.17,15.17,0,0,1-14.8-15.14s0-.06,0-.09l-72.37-.54c0,.11,0,.23,0,.35a15.18,15.18,0,0,1-15.15,14.93l-.14,0-.15,20.89Z"/><path class="cls-5" d="M419.36,146.13a18.29,18.29,0,1,0-18.43,18.16A18.31,18.31,0,0,0,419.36,146.13Z"/><path class="cls-5" d="M384.41,146a16.55,16.55,0,1,1,16.42,16.68A16.55,16.55,0,0,1,384.41,146Z"/><rect class="cls-5" x="427.5" y="142.01" width="2.35" height="8.39" transform="translate(279.25 573.77) rotate(-89.57)"/><rect class="cls-5" x="438.92" y="142.09" width="2.35" height="8.39" transform="translate(290.49 585.26) rotate(-89.57)"/><rect class="cls-5" x="362.05" y="141.51" width="2.35" height="8.39" transform="translate(214.78 507.82) rotate(-89.57)"/><rect class="cls-5" x="373.46" y="141.6" width="2.35" height="8.39" transform="translate(226.02 519.32) rotate(-89.57)"/><path class="cls-10" d="M407.88,140.09v-.69a3.17,3.17,0,0,0-.71-2.09,2.23,2.23,0,0,0-1.79-.89h-4V133.6h-1.75v2.82h-4a2.23,2.23,0,0,0-1.79.89,3.18,3.18,0,0,0-.72,2.09v4.06a3.16,3.16,0,0,0,.72,2.09,2.21,2.21,0,0,0,1.79.9h9.83c.43,0,.76.42.76,1v4.09c0,.56-.33,1-.76,1h-9.83c-.44,0-.76-.42-.76-1v-.69H393v.69a3.16,3.16,0,0,0,.72,2.09,2.24,2.24,0,0,0,1.79.9h4v2.81h1.75V154.5h4a2.24,2.24,0,0,0,1.79-.9,3.15,3.15,0,0,0,.71-2.09v-4.09a3.17,3.17,0,0,0-.71-2.09,2.23,2.23,0,0,0-1.79-.89h-9.83c-.44,0-.76-.42-.76-1V139.4c0-.56.32-1,.76-1h9.83c.43,0,.76.41.76,1v.69Z"/><path class="cls-11" d="M413.55,417.88V424H316v-3.79c7.51-7.89,18-14.49,32.59-17.46l-25.36-27.71,5.69-13c16.76-36.43,37-36.43,37-36.43s20.2,0,36.91,36.43l5.7,13-26,27.51C396,405.16,406.1,410.88,413.55,417.88Z"/><path class="cls-5" d="M378.22,400v4.86l-12.15,17-12.15-17v-5.22L330,373.93c14-6.89,61.46-6,71.91,0C401.53,374.34,378.55,399.57,378.22,400Z"/><path class="cls-12" d="M93.07,326.82,49.54,402.21A16.23,16.23,0,0,0,63.6,426.56h87.06a16.23,16.23,0,0,0,14.06-24.35l-43.53-75.39A16.23,16.23,0,0,0,93.07,326.82Z"/><path class="cls-13" d="M93.07,326.82,49.54,402.21A16.23,16.23,0,0,0,63.6,426.56h87.06a16.23,16.23,0,0,0,14.06-24.35l-43.53-75.39A16.23,16.23,0,0,0,93.07,326.82Z"/><path class="cls-14" d="M93.07,319.76l-43.53,75.4A16.23,16.23,0,0,0,63.6,419.51h87.06a16.23,16.23,0,0,0,14.06-24.35l-43.53-75.4A16.24,16.24,0,0,0,93.07,319.76Z"/><polygon class="cls-5" points="94.96 334.16 119.31 334.16 109.97 381.85 102.5 381.85 94.96 334.16"/><rect class="cls-5" x="98.57" y="393.98" width="17.13" height="17.13"/><path class="cls-15" d="M259.88,48a33.83,33.83,0,0,0-49.47,45.66l-19.75,22.31a6.8,6.8,0,1,0,10.18,9l19.74-22.31A33.84,33.84,0,0,0,259.88,48ZM219.33,93.8A27.36,27.36,0,1,1,258,91.44,27.36,27.36,0,0,1,219.33,93.8Z"/><path class="cls-5" d="M23.79,181.23a45.57,45.57,0,1,0,45.57-45.58A45.62,45.62,0,0,0,23.79,181.23Z"/><path class="cls-16" d="M69.36,231a49.82,49.82,0,1,1,49.81-49.81A49.87,49.87,0,0,1,69.36,231Zm0-94.16a44.35,44.35,0,1,0,44.35,44.35A44.39,44.39,0,0,0,69.36,136.88Z"/><path class="cls-17" d="M102.58,180.83a32.92,32.92,0,1,1-32.92-32.92A32.93,32.93,0,0,1,102.58,180.83Z"/><path class="cls-5" d="M83.58,171v-1.33a6.05,6.05,0,0,0-1.37-4,4.29,4.29,0,0,0-3.43-1.72H71v-5.38H67.69v5.38H59.94a4.27,4.27,0,0,0-3.42,1.72,6,6,0,0,0-1.38,4v7.79a6,6,0,0,0,1.38,4,4.24,4.24,0,0,0,3.42,1.72H78.78c.83,0,1.45.8,1.45,1.86v7.84c0,1.07-.62,1.87-1.45,1.87H59.94c-.83,0-1.45-.8-1.45-1.87v-1.32H55.14v1.32a6.05,6.05,0,0,0,1.38,4,4.26,4.26,0,0,0,3.42,1.71h7.75v5.39H71v-5.39h7.74a4.28,4.28,0,0,0,3.43-1.71,6.1,6.1,0,0,0,1.37-4V185a6.05,6.05,0,0,0-1.37-4,4.25,4.25,0,0,0-3.43-1.71H59.94c-.83,0-1.45-.8-1.45-1.87v-7.79c0-1.06.62-1.86,1.45-1.86H78.78c.83,0,1.45.8,1.45,1.86V171Z"/><path class="cls-18" d="M250.37,249.92l47.39,71.38A85.3,85.3,0,0,0,311,310.48c33.22-33.25,33.2-88-.05-121.17s-88-33.19-121.17.06Z"/><path class="cls-19" d="M250.37,249.92l-60.16,61a85.69,85.69,0,0,0,107.53,10.4Z"/><path class="cls-18" d="M250.37,249.92l-81.88-25.23a85.79,85.79,0,0,0,21.32,85.84l1.14,1.12Z"/><path class="cls-20" d="M250.37,249.92,190,189.16l-.21.21a85.73,85.73,0,0,0-22.81,41Z"/><circle class="cls-21" cx="366.8" cy="221.53" r="7.79"/><circle class="cls-18" cx="147.45" cy="183.78" r="7.79"/><circle class="cls-22" cx="239.41" cy="369.11" r="19.22"/><path class="cls-23" d="M386.53,370.26c.51,10.24-8.31,20.32-8.31,20.32v14.27l-12.15,17-12.14-17V390.58s-8.85-10.13-8.31-20.37A185.82,185.82,0,0,1,386.53,370.26Z"/><path class="cls-24" d="M353.93,390.58a22.7,22.7,0,0,0,12.14,3.62H353.93Z"/></svg>