<svg id="Layer_1" data-name="Layer 1" xmlns="http://www.w3.org/2000/svg" xmlns:xlink="http://www.w3.org/1999/xlink" viewBox="0 0 100 100"><defs><style>.cls-1{fill:url(#linear-gradient);}.cls-2{fill:url(#linear-gradient-2);}.cls-3{opacity:0.25;}.cls-4{fill:#fff;}</style><linearGradient id="linear-gradient" x1="11.49" y1="60.76" x2="88.29" y2="60.76" gradientUnits="userSpaceOnUse"><stop offset="0" stop-color="#3dba85"/><stop offset="1" stop-color="#1de885"/></linearGradient><linearGradient id="linear-gradient-2" x1="31.15" y1="12.63" x2="64.52" y2="12.63" xlink:href="#linear-gradient"/></defs><path class="cls-1" d="M87.82,78.13c-5.07,21.44-41.65,22.41-61.22,14.7A23.48,23.48,0,0,1,13.68,81C5.19,62.54,23.12,37.36,38.22,26.4,63.06,14.5,92.37,55.85,87.82,78.13Z"/><path class="cls-2" d="M48.15,22.15c-13,4.71-27-27.75-6.93-17.48,5.27,5.13,24.11-7.15,23.27.82-.81,6.24-4.71,11.24-8.49,16-2.19,1.38-5.34.35-7.85.65Z"/><path class="cls-3" d="M57.41,19.72,56,21.51c-2.19,1.38-5.34.35-7.85.65h0C37.46,26,26.13,4.84,33.51,2.81,31.77,8.64,41.27,23.27,50.3,20,52.54,19.74,55.29,20.53,57.41,19.72Z"/><path class="cls-3" d="M86.75,81.32c-7.81,18.41-41.91,18.82-60.4,11.41A23.35,23.35,0,0,1,13.84,81.38C5.37,63.7,21.42,39.75,36.11,28c-7.53,9.22-15.36,22.68-16.92,34.91A23.74,23.74,0,0,0,35.41,88.27,60.35,60.35,0,0,0,86.75,81.32Z"/><path class="cls-3" d="M70.61,65.94a1.45,1.45,0,0,1-1,1.36c-1.08.39-2.15.77-3.23,1.14a.83.83,0,0,0-.56.6c-.45,1.15-.93,2.29-1.46,3.41a.92.92,0,0,0,0,.81c.59,1.21,1.16,2.43,1.75,3.61a.49.49,0,0,1-.1.68c-1,1-2,1.94-2.94,2.93a.49.49,0,0,1-.69.13l0,0c-1.24-.6-2.48-1.2-3.74-1.77a.76.76,0,0,0-.59,0c-1.21.49-2.4,1-3.62,1.48a.79.79,0,0,0-.49.49c-.45,1.29-.92,2.57-1.36,3.86a.46.46,0,0,1-.52.39h-4.2a.45.45,0,0,1-.52-.37c-.44-1.29-.92-2.57-1.36-3.85a.81.81,0,0,0-.57-.54c-1.15-.44-2.3-.91-3.41-1.45a1,1,0,0,0-.86,0c-1.19.6-2.4,1.15-3.62,1.74a.52.52,0,0,1-.72-.12c-.94-1-1.89-1.93-2.89-2.89a.59.59,0,0,1-.12-.81q.9-1.83,1.74-3.66a.84.84,0,0,0,0-.66c-.47-1.18-1-2.37-1.48-3.54a1.14,1.14,0,0,0-.54-.52c-1.27-.47-2.55-.91-3.81-1.37-.14-.06-.34-.25-.34-.38V63a1.57,1.57,0,0,1,1.05-1.48c1-.37,2-.73,3.06-1.07a1,1,0,0,0,.67-.68c.41-1.13.87-2.23,1.38-3.31a.92.92,0,0,0,0-.91c-.59-1.2-1.15-2.4-1.74-3.62a.49.49,0,0,1,.12-.68c1-1,2-1.94,2.93-2.93a.49.49,0,0,1,.68-.1c1.25.61,2.49,1.2,3.75,1.77a.73.73,0,0,0,.58,0c1.2-.48,2.38-1,3.59-1.46A.77.77,0,0,0,46,48c.45-1.29.92-2.57,1.36-3.86a.45.45,0,0,1,.52-.38l.55.08,3.73-.09a.45.45,0,0,1,.45.38C53,45.46,53.51,46.73,54,48a.77.77,0,0,0,.57.53c1.16.45,2.32.93,3.46,1.46a.92.92,0,0,0,.76,0c1.2-.6,2.43-1.15,3.61-1.75a.53.53,0,0,1,.72.11L66,51.25a.53.53,0,0,1,.11.73c-.6,1.23-1.17,2.46-1.77,3.69a.8.8,0,0,0,0,.66c.53,1.17,1,2.37,1.51,3.55a.92.92,0,0,0,.46.49c1.27.48,2.56.94,3.85,1.38a.48.48,0,0,1,.41.55C70.59,63.53,70.6,64.73,70.61,65.94ZM50,57.86a6.61,6.61,0,1,0,6.61,6.61v0A6.59,6.59,0,0,0,50,57.86Z"/><path class="cls-4" d="M70.61,62.56a1.44,1.44,0,0,1-1,1.36c-1.08.39-2.15.77-3.23,1.14a.85.85,0,0,0-.56.6c-.45,1.16-.93,2.29-1.46,3.41a.92.92,0,0,0,0,.81c.59,1.21,1.16,2.43,1.75,3.61a.49.49,0,0,1-.1.68c-1,1-2,2-2.94,2.94a.49.49,0,0,1-.69.12l0,0c-1.24-.6-2.48-1.2-3.74-1.77a.76.76,0,0,0-.59,0c-1.21.49-2.4,1-3.62,1.48a.79.79,0,0,0-.49.5C53.51,78.68,53,80,52.6,81.25a.46.46,0,0,1-.52.39h-4.2a.45.45,0,0,1-.52-.36c-.44-1.3-.92-2.58-1.36-3.86a.81.81,0,0,0-.57-.54c-1.15-.44-2.3-.91-3.41-1.45a1,1,0,0,0-.86,0c-1.19.59-2.4,1.14-3.62,1.73a.52.52,0,0,1-.72-.12c-.94-1-1.89-1.93-2.89-2.89a.59.59,0,0,1-.12-.81c.6-1.21,1.18-2.44,1.74-3.66a.82.82,0,0,0,0-.65c-.47-1.19-1-2.38-1.48-3.55a1.07,1.07,0,0,0-.54-.51c-1.27-.48-2.55-.91-3.81-1.38-.14-.06-.34-.25-.34-.38v-3.6a1.57,1.57,0,0,1,1.05-1.48c1-.37,2-.73,3.06-1.07a1,1,0,0,0,.67-.68c.41-1.13.87-2.23,1.38-3.31a.92.92,0,0,0,0-.91C35,51,34.4,49.77,33.81,48.56a.49.49,0,0,1,.12-.68c1-1,2-2,2.93-2.94a.49.49,0,0,1,.68-.1c1.25.61,2.49,1.2,3.75,1.77a.69.69,0,0,0,.58,0c1.2-.48,2.38-1,3.59-1.45a.78.78,0,0,0,.52-.51c.45-1.29.92-2.57,1.36-3.86a.45.45,0,0,1,.52-.38l.55.08,3.73-.09a.46.46,0,0,1,.45.38c.44,1.29.92,2.56,1.36,3.86a.77.77,0,0,0,.57.52c1.16.45,2.32.93,3.46,1.46a.88.88,0,0,0,.76,0c1.2-.59,2.43-1.15,3.61-1.75a.52.52,0,0,1,.72.12C64,46,65,46.91,66,47.88a.51.51,0,0,1,.11.72c-.6,1.23-1.17,2.46-1.77,3.69a.8.8,0,0,0,0,.66c.53,1.17,1,2.38,1.51,3.55a1,1,0,0,0,.46.5c1.27.47,2.56.94,3.85,1.37a.48.48,0,0,1,.41.55C70.59,60.15,70.6,61.35,70.61,62.56ZM50,54.48a6.61,6.61,0,1,0,6.61,6.61v0A6.59,6.59,0,0,0,50,54.48Z"/></svg>