<svg id="Layer_1" data-name="Layer 1" xmlns="http://www.w3.org/2000/svg" xmlns:xlink="http://www.w3.org/1999/xlink" viewBox="0 0 500 500"><defs><style>.cls-1{fill:none;}.cls-2{fill:url(#linear-gradient);}.cls-15,.cls-3{fill:#fff;}.cls-4{opacity:0.15;fill:url(#linear-gradient-2);}.cls-5{fill:url(#linear-gradient-3);}.cls-6{fill:url(#linear-gradient-4);}.cls-7{fill:url(#linear-gradient-5);}.cls-8{fill:#006837;}.cls-9{fill:url(#linear-gradient-6);}.cls-10{opacity:0.5;}.cls-11{fill:url(#linear-gradient-7);}.cls-12{clip-path:url(#clip-path);}.cls-13{fill:url(#linear-gradient-8);}.cls-14,.cls-17,.cls-18,.cls-20,.cls-21,.cls-23,.cls-24,.cls-26,.cls-27,.cls-28{stroke:#fff;stroke-miterlimit:10;stroke-width:1.4px;}.cls-14,.cls-15,.cls-18,.cls-20,.cls-23,.cls-24,.cls-26,.cls-27{opacity:0.25;}.cls-14{fill:url(#linear-gradient-9);}.cls-16{fill:url(#linear-gradient-10);}.cls-17{fill:url(#linear-gradient-11);}.cls-18{fill:url(#linear-gradient-12);}.cls-19{fill:url(#linear-gradient-13);}.cls-20{fill:url(#linear-gradient-14);}.cls-21{fill:url(#linear-gradient-15);}.cls-22{fill:url(#linear-gradient-16);}.cls-23{fill:url(#linear-gradient-17);}.cls-24{fill:url(#linear-gradient-18);}.cls-25{fill:url(#linear-gradient-19);}.cls-26{fill:url(#linear-gradient-20);}.cls-27{fill:url(#linear-gradient-21);}.cls-28{fill:url(#linear-gradient-22);}.cls-29{fill:url(#linear-gradient-23);}.cls-30{fill:url(#linear-gradient-24);}.cls-31{fill:url(#linear-gradient-25);}.cls-32{fill:url(#linear-gradient-26);}.cls-33{fill:url(#linear-gradient-27);}.cls-34{fill:url(#linear-gradient-28);}</style><linearGradient id="linear-gradient" x1="-215.83" y1="500.08" x2="555.29" y2="-376.53" gradientUnits="userSpaceOnUse"><stop offset="0" stop-color="#d35400"/><stop offset="1" stop-color="#ffb62d"/></linearGradient><linearGradient id="linear-gradient-2" x1="44.46" y1="311.06" x2="471" y2="311.06" gradientUnits="userSpaceOnUse"><stop offset="0" stop-color="#4279e8"/><stop offset="1" stop-color="#42c2e8"/></linearGradient><linearGradient id="linear-gradient-3" x1="33.81" y1="436.02" x2="487.09" y2="436.02" xlink:href="#linear-gradient-2"/><linearGradient id="linear-gradient-4" x1="93.65" y1="249.58" x2="260.28" y2="249.58" gradientUnits="userSpaceOnUse"><stop offset="0" stop-color="#3dba85"/><stop offset="1" stop-color="#1de885"/></linearGradient><linearGradient id="linear-gradient-5" x1="254.59" y1="249.58" x2="442.23" y2="249.58" xlink:href="#linear-gradient-4"/><linearGradient id="linear-gradient-6" x1="281.48" y1="134.84" x2="406.39" y2="134.84" xlink:href="#linear-gradient"/><linearGradient id="linear-gradient-7" x1="281.48" y1="127.47" x2="406.39" y2="127.47" xlink:href="#linear-gradient"/><clipPath id="clip-path"><path class="cls-1" d="M260.28,63.15s-49.14,106.7-166.22,106.7c0,0-16.89,172.14,166.22,266.17"/></clipPath><linearGradient id="linear-gradient-8" x1="384.91" y1="187.31" x2="469.82" y2="187.31" gradientTransform="matrix(-1, 0, 0, 1, 530.01, 0)" xlink:href="#linear-gradient-4"/><linearGradient id="linear-gradient-9" x1="339.1" y1="209.63" x2="478.67" y2="209.63" gradientTransform="matrix(-1, 0, 0, 1, 530.01, 0)" gradientUnits="userSpaceOnUse"><stop offset="0" stop-color="#05a1e8"/><stop offset="1" stop-color="#0562e8"/></linearGradient><linearGradient id="linear-gradient-10" x1="-2831.98" y1="-2337.59" x2="-2764.91" y2="-2337.59" gradientTransform="matrix(1, 0, 0, -1, 2910.01, -2061.01)" xlink:href="#linear-gradient-4"/><linearGradient id="linear-gradient-11" x1="366.85" y1="298.52" x2="418.45" y2="298.52" xlink:href="#linear-gradient-9"/><linearGradient id="linear-gradient-12" x1="345.7" y1="321.2" x2="451.98" y2="321.2" xlink:href="#linear-gradient-9"/><linearGradient id="linear-gradient-13" x1="282.23" y1="298.88" x2="353.09" y2="298.88" gradientTransform="matrix(-1, 0, 0, 1, 530.01, 0)" xlink:href="#linear-gradient"/><linearGradient id="linear-gradient-14" x1="384.92" y1="343.51" x2="428.85" y2="343.51" xlink:href="#linear-gradient-9"/><linearGradient id="linear-gradient-15" x1="384.92" y1="365.46" x2="424.79" y2="365.46" xlink:href="#linear-gradient-9"/><linearGradient id="linear-gradient-16" x1="-2941.85" y1="187.31" x2="-2851.05" y2="187.31" gradientTransform="translate(3098.82)" xlink:href="#linear-gradient-4"/><linearGradient id="linear-gradient-17" x1="-2896.02" y1="209.63" x2="-2851.05" y2="209.63" gradientTransform="translate(3098.82)" xlink:href="#linear-gradient-9"/><linearGradient id="linear-gradient-18" x1="-2977.88" y1="231.94" x2="-2851.05" y2="231.94" gradientTransform="translate(3098.82)" xlink:href="#linear-gradient-9"/><linearGradient id="linear-gradient-19" x1="222.72" y1="-2337.59" x2="313.52" y2="-2337.59" gradientTransform="translate(470.49 -2061.01) rotate(180)" xlink:href="#linear-gradient-4"/><linearGradient id="linear-gradient-20" x1="-2903.78" y1="321.2" x2="-2851.05" y2="321.2" gradientTransform="translate(3098.82)" xlink:href="#linear-gradient-9"/><linearGradient id="linear-gradient-21" x1="-2941.84" y1="343.51" x2="-2851.05" y2="343.51" gradientTransform="translate(3098.82)" xlink:href="#linear-gradient-9"/><linearGradient id="linear-gradient-22" x1="-2941.84" y1="365.46" x2="-2851.05" y2="365.46" gradientTransform="translate(3098.82)" xlink:href="#linear-gradient-9"/><linearGradient id="linear-gradient-23" x1="149.56" y1="386.33" x2="241.62" y2="386.33" xlink:href="#linear-gradient"/><linearGradient id="linear-gradient-24" x1="165.45" y1="385.96" x2="226.28" y2="385.96" xlink:href="#linear-gradient"/><linearGradient id="linear-gradient-25" x1="396.46" y1="326.26" x2="458.03" y2="326.26" xlink:href="#linear-gradient"/><linearGradient id="linear-gradient-26" x1="407.08" y1="326.01" x2="447.78" y2="326.01" xlink:href="#linear-gradient"/><linearGradient id="linear-gradient-27" x1="62.56" y1="319.61" x2="123.75" y2="319.61" xlink:href="#linear-gradient"/><linearGradient id="linear-gradient-28" x1="73.12" y1="319.37" x2="113.56" y2="319.37" xlink:href="#linear-gradient"/></defs><rect class="cls-2" x="33.81" y="35.71" width="169.01" height="169.01" rx="7.64"/><path class="cls-3" d="M62.5,114.56H175.21v52H161.89V127a8.23,8.23,0,0,0-16.31-1.83,10.35,10.35,0,0,0-.17,2.3q0,18.54,0,37.09v1.92H127.11v-1.61q0-19,0-38a8.24,8.24,0,0,0-16.34-1.59,11.86,11.86,0,0,0-.14,2.31q0,18.67,0,37.35v1.53H92V164.6q0-18.36,0-36.71c0-4.84-2.39-8.18-6.51-9.1-5.3-1.19-10.06,2.79-10.06,8.46q0,18.8,0,37.6v1.65H62.5Z"/><path class="cls-3" d="M51.71,108.23c0-2,0-4,0-6a1.66,1.66,0,0,1,.77-1Q73,87.68,93.59,74.18q12-7.89,24-15.8a1.82,1.82,0,0,1,2.37,0q32.41,21.33,64.9,42.57a2.27,2.27,0,0,1,1.22,2.28c-.09,1.66,0,3.33,0,5Zm77.38-23.11a10.22,10.22,0,1,0-10.33,10.13A10.31,10.31,0,0,0,129.09,85.12Z"/><path class="cls-3" d="M118.78,171.34h64.79c2.14,0,2.37.22,2.37,2.35,0,2.32,0,4.63,0,6.95,0,1.39-.46,1.82-1.86,1.86H53.33a1.42,1.42,0,0,1-1.52-1.55c0-2.7,0-5.41,0-8.11a1.34,1.34,0,0,1,1.53-1.49h65.44Z"/><path class="cls-3" d="M120,92.44h-2.14l-.18-1.54c-3.09-1-3.09-1-2.07-3.22a13.56,13.56,0,0,0,2.67.67c.52,0,1.08-.46,1.62-.71a5.5,5.5,0,0,0-1.08-1.37c-.73-.5-1.65-.71-2.39-1.21a3.1,3.1,0,0,1,.27-5.32c1.16-.66,1.16-.66,1.24-2.08h1.95l.17,1.35,2.45.82-.62,2.2a16.31,16.31,0,0,0-2.56-.51c-.42,0-.87.37-1.3.58.27.38.47.88.84,1.1.8.49,1.73.76,2.51,1.26a3.23,3.23,0,0,1-.1,5.55C120.2,90.57,119.67,91.15,120,92.44Z"/><path class="cls-4" d="M54.93,404c-6.69-26.72-13.42-54.33-9.1-81.54s22.63-54.15,49.59-59.77c14.49-3,29.65.32,44.28-1.92,19.63-3,36.46-15.77,50-30.35s24.54-31.3,38.28-45.63,31.13-26.55,50.9-28.51,41.68,9.09,47,28.23c4.87,17.47-4.1,38.3,6.14,53.28,8.49,12.41,26.16,14.22,41,11.83s29.71-7.78,44.52-5.22c15.1,2.6,27.89,13.39,35.9,26.45s11.83,28.26,14.4,43.37c4.9,28.84,5.42,59.72-7.42,86-16,32.68-50.54,53.14-86.08,60.92s-72.45,4.66-108.67,1.29c-75.53-7-206.2-15.91-210.7-58.44"/><ellipse class="cls-5" cx="260.45" cy="436.02" rx="226.64" ry="34.86"/><path class="cls-6" d="M260.28,63.15s-49.14,106.7-166.22,106.7c0,0-16.89,172.14,166.22,266.17"/><path class="cls-7" d="M260.62,63.15s49.14,106.7,166.22,106.7c0,0,16.88,172.14-166.22,266.17"/><polygon class="cls-8" points="417.01 252.18 407.87 279.55 392.23 241.84 380.28 315.54 378.7 325.29 373.57 316.97 337.94 259.15 321.01 329.45 320.01 333.56 318.16 329.81 298.07 289.07 284.22 308.58 297.48 286.92 298.26 285.65 298.97 287 318.9 324.7 334.3 251.83 335.59 245.69 339.07 251 374.32 304.77 385.23 223.11 387.56 205.76 396.46 219.88 417.01 252.18"/><path class="cls-9" d="M329.24,87l-45.47,78.76a17,17,0,0,0,14.69,25.44H389.4a17,17,0,0,0,14.69-25.44L358.62,87A17,17,0,0,0,329.24,87Z"/><path class="cls-10" d="M329.24,87l-45.47,78.76a17,17,0,0,0,14.69,25.44H389.4a17,17,0,0,0,14.69-25.44L358.62,87A17,17,0,0,0,329.24,87Z"/><path class="cls-11" d="M329.24,79.61l-45.47,78.76a17,17,0,0,0,14.69,25.44H389.4a17,17,0,0,0,14.69-25.44L358.62,79.61A17,17,0,0,0,329.24,79.61Z"/><polygon class="cls-3" points="331.21 94.65 356.65 94.65 346.89 144.47 339.09 144.47 331.21 94.65"/><rect class="cls-3" x="334.98" y="157.14" width="17.89" height="17.89"/><g class="cls-12"><rect class="cls-13" x="60.19" y="181.56" width="84.91" height="11.48"/><rect class="cls-14" x="51.34" y="203.89" width="139.57" height="11.48"/><rect class="cls-15" x="76.16" y="248.51" width="97.42" height="11.48"/><rect class="cls-16" x="78.03" y="270.83" width="67.07" height="11.48"/><rect class="cls-17" x="111.56" y="292.77" width="51.6" height="11.48"/><rect class="cls-18" x="78.03" y="315.24" width="106.29" height="11.92"/><rect class="cls-19" x="176.92" y="292.92" width="70.86" height="11.92"/><rect class="cls-20" x="101.16" y="337.77" width="43.93" height="11.48"/><rect class="cls-21" x="105.22" y="359.72" width="39.87" height="11.48"/><rect class="cls-22" x="156.97" y="181.56" width="90.8" height="11.48"/><rect class="cls-23" x="202.8" y="203.89" width="44.98" height="11.48"/><rect class="cls-15" x="184.31" y="248.51" width="63.46" height="11.48"/><rect class="cls-24" x="120.94" y="226.2" width="126.84" height="11.48"/><rect class="cls-25" x="156.97" y="270.83" width="90.8" height="11.48"/><rect class="cls-26" x="195.04" y="315.24" width="52.73" height="11.92"/><rect class="cls-27" x="156.98" y="337.77" width="90.79" height="11.48"/><rect class="cls-28" x="156.98" y="359.72" width="90.79" height="11.48"/></g><path class="cls-3" d="M153.48,386.33a42.11,42.11,0,1,0,42.1-42.11A42.16,42.16,0,0,0,153.48,386.33Z"/><path class="cls-29" d="M195.58,432.36a46,46,0,1,1,46-46A46.07,46.07,0,0,1,195.58,432.36Zm0-87a41,41,0,1,0,41,41A41,41,0,0,0,195.58,345.35Z"/><path class="cls-30" d="M226.28,386a30.42,30.42,0,1,1-30.42-30.42A30.41,30.41,0,0,1,226.28,386Z"/><path class="cls-3" d="M208.73,376.83V375.6a5.59,5.59,0,0,0-1.27-3.69,3.94,3.94,0,0,0-3.17-1.59h-7.15v-5H194v5h-7.16a3.92,3.92,0,0,0-3.16,1.59,5.54,5.54,0,0,0-1.27,3.69v7.2a5.55,5.55,0,0,0,1.27,3.7,3.92,3.92,0,0,0,3.16,1.59h17.41c.77,0,1.34.74,1.34,1.72v7.25c0,1-.57,1.72-1.34,1.72H186.88c-.76,0-1.34-.74-1.34-1.72v-1.23h-3.09v1.23a5.56,5.56,0,0,0,1.27,3.7,3.94,3.94,0,0,0,3.16,1.58H194v5h3.1v-5h7.15a4,4,0,0,0,3.17-1.58,5.62,5.62,0,0,0,1.27-3.7v-7.25a5.62,5.62,0,0,0-1.27-3.7,3.93,3.93,0,0,0-3.17-1.58H186.88c-.76,0-1.34-.74-1.34-1.73v-7.2c0-1,.58-1.72,1.34-1.72h17.41c.77,0,1.34.74,1.34,1.72v1.23Z"/><path class="cls-3" d="M399.08,326.26a28.17,28.17,0,1,0,28.16-28.17A28.2,28.2,0,0,0,399.08,326.26Z"/><path class="cls-31" d="M427.24,357.05A30.79,30.79,0,1,1,458,326.26,30.82,30.82,0,0,1,427.24,357.05Zm0-58.2a27.41,27.41,0,1,0,27.42,27.41A27.45,27.45,0,0,0,427.24,298.85Z"/><path class="cls-32" d="M447.78,326a20.35,20.35,0,1,1-20.35-20.34A20.35,20.35,0,0,1,447.78,326Z"/><path class="cls-3" d="M436,319.91v-.82a3.72,3.72,0,0,0-.85-2.48,2.61,2.61,0,0,0-2.11-1.06h-4.79v-3.32h-2.07v3.32h-4.79a2.64,2.64,0,0,0-2.11,1.06,3.72,3.72,0,0,0-.85,2.48v4.81a3.72,3.72,0,0,0,.85,2.48,2.64,2.64,0,0,0,2.11,1.06h11.65c.51,0,.9.49.9,1.15v4.85c0,.65-.39,1.15-.9,1.15H421.42c-.51,0-.89-.5-.89-1.15v-.82h-2.07v.82a3.67,3.67,0,0,0,.85,2.47,2.64,2.64,0,0,0,2.11,1.06h4.79v3.33h2.07V337h4.79a2.61,2.61,0,0,0,2.11-1.06,3.67,3.67,0,0,0,.85-2.47v-4.85a3.67,3.67,0,0,0-.85-2.47,2.59,2.59,0,0,0-2.11-1.06H421.42c-.51,0-.89-.5-.89-1.16v-4.81c0-.66.38-1.15.89-1.15h11.65c.51,0,.9.49.9,1.15v.82Z"/><path class="cls-3" d="M65.16,319.61a28,28,0,1,0,28-28A28,28,0,0,0,65.16,319.61Z"/><path class="cls-33" d="M93.15,350.21a30.6,30.6,0,1,1,30.6-30.6A30.62,30.62,0,0,1,93.15,350.21Zm0-57.84a27.25,27.25,0,1,0,27.24,27.24A27.27,27.27,0,0,0,93.15,292.37Z"/><path class="cls-34" d="M113.56,319.37a20.22,20.22,0,1,1-20.23-20.22A20.22,20.22,0,0,1,113.56,319.37Z"/><path class="cls-3" d="M101.89,313.3v-.82A3.69,3.69,0,0,0,101,310a2.61,2.61,0,0,0-2.1-1.06H94.18v-3.3H92.13V309H87.37a2.65,2.65,0,0,0-2.11,1,3.73,3.73,0,0,0-.84,2.46v4.79a3.71,3.71,0,0,0,.84,2.46,2.62,2.62,0,0,0,2.11,1H98.94c.51,0,.89.49.89,1.14v4.82c0,.66-.38,1.15-.89,1.15H87.37c-.51,0-.89-.49-.89-1.15v-.81H84.42v.81a3.69,3.69,0,0,0,.84,2.46,2.63,2.63,0,0,0,2.11,1.06h4.76v3.3h2.05v-3.3h4.76a2.61,2.61,0,0,0,2.1-1.06,3.7,3.7,0,0,0,.85-2.46v-4.82a3.69,3.69,0,0,0-.85-2.45,2.6,2.6,0,0,0-2.1-1.05H87.37c-.51,0-.89-.5-.89-1.15v-4.79c0-.65.38-1.14.89-1.14H98.94c.51,0,.89.49.89,1.14v.82Z"/></svg>