<svg id="Layer_1" data-name="Layer 1" xmlns="http://www.w3.org/2000/svg" xmlns:xlink="http://www.w3.org/1999/xlink" viewBox="0 0 100 100"><defs><style>.cls-1{fill:url(#linear-gradient);}.cls-2,.cls-22,.cls-8{fill:#fff;}.cls-2{opacity:0.5;}.cls-3{fill:url(#linear-gradient-2);}.cls-4{fill:url(#linear-gradient-3);}.cls-5{fill:url(#linear-gradient-4);}.cls-6{fill:url(#linear-gradient-5);}.cls-10,.cls-11,.cls-13,.cls-14,.cls-16,.cls-17,.cls-19,.cls-20,.cls-21,.cls-7{stroke:#fff;stroke-miterlimit:10;stroke-width:0.31px;}.cls-11,.cls-13,.cls-16,.cls-17,.cls-19,.cls-20,.cls-7,.cls-8{opacity:0.25;}.cls-7{fill:url(#linear-gradient-6);}.cls-9{fill:url(#linear-gradient-7);}.cls-10{fill:url(#linear-gradient-8);}.cls-11{fill:url(#linear-gradient-9);}.cls-12{fill:url(#linear-gradient-10);}.cls-13{fill:url(#linear-gradient-11);}.cls-14{fill:url(#linear-gradient-12);}.cls-15{fill:url(#linear-gradient-13);}.cls-16{fill:url(#linear-gradient-14);}.cls-17{fill:url(#linear-gradient-15);}.cls-18{fill:url(#linear-gradient-16);}.cls-19{fill:url(#linear-gradient-17);}.cls-20{fill:url(#linear-gradient-18);}.cls-21{fill:url(#linear-gradient-19);}.cls-22{opacity:0.46;}</style><linearGradient id="linear-gradient" x1="48.4" y1="40.68" x2="98.51" y2="40.68" gradientUnits="userSpaceOnUse"><stop offset="0" stop-color="#d35400"/><stop offset="1" stop-color="#ffb62d"/></linearGradient><linearGradient id="linear-gradient-2" x1="50.17" y1="78.32" x2="50.17" y2="94.37" xlink:href="#linear-gradient"/><linearGradient id="linear-gradient-3" x1="48.4" y1="96.27" x2="65.1" y2="96.27" xlink:href="#linear-gradient"/><linearGradient id="linear-gradient-4" x1="1.7" y1="49.2" x2="44.37" y2="49.2" gradientUnits="userSpaceOnUse"><stop offset="0" stop-color="#3dba85"/><stop offset="1" stop-color="#1de885"/></linearGradient><linearGradient id="linear-gradient-5" x1="-435.64" y1="-2.34" x2="-418.24" y2="-2.34" gradientTransform="matrix(1, 0, 0, -1, 505.13, 52.19)" xlink:href="#linear-gradient-4"/><linearGradient id="linear-gradient-6" x1="-445.03" y1="3.03" x2="-416.43" y2="3.03" gradientTransform="matrix(1, 0, 0, -1, 505.13, 52.19)" gradientUnits="userSpaceOnUse"><stop offset="0" stop-color="#05a1e8"/><stop offset="1" stop-color="#0562e8"/></linearGradient><linearGradient id="linear-gradient-7" x1="-2918.11" y1="-3243.14" x2="-2904.36" y2="-3243.14" gradientTransform="matrix(-1, 0, 0, 1, -2834.87, 3276.2)" xlink:href="#linear-gradient-4"/><linearGradient id="linear-gradient-8" x1="-439.34" y1="24.4" x2="-428.77" y2="24.4" xlink:href="#linear-gradient-6"/><linearGradient id="linear-gradient-9" x1="-443.68" y1="29.86" x2="-421.9" y2="29.86" xlink:href="#linear-gradient-6"/><linearGradient id="linear-gradient-10" x1="-456.68" y1="24.49" x2="-442.16" y2="24.49" gradientTransform="matrix(1, 0, 0, -1, 505.13, 52.19)" xlink:href="#linear-gradient"/><linearGradient id="linear-gradient-11" x1="-435.64" y1="35.22" x2="-426.64" y2="35.22" xlink:href="#linear-gradient-6"/><linearGradient id="linear-gradient-12" x1="-435.64" y1="40.5" x2="-427.47" y2="40.5" xlink:href="#linear-gradient-6"/><linearGradient id="linear-gradient-13" x1="-3090.74" y1="-2.34" x2="-3072.14" y2="-2.34" gradientTransform="translate(-3023.69 52.19) rotate(180)" xlink:href="#linear-gradient-4"/><linearGradient id="linear-gradient-14" x1="-3081.35" y1="3.03" x2="-3072.14" y2="3.03" gradientTransform="translate(-3023.69 52.19) rotate(180)" xlink:href="#linear-gradient-6"/><linearGradient id="linear-gradient-15" x1="-3098.13" y1="8.39" x2="-3072.14" y2="8.39" gradientTransform="translate(-3023.69 52.19) rotate(180)" xlink:href="#linear-gradient-6"/><linearGradient id="linear-gradient-16" x1="-516.19" y1="-3243.14" x2="-497.58" y2="-3243.14" gradientTransform="translate(564.64 3276.2)" xlink:href="#linear-gradient-4"/><linearGradient id="linear-gradient-17" x1="-3082.94" y1="29.86" x2="-3072.14" y2="29.86" gradientTransform="translate(-3023.69 52.19) rotate(180)" xlink:href="#linear-gradient-6"/><linearGradient id="linear-gradient-18" x1="-3090.74" y1="35.22" x2="-3072.14" y2="35.22" gradientTransform="translate(-3023.69 52.19) rotate(180)" xlink:href="#linear-gradient-6"/><linearGradient id="linear-gradient-19" x1="-3090.74" y1="40.5" x2="-3072.14" y2="40.5" gradientTransform="translate(-3023.69 52.19) rotate(180)" xlink:href="#linear-gradient-6"/></defs><path class="cls-1" d="M48.4,3h47a3.08,3.08,0,0,1,3.08,3.08v70a2.22,2.22,0,0,1-2.22,2.22H48.4a0,0,0,0,1,0,0V3A0,0,0,0,1,48.4,3Z"/><path class="cls-2" d="M48.4,6.23H94.18a1.25,1.25,0,0,1,1.25,1.25v53.3a0,0,0,0,1,0,0h-47a0,0,0,0,1,0,0V6.23A0,0,0,0,1,48.4,6.23Z"/><rect class="cls-3" x="48.4" y="78.35" width="3.54" height="17"/><rect class="cls-4" x="48.4" y="95.35" width="16.7" height="1.83"/><path class="cls-5" d="M44.37,1.46S31.78,28.79,1.81,28.79c0,0-4.33,44.08,42.56,68.15"/><rect class="cls-6" x="69.49" y="53.15" width="17.4" height="2.76"/><rect class="cls-7" x="60.1" y="47.78" width="28.6" height="2.76"/><rect class="cls-8" x="63.65" y="37.05" width="19.96" height="2.76"/><rect class="cls-9" x="69.49" y="31.68" width="13.74" height="2.76"/><rect class="cls-10" x="65.79" y="26.41" width="10.57" height="2.76"/><rect class="cls-11" x="61.45" y="20.9" width="21.78" height="2.87"/><rect class="cls-12" x="48.45" y="26.27" width="14.52" height="2.87"/><rect class="cls-13" x="69.49" y="15.58" width="9" height="2.76"/><rect class="cls-14" x="69.49" y="10.31" width="8.17" height="2.76"/><rect class="cls-15" x="48.45" y="53.15" width="18.61" height="2.76"/><rect class="cls-16" x="48.45" y="47.78" width="9.22" height="2.76"/><rect class="cls-8" x="48.45" y="37.05" width="13" height="2.76"/><rect class="cls-17" x="48.45" y="42.42" width="25.99" height="2.76"/><rect class="cls-18" x="48.45" y="31.68" width="18.61" height="2.76"/><rect class="cls-19" x="48.45" y="20.9" width="10.8" height="2.87"/><rect class="cls-20" x="48.45" y="15.58" width="18.6" height="2.76"/><rect class="cls-21" x="48.45" y="10.31" width="18.6" height="2.76"/><path class="cls-22" d="M44.37,31.26V70.53a19.64,19.64,0,1,1,0-39.27Z"/></svg>