<svg id="Layer_1" data-name="Layer 1" xmlns="http://www.w3.org/2000/svg" xmlns:xlink="http://www.w3.org/1999/xlink" viewBox="0 0 100 100"><defs><style>.cls-1{fill:url(#linear-gradient);}.cls-2{fill:#fff;}.cls-3{fill:#ffa27b;}.cls-4{fill:#c67d63;}</style><linearGradient id="linear-gradient" x1="3.37" y1="50.16" x2="96.63" y2="50.16" gradientUnits="userSpaceOnUse"><stop offset="0" stop-color="#db1162"/><stop offset="1" stop-color="#ff6817"/></linearGradient></defs><path class="cls-1" d="M96.63,90v5.68H3.37C10.44,86.82,21,79.16,36.56,76L13.11,50.38l5.27-12C33.86,4.68,52.53,4.68,52.53,4.68s18.68,0,34.12,33.67l5.27,12L67.86,75.81C80.43,78.18,89.74,83.47,96.63,90Z"/><path class="cls-2" d="M64,73.4v4.5L52.75,93.58,41.52,77.9V73.07L19.41,49.33c12.9-6.37,56.79-5.51,66.45,0C85.52,49.71,64.29,73,64,73.4Z"/><path class="cls-3" d="M71.65,45.93C72.13,55.39,64,64.72,64,64.72V77.91L52.74,93.59,41.52,77.91V64.72s-8.18-9.37-7.69-18.83A171.34,171.34,0,0,1,71.65,45.93Z"/><path class="cls-4" d="M41.52,64.72a20.93,20.93,0,0,0,11.22,3.35H41.52Z"/></svg>