<svg id="Layer_1" data-name="Layer 1" xmlns="http://www.w3.org/2000/svg" xmlns:xlink="http://www.w3.org/1999/xlink" viewBox="0 0 50 50"><defs><style>.cls-1{fill:#0b4dad;}.cls-2{fill:#4888e5;}.cls-3{fill:#165ea5;}.cls-4{fill:url(#linear-gradient);}.cls-5{fill:url(#linear-gradient-2);}.cls-6{fill:#dfeaef;}.cls-7{fill:#f1f2f2;}.cls-8{fill:#0562e8;}.cls-9{fill:#ed9a15;}.cls-10{fill:#a7a9ac;}.cls-11{fill:#a8c6cc;}.cls-12{fill:#3dba85;}.cls-13{fill:#fff;}.cls-14{fill:#093c7a;}</style><linearGradient id="linear-gradient" x1="306.42" y1="-3622.31" x2="342.34" y2="-3622.31" gradientTransform="matrix(1, 0, 0, -1, -303.27, -3594)" gradientUnits="userSpaceOnUse"><stop offset="0" stop-color="#d35400"/><stop offset="1" stop-color="#ffb62d"/></linearGradient><linearGradient id="linear-gradient-2" x1="306.42" y1="-3632.06" x2="342.34" y2="-3632.06" xlink:href="#linear-gradient"/></defs><rect class="cls-1" x="1.52" y="13.81" width="39.73" height="29.72"/><polygon class="cls-2" points="41.24 13.81 1.52 13.81 8.76 6.47 48.48 6.47 41.24 13.81"/><polygon class="cls-3" points="48.48 36.19 41.24 43.53 41.24 13.81 48.48 6.47 48.48 36.19"/><rect class="cls-4" x="3.14" y="24.57" width="35.92" height="7.49"/><rect class="cls-5" x="3.14" y="34.31" width="35.92" height="7.49"/><rect class="cls-6" x="3.14" y="15.34" width="35.92" height="7.49"/><circle class="cls-7" cx="6.72" cy="28.31" r="2.26"/><circle class="cls-7" cx="13" cy="28.31" r="2.26"/><circle class="cls-7" cx="6.72" cy="38.2" r="2.26"/><circle class="cls-7" cx="13" cy="38.2" r="2.26"/><circle class="cls-7" cx="6.72" cy="19.07" r="2.26"/><circle class="cls-7" cx="13" cy="19.07" r="2.26"/><circle class="cls-8" cx="6.72" cy="28.31" r="1.21"/><circle class="cls-9" cx="13" cy="28.31" r="1.21"/><circle class="cls-10" cx="6.72" cy="38.2" r="1.21"/><circle class="cls-11" cx="6.72" cy="19.07" r="1.21"/><circle class="cls-8" cx="13" cy="38.2" r="1.21"/><circle class="cls-12" cx="13" cy="19.07" r="1.21"/><path class="cls-13" d="M20.75,27.62H28.9a.67.67,0,0,1,.67.67h0a.67.67,0,0,1-.67.67H20.75a.67.67,0,0,1-.66-.67h0a.66.66,0,0,1,.66-.67Z"/><path class="cls-13" d="M20.75,37.53H28.9a.67.67,0,0,1,.67.67h0a.67.67,0,0,1-.67.66H20.75a.67.67,0,0,1-.66-.66h0A.67.67,0,0,1,20.75,37.53Z"/><path class="cls-13" d="M31.66,37.53h4.62a.67.67,0,0,1,.67.67h0a.67.67,0,0,1-.67.66H31.66A.67.67,0,0,1,31,38.2h0A.67.67,0,0,1,31.66,37.53Z"/><path class="cls-13" d="M31.66,27.62h4.62a.67.67,0,0,1,.67.67h0a.67.67,0,0,1-.67.67H31.66a.68.68,0,0,1-.67-.67h0A.67.67,0,0,1,31.66,27.62Z"/><path class="cls-13" d="M31.66,18.42h4.62a.67.67,0,0,1,.67.67h0a.68.68,0,0,1-.67.67H31.66a.67.67,0,0,1-.67-.67h0A.67.67,0,0,1,31.66,18.42Z"/><path class="cls-13" d="M20.75,18.42H28.9a.67.67,0,0,1,.67.67h0a.68.68,0,0,1-.67.67H20.75a.67.67,0,0,1-.66-.67h0a.66.66,0,0,1,.66-.67Z"/><polygon class="cls-14" points="3.14 22.83 3.89 23.62 39.84 23.62 39.07 22.83 3.14 22.83"/><polygon class="cls-3" points="39.07 15.34 39.84 16.34 39.84 23.62 39 22.77 39.07 15.34"/><polygon class="cls-14" points="3.14 32.02 3.89 32.81 39.84 32.81 39.07 32.02 3.14 32.02"/><polygon class="cls-3" points="39.07 24.53 39.84 25.53 39.84 32.81 39 31.97 39.07 24.53"/><polygon class="cls-14" points="3.14 41.81 3.89 42.6 39.84 42.6 39.07 41.81 3.14 41.81"/><polygon class="cls-3" points="39.07 34.32 39.84 35.31 39.84 42.6 39 41.75 39.07 34.32"/></svg>