<svg id="Layer_1" data-name="Layer 1" xmlns="http://www.w3.org/2000/svg" xmlns:xlink="http://www.w3.org/1999/xlink" viewBox="0 0 500 500"><defs><style>.cls-1,.cls-6{fill:none;}.cls-2{opacity:0.5;fill:url(#linear-gradient);}.cls-3{fill:url(#linear-gradient-2);}.cls-4{fill:url(#linear-gradient-3);}.cls-5{fill:url(#linear-gradient-4);}.cls-20,.cls-22,.cls-24,.cls-26,.cls-28,.cls-29,.cls-6{stroke:#fff;stroke-miterlimit:10;}.cls-6{stroke-width:2.68px;}.cls-7{fill:url(#linear-gradient-5);}.cls-8{fill:url(#linear-gradient-6);}.cls-9{fill:url(#linear-gradient-7);}.cls-10{fill:url(#linear-gradient-8);}.cls-11{fill:url(#linear-gradient-9);}.cls-12{fill:url(#linear-gradient-10);}.cls-13{fill:url(#linear-gradient-11);}.cls-14{opacity:0.25;}.cls-15,.cls-31,.cls-32{fill:#fff;}.cls-16{fill:url(#linear-gradient-12);}.cls-17{fill:url(#linear-gradient-13);}.cls-18{fill:url(#linear-gradient-14);}.cls-19{clip-path:url(#clip-path);}.cls-20,.cls-22{stroke-width:1.4px;}.cls-20{fill:url(#linear-gradient-15);}.cls-21{clip-path:url(#clip-path-2);}.cls-22{fill:url(#linear-gradient-16);}.cls-23{clip-path:url(#clip-path-3);}.cls-24{stroke-width:1.48px;fill:url(#linear-gradient-17);}.cls-25{clip-path:url(#clip-path-4);}.cls-26,.cls-28{stroke-width:1.7px;}.cls-26{fill:url(#linear-gradient-18);}.cls-27{clip-path:url(#clip-path-5);}.cls-28{fill:url(#linear-gradient-19);}.cls-29{stroke-width:0.5px;fill:url(#linear-gradient-20);}.cls-30{fill:url(#linear-gradient-21);}.cls-31{opacity:0.18;}.cls-32{opacity:0.31;}</style><linearGradient id="linear-gradient" x1="21.44" y1="390.61" x2="485.13" y2="390.61" gradientUnits="userSpaceOnUse"><stop offset="0" stop-color="#4279e8"/><stop offset="1" stop-color="#42c2e8"/></linearGradient><linearGradient id="linear-gradient-2" x1="223.26" y1="99.09" x2="293.26" y2="99.09" gradientUnits="userSpaceOnUse"><stop offset="0" stop-color="#d35400"/><stop offset="1" stop-color="#ffb62d"/></linearGradient><linearGradient id="linear-gradient-3" x1="-3642.83" y1="4531.68" x2="-3594.7" y2="4531.68" gradientTransform="translate(4278 -4045.33) rotate(5.26)" xlink:href="#linear-gradient-2"/><linearGradient id="linear-gradient-4" x1="-3642.83" y1="4545.42" x2="-3594.7" y2="4545.42" gradientTransform="translate(4279.26 -4072.74) rotate(5.26)" xlink:href="#linear-gradient-2"/><linearGradient id="linear-gradient-5" x1="-189.91" y1="-663.18" x2="-162.75" y2="-663.18" gradientTransform="translate(379.85 735.91)" gradientUnits="userSpaceOnUse"><stop offset="0" stop-color="#3dba85"/><stop offset="1" stop-color="#1de885"/></linearGradient><linearGradient id="linear-gradient-6" x1="-796.01" y1="-1207.64" x2="-768.85" y2="-1207.64" gradientTransform="translate(1004.53 1250.35)" xlink:href="#linear-gradient-5"/><linearGradient id="linear-gradient-7" x1="-3876.04" y1="903.66" x2="-3848.88" y2="903.66" gradientTransform="matrix(1, 0, 0, -1, 4170.76, 976.38)" xlink:href="#linear-gradient-5"/><linearGradient id="linear-gradient-8" x1="-1598.9" y1="1335.19" x2="-1571.74" y2="1335.19" gradientTransform="matrix(1, 0, 0, -1, 1842.33, 1365.85)" xlink:href="#linear-gradient-5"/><linearGradient id="linear-gradient-9" x1="-3631.77" y1="1625.97" x2="-3604.61" y2="1625.97" gradientTransform="matrix(1, 0, 0, -1, 3911.45, 1667.17)" xlink:href="#linear-gradient-5"/><linearGradient id="linear-gradient-10" x1="46.97" y1="191.35" x2="123.77" y2="191.35" gradientTransform="translate(-36.26 45.11) rotate(-18.75)" xlink:href="#linear-gradient-5"/><linearGradient id="linear-gradient-11" x1="66.63" y1="143.23" x2="100" y2="143.23" gradientTransform="translate(-36.26 45.11) rotate(-18.75)" xlink:href="#linear-gradient-5"/><linearGradient id="linear-gradient-12" x1="200.34" y1="314.26" x2="311.47" y2="314.26" xlink:href="#linear-gradient"/><linearGradient id="linear-gradient-13" x1="349.82" y1="389.73" x2="460.95" y2="389.73" xlink:href="#linear-gradient-2"/><linearGradient id="linear-gradient-14" x1="50.87" y1="360.85" x2="162" y2="360.85" gradientTransform="matrix(1, 0, 0, 1, 0, 0)" xlink:href="#linear-gradient-5"/><clipPath id="clip-path"><rect class="cls-1" x="250.33" y="393.6" width="61.15" height="77.98" rx="2.88"/></clipPath><linearGradient id="linear-gradient-15" x1="174.52" y1="-50.58" x2="256.07" y2="-50.58" gradientTransform="translate(511.82 407.2) rotate(180)" gradientUnits="userSpaceOnUse"><stop offset="0" stop-color="#05a1e8"/><stop offset="1" stop-color="#0562e8"/></linearGradient><clipPath id="clip-path-2"><rect class="cls-1" x="225.39" y="156.75" width="81.87" height="104.4" rx="3.86" transform="translate(532.64 417.89) rotate(-180)"/></clipPath><linearGradient id="linear-gradient-16" x1="161.55" y1="116.02" x2="270.73" y2="116.02" gradientTransform="translate(29.27 59.21)" xlink:href="#linear-gradient-15"/><clipPath id="clip-path-3"><rect class="cls-1" x="398.37" y="300.3" width="55.01" height="70.16" rx="2.59" transform="translate(90.5 761.25) rotate(-90)"/></clipPath><linearGradient id="linear-gradient-17" x1="323.32" y1="279.91" x2="396.68" y2="279.91" gradientTransform="translate(728.45 -38.68) rotate(90)" gradientUnits="userSpaceOnUse"><stop offset="0" stop-color="#db1162"/><stop offset="1" stop-color="#ff6817"/></linearGradient><clipPath id="clip-path-4"><rect class="cls-1" x="98.56" y="390.67" width="63.44" height="80.9" rx="2.99"/></clipPath><linearGradient id="linear-gradient-18" x1="16.03" y1="194.39" x2="100.63" y2="194.39" gradientTransform="translate(204.81 651.65) rotate(180)" xlink:href="#linear-gradient-17"/><clipPath id="clip-path-5"><rect class="cls-1" x="75.7" y="250.12" width="63.44" height="80.9" rx="2.99" transform="translate(214.83 581.14) rotate(-180)"/></clipPath><linearGradient id="linear-gradient-19" x1="56.61" y1="474.18" x2="141.21" y2="474.18" gradientTransform="translate(-7.7 -209.74)" xlink:href="#linear-gradient-17"/><linearGradient id="linear-gradient-20" x1="398.65" y1="259.62" x2="436.42" y2="259.62" xlink:href="#linear-gradient-2"/><linearGradient id="linear-gradient-21" x1="380.48" y1="274.41" x2="396.72" y2="274.41" xlink:href="#linear-gradient"/></defs><path class="cls-2" d="M485.13,406.16v78H21.44v-46a278.8,278.8,0,0,1,463.69-32Z"/><path class="cls-3" d="M293.18,85.9a35,35,0,0,1-14.46,30.74v23.18a5.13,5.13,0,0,1-5.13,5.13H242.9a5.13,5.13,0,0,1-5.13-5.13v-23.2a35,35,0,0,1,21.8-63.36A35.31,35.31,0,0,1,293.18,85.9Z"/><rect class="cls-4" x="234.63" y="131.34" width="48.3" height="7.87" rx="3.94" transform="translate(528.87 246.25) rotate(174.74)"/><rect class="cls-5" x="234.63" y="117.6" width="48.3" height="7.87" rx="3.94" transform="translate(527.61 218.83) rotate(174.74)"/><path class="cls-6" d="M244.26,115s17.67-32.55,4.37-41.65-12.13,29.23,5,24.15S280.3,68.3,270.5,70.22s-11.72,32.73-3.15,41.13"/><rect class="cls-7" x="189.93" y="69.57" width="27.16" height="6.31" rx="3.15" transform="translate(44.67 -73.82) rotate(23.03)"/><rect class="cls-8" x="208.52" y="39.56" width="27.16" height="6.31" rx="3.15" transform="translate(95.25 -144.54) rotate(45)"/><rect class="cls-9" x="294.72" y="69.57" width="27.16" height="6.31" rx="3.15" transform="translate(620.49 19.05) rotate(156.97)"/><rect class="cls-10" x="243.43" y="27.51" width="27.16" height="6.31" rx="3.15" transform="translate(287.68 -226.35) rotate(90)"/><rect class="cls-11" x="279.68" y="38.04" width="27.16" height="6.31" rx="3.15" transform="translate(529.75 -137.05) rotate(135)"/><path class="cls-12" d="M147.59,203.12c2.1,21.93-32.23,34.61-53.24,33.6a23.49,23.49,0,0,1-16-7c-14-14.79-5.11-44.4,5.67-59.64C103.7,150.83,144.75,180.56,147.59,203.12Z"/><path class="cls-13" d="M92,162.86c-10.82,8.65-34.49-17.6-12.18-14.33,6.63,3.17,20.53-14.52,22.3-6.69,1.23,6.17-.85,12.15-2.9,17.89-1.62,2-4.93,2.05-7.22,3.14Z"/><path class="cls-14" d="M100,157.58c-.26.72-.51,1.44-.76,2.15-1.63,2-5,2.05-7.23,3.14h0C83.16,170,65.62,153.55,72,149.25c.23,6.08,13.92,16.88,21.42,10.88C95.42,159.17,98.28,159,100,157.58Z"/><path class="cls-14" d="M147.61,206.48c-1.48,19.94-33.63,31.29-53.53,30.22A23.34,23.34,0,0,1,78.59,230c-13.7-14-6.21-41.87,3.93-57.71-4.17,11.16-7.26,26.41-4.8,38.5a23.72,23.72,0,0,0,23.5,18.79A60.3,60.3,0,0,0,147.61,206.48Z"/><path class="cls-14" d="M127.38,197.1a1.44,1.44,0,0,1-.47,1.6l-2.69,2.12a.82.82,0,0,0-.34.75c0,1.24-.15,2.47-.28,3.7a.93.93,0,0,0,.26.76c1,.95,1.88,1.93,2.82,2.86a.48.48,0,0,1,.12.67c-.63,1.24-1.24,2.48-1.83,3.73a.51.51,0,0,1-.62.34l0,0c-1.37-.16-2.74-.33-4.12-.47a.73.73,0,0,0-.56.18c-1,.85-2,1.73-3,2.56a.8.8,0,0,0-.3.63c0,1.36,0,2.72,0,4.08a.47.47,0,0,1-.37.54l-4,1.35a.45.45,0,0,1-.61-.18c-.83-1.08-1.7-2.14-2.53-3.21a.79.79,0,0,0-.71-.33c-1.23,0-2.46-.13-3.69-.28a1,1,0,0,0-.82.29c-.93.94-1.9,1.85-2.86,2.8a.53.53,0,0,1-.73.12c-1.2-.62-2.4-1.22-3.66-1.81a.58.58,0,0,1-.38-.73c.18-1.34.34-2.68.47-4a.82.82,0,0,0-.19-.62c-.84-1-1.68-1.93-2.55-2.88a1.13,1.13,0,0,0-.68-.31c-1.35-.05-2.7,0-4-.08a.59.59,0,0,1-.45-.25l-1.15-3.41a1.57,1.57,0,0,1,.51-1.74c.85-.67,1.69-1.34,2.55-2a1,1,0,0,0,.42-.86c0-1.2.11-2.39.24-3.58a.92.92,0,0,0-.29-.86c-.94-.94-1.86-1.91-2.8-2.87a.48.48,0,0,1-.11-.68c.63-1.23,1.23-2.47,1.83-3.72a.49.49,0,0,1,.61-.31c1.38.17,2.74.33,4.12.47a.73.73,0,0,0,.56-.18c1-.84,1.93-1.71,2.92-2.53a.78.78,0,0,0,.34-.65c0-1.36,0-2.72,0-4.09a.46.46,0,0,1,.37-.53l.55-.1,3.5-1.28a.46.46,0,0,1,.55.21c.83,1.08,1.69,2.14,2.52,3.22a.79.79,0,0,0,.71.31c1.25.06,2.51.14,3.75.27a.88.88,0,0,0,.72-.25c1-1,1.93-1.87,2.85-2.82a.53.53,0,0,1,.73-.12l3.66,1.8a.53.53,0,0,1,.34.65c-.18,1.36-.32,2.71-.49,4.07a.75.75,0,0,0,.2.62c.87.95,1.71,1.94,2.57,2.89a1,1,0,0,0,.59.31c1.36.05,2.73.07,4.09.07a.48.48,0,0,1,.57.38C126.58,194.83,127,196,127.38,197.1Zm-22.09-1a6.61,6.61,0,1,0,8.39,4.13l0,0a6.59,6.59,0,0,0-8.37-4.1Z"/><path class="cls-15" d="M126.29,193.9a1.45,1.45,0,0,1-.46,1.6c-.9.71-1.79,1.42-2.7,2.12a.87.87,0,0,0-.34.75c-.05,1.24-.14,2.47-.28,3.7a.94.94,0,0,0,.27.76c1,.95,1.87,1.93,2.82,2.86a.5.5,0,0,1,.12.68c-.64,1.23-1.24,2.47-1.84,3.72a.5.5,0,0,1-.61.34h0c-1.37-.17-2.74-.34-4.11-.48a.76.76,0,0,0-.56.18c-1,.85-2,1.73-3,2.56a.8.8,0,0,0-.3.63c0,1.36,0,2.72,0,4.08a.46.46,0,0,1-.37.54l-4,1.35a.46.46,0,0,1-.62-.18c-.83-1.08-1.69-2.14-2.52-3.21a.82.82,0,0,0-.72-.33c-1.22-.05-2.46-.12-3.69-.27a.94.94,0,0,0-.81.28c-.94.94-1.91,1.85-2.87,2.8a.52.52,0,0,1-.72.12c-1.21-.62-2.41-1.22-3.67-1.81a.59.59,0,0,1-.38-.73q.27-2,.48-4a.86.86,0,0,0-.2-.63c-.83-1-1.68-1.93-2.54-2.87a1.11,1.11,0,0,0-.68-.32c-1.35,0-2.7,0-4-.08-.15,0-.4-.12-.44-.24l-1.16-3.41a1.6,1.6,0,0,1,.51-1.75c.85-.67,1.7-1.34,2.56-2a1,1,0,0,0,.41-.86c0-1.2.12-2.39.25-3.58a.9.9,0,0,0-.3-.86c-.94-.94-1.85-1.91-2.8-2.87a.5.5,0,0,1-.11-.68c.63-1.23,1.24-2.47,1.84-3.72a.49.49,0,0,1,.61-.31c1.37.17,2.74.33,4.11.47a.72.72,0,0,0,.56-.18c1-.84,1.93-1.71,2.93-2.53a.75.75,0,0,0,.33-.65c0-1.36,0-2.72,0-4.09a.45.45,0,0,1,.36-.53l.55-.1,3.51-1.28a.46.46,0,0,1,.54.21c.83,1.09,1.7,2.14,2.53,3.22a.8.8,0,0,0,.71.32c1.24,0,2.5.13,3.74.26a.87.87,0,0,0,.72-.25c.95-.95,1.93-1.87,2.86-2.82a.52.52,0,0,1,.72-.12l3.67,1.8a.52.52,0,0,1,.33.65c-.18,1.36-.32,2.71-.49,4.07a.78.78,0,0,0,.2.62c.88.95,1.71,1.94,2.57,2.89a1.07,1.07,0,0,0,.6.32c1.36,0,2.72.06,4.09.06a.48.48,0,0,1,.56.38C125.5,191.63,125.9,192.77,126.29,193.9Zm-22.09-1a6.61,6.61,0,1,0,8.39,4.13v0a6.58,6.58,0,0,0-8.38-4.1Z"/><path class="cls-16" d="M212.87,156.94H299a12.52,12.52,0,0,1,12.52,12.52V471.58a0,0,0,0,1,0,0H200.34a0,0,0,0,1,0,0V169.46A12.52,12.52,0,0,1,212.87,156.94Z"/><path class="cls-14" d="M212.87,156.8h0a12.52,12.52,0,0,1,12.52,12.52V471.58a0,0,0,0,1,0,0h-25a0,0,0,0,1,0,0V169.33a12.52,12.52,0,0,1,12.52-12.52Z"/><rect class="cls-17" x="349.82" y="307.89" width="111.13" height="163.69"/><rect class="cls-14" x="349.82" y="307.89" width="25.04" height="163.69"/><rect class="cls-18" x="50.87" y="250.12" width="111.13" height="221.46"/><rect class="cls-14" x="50.87" y="250.12" width="25.04" height="221.46"/><g class="cls-19"><path class="cls-20" d="M337.12,462a1,1,0,0,1-.81,1.09c-2.56.86-5.11,1.77-7.62,2.71a2,2,0,0,0-.92,1c-1,2.31-1.93,4.67-3,7a1.44,1.44,0,0,0,0,1.34c1.19,2.43,2.3,4.88,3.51,7.31a1,1,0,0,1-.22,1.43c-1.91,1.9-3.81,3.81-5.72,5.72a1.05,1.05,0,0,1-1.43.22c-2.34-1.18-4.76-2.28-7.15-3.46a1.62,1.62,0,0,0-1.54,0c-2.23,1-4.52,2-6.8,2.86a1.56,1.56,0,0,0-1.13,1.05c-.88,2.56-1.82,5.07-2.69,7.63a.91.91,0,0,1-1.05.73h-8.31a.9.9,0,0,1-1-.76c-.87-2.56-1.8-5.09-2.69-7.63a1.53,1.53,0,0,0-1-1c-2.36-.89-4.68-1.92-7-2.86a1.74,1.74,0,0,0-1.23,0c-2.49,1.13-4.95,2.3-7.41,3.5a1,1,0,0,1-1.34-.2c-1.92-2-3.85-3.9-5.8-5.8a1,1,0,0,1-.23-1.35c1.15-2.4,2.26-4.79,3.43-7.15a1.86,1.86,0,0,0,0-1.8c-1-2.14-1.92-4.31-2.73-6.54a1.93,1.93,0,0,0-1.33-1.35c-2.72-.9-5.41-1.89-8.12-2.86v-9.32c0-.26.38-.63.67-.74,2.56-.95,5.15-1.82,7.7-2.79a1.89,1.89,0,0,0,.91-1c1-2.31,2-4.66,2.93-7a1.85,1.85,0,0,0,0-1.23q-1.68-3.68-3.48-7.31a1.15,1.15,0,0,1,.25-1.6c2-1.9,3.86-3.79,5.71-5.72a1,1,0,0,1,1.43-.24c2.41,1.17,4.81,2.26,7.15,3.43a1.78,1.78,0,0,0,1.73,0c2.2-1.06,4.46-2,6.72-2.86a1.57,1.57,0,0,0,1.13-1.06c.87-2.54,1.82-5.07,2.69-7.63a.91.91,0,0,1,1-.72h8.31a.93.93,0,0,1,1,.78c.87,2.54,1.8,5.07,2.68,7.62a1.54,1.54,0,0,0,1,1c2.36.89,4.67,1.92,7,2.86a1.74,1.74,0,0,0,1.23,0c2.48-1.13,4.94-2.32,7.4-3.5l.06,0a1,1,0,0,1,1.37.24c1.9,2,3.83,3.9,5.81,5.8a1,1,0,0,1,.2,1.35c-1.18,2.34-2.29,4.76-3.46,7.14a1.64,1.64,0,0,0,0,1.63q1.55,3.32,2.86,6.72A1.67,1.67,0,0,0,329,449.8c2.77.94,5.52,1.94,8.29,2.95C337.29,455.79,337.28,458.84,337.12,462Zm-40.57,19.23a23.47,23.47,0,0,0,23.54-23.4v-.12a23.54,23.54,0,1,0-23.55,23.52Z"/></g><g class="cls-21"><path class="cls-22" d="M191.05,169.63a1.3,1.3,0,0,1,1.09-1.45q5.15-1.73,10.2-3.64a2.6,2.6,0,0,0,1.23-1.3c1.34-3.1,2.58-6.26,4-9.36a1.91,1.91,0,0,0,0-1.8c-1.59-3.25-3.08-6.52-4.69-9.78a1.37,1.37,0,0,1,.29-1.91l7.65-7.66a1.4,1.4,0,0,1,1.92-.3c3.14,1.58,6.37,3.06,9.57,4.63a2.15,2.15,0,0,0,2.06,0c3-1.38,6-2.64,9.11-3.83a2.11,2.11,0,0,0,1.52-1.4c1.16-3.42,2.43-6.79,3.59-10.22a1.21,1.21,0,0,1,1.4-1h11.13a1.21,1.21,0,0,1,1.37,1c1.17,3.43,2.41,6.81,3.6,10.22a2,2,0,0,0,1.4,1.34c3.15,1.19,6.26,2.57,9.39,3.83a2.34,2.34,0,0,0,1.65,0c3.33-1.51,6.62-3.08,9.91-4.69a1.29,1.29,0,0,1,1.8.27c2.57,2.62,5.15,5.22,7.77,7.77a1.29,1.29,0,0,1,.31,1.8c-1.55,3.21-3,6.41-4.59,9.57a2.46,2.46,0,0,0,0,2.41c1.34,2.87,2.56,5.78,3.65,8.77a2.55,2.55,0,0,0,1.78,1.79c3.64,1.21,7.24,2.53,10.88,3.83V181c0,.35-.52.84-.9,1-3.43,1.26-6.9,2.43-10.32,3.73a2.44,2.44,0,0,0-1.21,1.28c-1.36,3.1-2.66,6.24-3.92,9.38a2.46,2.46,0,0,0,0,1.65q2.24,4.92,4.65,9.78A1.54,1.54,0,0,1,288,210c-2.66,2.55-5.16,5.07-7.65,7.66a1.4,1.4,0,0,1-1.92.32c-3.21-1.57-6.43-3-9.57-4.59a2.37,2.37,0,0,0-2.31,0c-2.95,1.42-6,2.66-9,3.83a2.11,2.11,0,0,0-1.51,1.41c-1.17,3.41-2.43,6.8-3.6,10.22a1.2,1.2,0,0,1-1.39,1H239.89a1.22,1.22,0,0,1-1.37-1c-1.17-3.41-2.42-6.8-3.6-10.2a2.07,2.07,0,0,0-1.4-1.36c-3.16-1.19-6.26-2.57-9.4-3.83a2.32,2.32,0,0,0-1.64,0c-3.33,1.51-6.63,3.1-9.92,4.69l-.07,0a1.32,1.32,0,0,1-1.84-.32c-2.55-2.62-5.13-5.23-7.77-7.77a1.3,1.3,0,0,1-.27-1.8c1.57-3.14,3.06-6.37,4.63-9.57a2.23,2.23,0,0,0,0-2.18q-2.07-4.43-3.83-9a2.25,2.25,0,0,0-1.49-1.59c-3.71-1.26-7.39-2.6-11.1-3.94C190.82,177.88,190.84,173.81,191.05,169.63Zm54.32-25.74a31.44,31.44,0,0,0-31.53,31.33v.16a31.51,31.51,0,1,0,31.53-31.49Z"/></g><g class="cls-23"><path class="cls-24" d="M452.29,284.79a.88.88,0,0,1,1,.74c.77,2.3,1.59,4.59,2.44,6.85a1.82,1.82,0,0,0,.88.83c2.08.9,4.2,1.73,6.29,2.66a1.3,1.3,0,0,0,1.21,0c2.18-1.07,4.38-2.07,6.57-3.15a.92.92,0,0,1,1.28.19l5.15,5.15a.93.93,0,0,1,.2,1.28c-1.06,2.11-2.05,4.28-3.11,6.43a1.43,1.43,0,0,0,0,1.39c.93,2,1.78,4.07,2.57,6.12a1.42,1.42,0,0,0,.94,1c2.31.78,4.57,1.63,6.87,2.42a.81.81,0,0,1,.66.94v7.47h0a.82.82,0,0,1-.68.92c-2.31.78-4.58,1.62-6.87,2.41a1.39,1.39,0,0,0-.9.94c-.8,2.12-1.73,4.21-2.58,6.32a1.6,1.6,0,0,0,0,1.1c1,2.24,2.08,4.45,3.16,6.67a.89.89,0,0,1-.18,1.21c-1.77,1.72-3.52,3.46-5.23,5.22a.86.86,0,0,1-1.2.2c-2.17-1-4.31-2-6.44-3.08a1.62,1.62,0,0,0-1.62,0c-1.93.9-3.88,1.72-5.89,2.45a1.76,1.76,0,0,0-1.21,1.2c-.81,2.44-1.69,4.86-2.57,7.3h-8.38c-.24,0-.57-.34-.67-.6-.85-2.3-1.64-4.63-2.51-6.93a1.66,1.66,0,0,0-.86-.81c-2.09-.92-4.2-1.79-6.31-2.64a1.6,1.6,0,0,0-1.1,0c-2.21,1-4.4,2.05-6.57,3.13a1,1,0,0,1-1.44-.22c-1.72-1.79-3.41-3.48-5.15-5.15a.94.94,0,0,1-.22-1.28c1.06-2.16,2-4.33,3.09-6.43a1.6,1.6,0,0,0,0-1.56c-.95-2-1.79-4-2.57-6.05a1.42,1.42,0,0,0-1-1c-2.28-.79-4.56-1.64-6.86-2.42a.81.81,0,0,1-.65-.94v-7.47a.83.83,0,0,1,.7-.93c2.29-.78,4.56-1.62,6.85-2.42a1.38,1.38,0,0,0,.92-.93c.79-2.13,1.72-4.21,2.57-6.32a1.63,1.63,0,0,0,0-1.11c-1-2.23-2.08-4.45-3.15-6.66a.1.1,0,0,1,0-.05.88.88,0,0,1,.22-1.23c1.76-1.72,3.51-3.45,5.22-5.23a.89.89,0,0,1,1.21-.18c2.11,1.06,4.28,2.06,6.43,3.12a1.53,1.53,0,0,0,1.47,0q3-1.4,6-2.58a1.48,1.48,0,0,0,1.07-1c.85-2.49,1.75-5,2.65-7.46C446.75,284.64,449.49,284.65,452.29,284.79Zm17.3,36.51a21.12,21.12,0,0,0-21-21.19h-.11a21.17,21.17,0,1,0,21.16,21.19Z"/></g><g class="cls-25"><path class="cls-26" d="M188.6,461.59a1,1,0,0,1-.84,1.13c-2.66.89-5.3,1.84-7.91,2.82a2,2,0,0,0-.95,1c-1,2.4-2,4.85-3.07,7.25a1.49,1.49,0,0,0,0,1.39c1.24,2.52,2.39,5.06,3.64,7.58a1.07,1.07,0,0,1-.22,1.48l-5.94,5.94a1.07,1.07,0,0,1-1.48.23c-2.43-1.23-4.94-2.37-7.42-3.58a1.63,1.63,0,0,0-1.6,0c-2.31,1.06-4.69,2-7.06,3a1.63,1.63,0,0,0-1.17,1.08c-.91,2.66-1.88,5.27-2.79,7.93a.93.93,0,0,1-1.08.75h-8.63a.93.93,0,0,1-1.06-.78c-.9-2.66-1.87-5.28-2.79-7.92a1.57,1.57,0,0,0-1.08-1c-2.45-.92-4.85-2-7.28-3a1.77,1.77,0,0,0-1.28,0c-2.58,1.17-5.13,2.39-7.68,3.63a1,1,0,0,1-1.39-.2c-2-2-4-4-6-6a1,1,0,0,1-.23-1.39c1.2-2.49,2.34-5,3.56-7.42a1.92,1.92,0,0,0,0-1.86c-1-2.23-2-4.48-2.84-6.8a2,2,0,0,0-1.38-1.39c-2.81-.94-5.6-2-8.42-3v-9.67c0-.27.4-.65.7-.77,2.65-1,5.34-1.88,8-2.89a2,2,0,0,0,.94-1c1-2.4,2.06-4.83,3-7.26a2,2,0,0,0,0-1.28q-1.74-3.81-3.61-7.58a1.2,1.2,0,0,1,.25-1.66c2.07-2,4-3.93,5.94-5.93a1.09,1.09,0,0,1,1.48-.26c2.49,1.22,5,2.35,7.42,3.56a1.79,1.79,0,0,0,1.79,0c2.29-1.09,4.63-2.06,7-3a1.64,1.64,0,0,0,1.17-1.1c.91-2.64,1.89-5.26,2.79-7.92a.94.94,0,0,1,1.09-.74h8.61a1,1,0,0,1,1.07.8c.91,2.64,1.87,5.26,2.79,7.91a1.62,1.62,0,0,0,1.08,1.05c2.45.92,4.85,2,7.28,3a1.77,1.77,0,0,0,1.28,0c2.58-1.17,5.13-2.4,7.68-3.63l.06,0a1,1,0,0,1,1.43.25c2,2,4,4.05,6,6a1,1,0,0,1,.21,1.39c-1.22,2.44-2.38,4.94-3.59,7.42a1.7,1.7,0,0,0,0,1.69q1.59,3.44,3,7a1.73,1.73,0,0,0,1.16,1.23c2.88,1,5.73,2,8.6,3.06C188.78,455.2,188.77,458.36,188.6,461.59Zm-42.09,20a24.36,24.36,0,0,0,24.43-24.28v-.12a24.42,24.42,0,1,0-24.43,24.4Z"/></g><g class="cls-27"><path class="cls-28" d="M49.09,260.11a1,1,0,0,1,.84-1.13c2.66-.89,5.3-1.84,7.91-2.82a2,2,0,0,0,.95-1c1-2.4,2-4.85,3.07-7.25a1.49,1.49,0,0,0,0-1.39c-1.23-2.53-2.39-5.06-3.64-7.58a1.08,1.08,0,0,1,.23-1.49l5.93-5.93a1.09,1.09,0,0,1,1.48-.24c2.43,1.23,4.94,2.38,7.42,3.59a1.63,1.63,0,0,0,1.6,0c2.31-1.07,4.69-2,7.06-3a1.65,1.65,0,0,0,1.17-1.09c.91-2.65,1.89-5.26,2.79-7.92a.93.93,0,0,1,1.08-.75h8.63a.93.93,0,0,1,1.06.78c.9,2.66,1.87,5.28,2.79,7.92a1.57,1.57,0,0,0,1.08,1c2.45.92,4.85,2,7.28,3a1.88,1.88,0,0,0,1.28,0c2.58-1.17,5.13-2.39,7.68-3.64a1,1,0,0,1,1.4.21c2,2,4,4.05,6,6a1,1,0,0,1,.23,1.4c-1.2,2.49-2.34,5-3.55,7.41a1.89,1.89,0,0,0,0,1.87c1,2.23,2,4.48,2.83,6.8a2,2,0,0,0,1.38,1.39c2.82.93,5.6,2,8.42,3V269c0,.26-.4.65-.7.77-2.65,1-5.33,1.88-8,2.89a1.91,1.91,0,0,0-.93,1c-1.06,2.41-2.07,4.84-3,7.27a1.88,1.88,0,0,0,0,1.28q1.73,3.81,3.6,7.58a1.2,1.2,0,0,1-.25,1.66c-2.06,2-4,3.93-5.94,5.93a1.08,1.08,0,0,1-1.48.25c-2.49-1.21-5-2.34-7.41-3.56a1.86,1.86,0,0,0-1.8,0c-2.28,1.1-4.63,2.06-7,3a1.63,1.63,0,0,0-1.17,1.1c-.91,2.64-1.89,5.26-2.79,7.92a.94.94,0,0,1-1.08.74H86.94a1,1,0,0,1-1.07-.8C85,303.3,84,300.67,83.08,298A1.6,1.6,0,0,0,82,297c-2.45-.92-4.85-2-7.28-3a1.88,1.88,0,0,0-1.28,0c-2.58,1.17-5.13,2.41-7.68,3.64l-.06,0a1,1,0,0,1-1.42-.25c-2-2-4-4.05-6-6a1,1,0,0,1-.2-1.4c1.21-2.43,2.37-4.94,3.58-7.41a1.7,1.7,0,0,0,0-1.69q-1.59-3.44-3-7a1.77,1.77,0,0,0-1.16-1.24c-2.88-1-5.72-2-8.6-3C48.91,266.5,48.92,263.34,49.09,260.11Zm42.09-20a24.36,24.36,0,0,0-24.43,24.28v.12a24.42,24.42,0,1,0,24.43-24.4Z"/></g><path class="cls-29" d="M398.66,274.42c0-4.12,0-8.25,0-12.38a.91.91,0,0,1,.28-.71,22.28,22.28,0,0,0,3.47-4.78,71.42,71.42,0,0,1,8.18-11.93c2.91-3.28,2.34-7.81,4.16-11.57a2.87,2.87,0,0,1,4.78-.79c2.71,3.09,2.9,7.74,1.85,11.55-1.23,3.18-3.63,6-3.94,9.5a1.23,1.23,0,0,0,1.1,1.34,21.29,21.29,0,0,0,4.06.44c4.09.1,8.91-1.43,11.79,2.42a4.93,4.93,0,0,1,.62,6c-.14.17-.14.28,0,.42a4.23,4.23,0,0,1,1.39,3.47,6.82,6.82,0,0,1-1.77,4.92.29.29,0,0,0,0,.38,6.62,6.62,0,0,1-1.51,7.87.59.59,0,0,0-.21.66,6,6,0,0,1-2.61,5.73,6.41,6.41,0,0,1-2.78.75c-7.71.46-15.44.07-23.16.08-1.8,0-3.49-.95-5.3-.49-.34.06-.38-.06-.38-.36Q398.67,280.67,398.66,274.42Z"/><path class="cls-30" d="M396.7,274.39c0-3.71,0-7.42,0-11.14a2.65,2.65,0,0,0-2.86-2.87h-10.5a2.66,2.66,0,0,0-2.85,2.86c0,7.41,0,14.83,0,22.24a2.8,2.8,0,0,0,2.95,2.95q5.18-.07,10.33,0a2.81,2.81,0,0,0,3-3C396.66,281.77,396.7,278.08,396.7,274.39Zm-8.09,12.09a2.2,2.2,0,1,1,2.18-2.21A2.2,2.2,0,0,1,388.61,286.48Z"/><rect class="cls-31" x="233.84" y="249.5" width="30.07" height="30.07" rx="5.71"/><rect class="cls-31" x="274.06" y="249.5" width="30.07" height="30.07" rx="5.71"/><rect class="cls-31" x="233.84" y="289.66" width="30.07" height="30.07" rx="5.71"/><rect class="cls-31" x="233.84" y="329.82" width="30.07" height="30.07" rx="5.71"/><rect class="cls-31" x="274.06" y="289.66" width="30.07" height="30.07" rx="5.71"/><rect class="cls-31" x="274.06" y="329.82" width="30.07" height="30.07" rx="5.71"/><rect class="cls-31" x="233.84" y="369.99" width="30.07" height="30.07" rx="5.71"/><rect class="cls-31" x="274.06" y="369.99" width="30.07" height="30.07" rx="5.71"/><rect class="cls-32" x="382.02" y="393.6" width="30.07" height="30.07" rx="5.71"/><rect class="cls-32" x="422.23" y="393.6" width="30.07" height="30.07" rx="5.71"/><rect class="cls-32" x="382.02" y="433.76" width="30.07" height="30.07" rx="5.71"/><rect class="cls-32" x="422.23" y="433.76" width="30.07" height="30.07" rx="5.71"/><rect class="cls-32" x="85.32" y="329.79" width="30.07" height="30.07" rx="5.71"/><rect class="cls-32" x="125.53" y="329.79" width="30.07" height="30.07" rx="5.71"/><rect class="cls-32" x="85.32" y="369.95" width="30.07" height="30.07" rx="5.71"/><rect class="cls-32" x="125.53" y="369.95" width="30.07" height="30.07" rx="5.71"/></svg>