<svg id="Layer_1" data-name="Layer 1" xmlns="http://www.w3.org/2000/svg" xmlns:xlink="http://www.w3.org/1999/xlink" viewBox="0 0 100 100"><defs><style>.cls-1,.cls-10{fill:none;}.cls-2{fill:url(#linear-gradient);}.cls-3{opacity:0.25;}.cls-4{fill:url(#linear-gradient-2);}.cls-5{fill:url(#linear-gradient-3);}.cls-6{fill:url(#linear-gradient-4);}.cls-10,.cls-7{stroke:#fff;stroke-miterlimit:10;}.cls-7{stroke-width:0.41px;fill:url(#linear-gradient-5);}.cls-8{clip-path:url(#clip-path);}.cls-9{fill:#fff;}.cls-10{stroke-width:0.34px;}</style><linearGradient id="linear-gradient" x1="39.39" y1="30.82" x2="61.94" y2="30.82" gradientUnits="userSpaceOnUse"><stop offset="0" stop-color="#05a1e8"/><stop offset="1" stop-color="#0562e8"/></linearGradient><linearGradient id="linear-gradient-2" x1="72.26" y1="51.2" x2="94.81" y2="51.2" gradientUnits="userSpaceOnUse"><stop offset="0" stop-color="#d35400"/><stop offset="1" stop-color="#ffb62d"/></linearGradient><linearGradient id="linear-gradient-3" x1="6.1" y1="43.39" x2="28.66" y2="43.39" gradientUnits="userSpaceOnUse"><stop offset="0" stop-color="#3dba85"/><stop offset="1" stop-color="#1de885"/></linearGradient><linearGradient id="linear-gradient-4" x1="2.14" y1="69.1" x2="99.18" y2="69.1" xlink:href="#linear-gradient"/><linearGradient id="linear-gradient-5" x1="35.54" y1="74.61" x2="60.26" y2="74.61" xlink:href="#linear-gradient-3"/><clipPath id="clip-path"><circle class="cls-1" cx="87.16" cy="81.25" r="10.04"/></clipPath></defs><path class="cls-2" d="M61.94,11.15V51.41A13.18,13.18,0,0,0,60,53,18.8,18.8,0,0,0,44.46,39.82,18.3,18.3,0,0,0,42,39.66a18.61,18.61,0,0,0-2.6.18V11.15a2.54,2.54,0,0,1,2.54-2.54H59.4A2.54,2.54,0,0,1,61.94,11.15Z"/><path class="cls-3" d="M44.46,11.12v28.7A18.3,18.3,0,0,0,42,39.66a18.61,18.61,0,0,0-2.6.18V11.12a2.54,2.54,0,0,1,2.54-2.54h0A2.54,2.54,0,0,1,44.46,11.12Z"/><path class="cls-4" d="M94.81,37.42V67.53a11.8,11.8,0,0,0-5.12-1.15,12.33,12.33,0,0,0-3.18.43,14.88,14.88,0,0,0,.09-1.64A14.1,14.1,0,0,0,72.47,51h-.21V37.42a2.55,2.55,0,0,1,2.54-2.55H92.27A2.55,2.55,0,0,1,94.81,37.42Z"/><path class="cls-3" d="M77.35,37.42V51.9A14.11,14.11,0,0,0,72.47,51h-.21V37.42a2.55,2.55,0,0,1,2.54-2.55h0A2.55,2.55,0,0,1,77.35,37.42Z"/><path class="cls-5" d="M28.66,25.39v19.2a18.78,18.78,0,0,0-8.38,15.64,18.07,18.07,0,0,0,.37,3.7,14,14,0,0,0-7.32-2,14.11,14.11,0,0,0-7.23,2V25.39a2.55,2.55,0,0,1,2.55-2.55H26.11A2.55,2.55,0,0,1,28.66,25.39Z"/><path class="cls-3" d="M11.19,25.39V62.05A13.73,13.73,0,0,0,6.1,63.87V25.39a2.55,2.55,0,0,1,2.55-2.55h0A2.55,2.55,0,0,1,11.19,25.39Z"/><path class="cls-6" d="M99.18,81.42a12,12,0,0,1-12,12H16.27a14.13,14.13,0,1,1,7.32-26.22A18.78,18.78,0,0,1,60,58.13a13.9,13.9,0,0,1,2-1.63A14.14,14.14,0,0,1,69.72,54h.21A14.14,14.14,0,0,1,84.06,68.17a12.78,12.78,0,0,1-.1,1.64A12,12,0,0,1,99.18,81.42Z"/><path class="cls-3" d="M41.26,72.81,36.07,79a.25.25,0,0,0,0,.35l11,7.54a.24.24,0,0,0,.34-.07l13.24-20a.24.24,0,0,0-.36-.31l-14,12.22a.25.25,0,0,1-.36,0l-4.33-5.86A.24.24,0,0,0,41.26,72.81Z"/><path class="cls-7" d="M40.78,70.71l-5.19,6.22a.25.25,0,0,0,0,.36l11,7.54a.25.25,0,0,0,.34-.07l13.24-20a.24.24,0,0,0-.36-.32l-14,12.23a.24.24,0,0,1-.35,0l-4.33-5.87A.25.25,0,0,0,40.78,70.71Z"/><g class="cls-8"><rect class="cls-9" x="80.23" y="64.04" width="0.73" height="20.47" transform="translate(76.13 -35.23) rotate(45)"/><rect class="cls-9" x="81.59" y="65.4" width="0.73" height="20.47" transform="translate(77.48 -35.8) rotate(45)"/><rect class="cls-9" x="82.94" y="66.75" width="0.73" height="20.47" transform="translate(78.83 -36.36) rotate(45)"/><rect class="cls-9" x="84.29" y="68.1" width="0.73" height="20.47" transform="translate(80.19 -36.92) rotate(45)"/><rect class="cls-9" x="85.65" y="69.46" width="0.73" height="20.47" transform="translate(81.54 -37.48) rotate(45)"/><rect class="cls-9" x="87" y="70.81" width="0.73" height="20.47" transform="translate(82.9 -38.04) rotate(45)"/><rect class="cls-9" x="88.36" y="72.17" width="0.73" height="20.47" transform="translate(84.25 -38.6) rotate(45)"/><rect class="cls-9" x="89.71" y="73.52" width="0.73" height="20.47" transform="translate(85.6 -39.16) rotate(45)"/><rect class="cls-9" x="91.07" y="74.88" width="0.73" height="20.47" transform="translate(86.96 -39.72) rotate(45)"/><rect class="cls-9" x="92.42" y="76.23" width="0.73" height="20.47" transform="translate(88.31 -40.28) rotate(45)"/><rect class="cls-9" x="93.77" y="77.58" width="0.73" height="20.47" transform="translate(89.67 -40.84) rotate(45)"/><rect class="cls-9" x="95.13" y="78.94" width="0.73" height="20.47" transform="translate(91.02 -41.41) rotate(45)"/></g><polyline class="cls-10" points="33.21 52.44 50.66 52.44 50.66 69.11"/><polyline class="cls-10" points="45.42 74.8 45.42 70.05 27.93 70.05 27.93 55.08 48.14 55.08 48.14 67.51 45.35 67.51 45.35 57.85 30.38 57.85 30.38 66.69 42.25 66.69 42.25 59.89 32.55 59.89 32.55 62.33 39.94 62.33 39.94 64.44 32.49 64.44"/><polyline class="cls-10" points="34.4 78.28 4.71 78.28 4.71 81.29 14.28 81.29"/><polyline class="cls-10" points="17.38 66.44 17.38 72.56 37.08 72.56"/><line class="cls-10" x1="34.09" y1="75.42" x2="7.88" y2="75.42"/><circle class="cls-10" cx="6.73" cy="75.42" r="1.15"/><circle class="cls-10" cx="68.45" cy="72.63" r="1.15"/><rect class="cls-10" x="14.21" y="80.41" width="1.76" height="1.76"/><polygon class="cls-10" points="32.49 51.2 31.07 51.2 30.36 52.44 31.07 53.67 32.49 53.67 33.21 52.44 32.49 51.2"/><polygon class="cls-10" points="13.16 87.41 11.93 89.55 14.4 89.55 13.16 87.41"/><polyline class="cls-10" points="45.24 47.05 36.55 47.05 36.55 48.9 50.66 48.9 50.66 50.61 35.85 50.61"/><line class="cls-10" x1="17.73" y1="81.25" x2="38.04" y2="81.25"/><polyline class="cls-10" points="53.97 64.94 53.97 56.55 56.7 56.55 56.7 61.39 61.18 61.39 61.18 59.37 65.49 59.37 65.49 57.17 75.78 57.17 75.78 59.72 78.95 59.72 78.95 62.53 73.23 62.53 73.23 60.07 68.39 60.07 68.39 62.88 63.73 62.88 63.73 66.44 61.45 66.44"/><line class="cls-10" x1="67.3" y1="72.63" x2="57.4" y2="72.63"/><polyline class="cls-10" points="60.74 69.34 67.78 69.34 67.78 66.05 80.62 66.05 80.62 69.78 74.38 69.78 74.38 72.63 69.61 72.63"/><line class="cls-10" x1="76.05" y1="78.42" x2="55.25" y2="78.42"/><line class="cls-10" x1="74.09" y1="81.29" x2="53.1" y2="81.29"/><line class="cls-10" x1="56.89" y1="75.42" x2="75.23" y2="75.42"/><polyline class="cls-10" points="40.44 83.94 40.44 88.13 52.21 88.13 52.21 84.47 73.75 84.47 73.75 87.6 56.52 87.6 56.52 90.68 78.6 90.68"/><polyline class="cls-10" points="54.41 90.68 35.54 90.68 35.54 84.87 8.58 84.87"/><line class="cls-10" x1="32.42" y1="88.48" x2="13.77" y2="88.48"/></svg>