<svg id="Layer_1" data-name="Layer 1" xmlns="http://www.w3.org/2000/svg" xmlns:xlink="http://www.w3.org/1999/xlink" viewBox="0 0 500 500"><defs><style>.cls-1,.cls-4{opacity:0.15;}.cls-1{fill:url(#linear-gradient);}.cls-2{fill:url(#linear-gradient-2);}.cls-3{fill:#fff;}.cls-4{fill:url(#linear-gradient-3);}.cls-5{fill:url(#linear-gradient-4);}.cls-18,.cls-6,.cls-8,.cls-9{stroke:#fff;}.cls-10,.cls-11,.cls-12,.cls-13,.cls-18,.cls-6,.cls-8,.cls-9{stroke-miterlimit:10;}.cls-6{fill:url(#linear-gradient-5);}.cls-7{fill:url(#linear-gradient-10);}.cls-8,.cls-9{stroke-width:0.5px;}.cls-8{fill:url(#linear-gradient-11);}.cls-9{fill:url(#linear-gradient-12);}.cls-10,.cls-11,.cls-12,.cls-13{fill:none;stroke-width:7px;}.cls-10{stroke:url(#linear-gradient-13);}.cls-11{stroke-dasharray:12.5 12.5;stroke:url(#linear-gradient-14);}.cls-12{stroke:url(#linear-gradient-15);}.cls-13{stroke-dasharray:12;stroke:url(#linear-gradient-16);}.cls-14{fill:url(#linear-gradient-17);}.cls-15{fill:url(#linear-gradient-18);}.cls-16{fill:url(#linear-gradient-19);}.cls-17{fill:url(#linear-gradient-20);}.cls-18{stroke-width:2px;fill:url(#linear-gradient-21);}</style><linearGradient id="linear-gradient" x1="159.96" y1="173.93" x2="493.67" y2="173.93" gradientUnits="userSpaceOnUse"><stop offset="0" stop-color="#4279e8"/><stop offset="1" stop-color="#42c2e8"/></linearGradient><linearGradient id="linear-gradient-2" x1="159.96" y1="56.33" x2="493.67" y2="56.33" xlink:href="#linear-gradient"/><linearGradient id="linear-gradient-3" x1="23.23" y1="368.08" x2="356.94" y2="368.08" xlink:href="#linear-gradient"/><linearGradient id="linear-gradient-4" x1="23.23" y1="250.48" x2="356.94" y2="250.48" gradientUnits="userSpaceOnUse"><stop offset="0" stop-color="#3dba85"/><stop offset="1" stop-color="#1de885"/></linearGradient><linearGradient id="linear-gradient-5" x1="147.83" y1="305.7" x2="326.29" y2="305.7" gradientUnits="userSpaceOnUse"><stop offset="0" stop-color="#d35400"/><stop offset="1" stop-color="#ffb62d"/></linearGradient><linearGradient id="linear-gradient-10" x1="189.98" y1="117.51" x2="469.09" y2="117.51" xlink:href="#linear-gradient"/><linearGradient id="linear-gradient-11" x1="189.98" y1="162.7" x2="469.09" y2="162.7" xlink:href="#linear-gradient-5"/><linearGradient id="linear-gradient-12" x1="189.98" y1="207.89" x2="332.86" y2="207.89" xlink:href="#linear-gradient-5"/><linearGradient id="linear-gradient-13" x1="363.43" y1="390.54" x2="436.85" y2="390.54" xlink:href="#linear-gradient-5"/><linearGradient id="linear-gradient-14" x1="363.43" y1="342.85" x2="436.85" y2="342.85" xlink:href="#linear-gradient-5"/><linearGradient id="linear-gradient-15" x1="363.43" y1="282.41" x2="436.85" y2="282.41" xlink:href="#linear-gradient-5"/><linearGradient id="linear-gradient-16" x1="74.49" y1="159.35" x2="149" y2="159.35" xlink:href="#linear-gradient-5"/><linearGradient id="linear-gradient-17" x1="42.49" y1="369.11" x2="138.1" y2="369.11" xlink:href="#linear-gradient-5"/><linearGradient id="linear-gradient-18" x1="153.15" y1="416.91" x2="227.02" y2="416.91" xlink:href="#linear-gradient"/><linearGradient id="linear-gradient-19" x1="219.2" y1="363.67" x2="272.65" y2="363.67" xlink:href="#linear-gradient-5"/><linearGradient id="linear-gradient-20" x1="266.94" y1="416.91" x2="333.91" y2="416.91" xlink:href="#linear-gradient-4"/><linearGradient id="linear-gradient-21" x1="577.68" y1="-89.24" x2="611.36" y2="-89.24" gradientTransform="translate(-293.41 55.75) rotate(45)" xlink:href="#linear-gradient-5"/></defs><path class="cls-1" d="M160,79.9H493.67a0,0,0,0,1,0,0v156.4A31.66,31.66,0,0,1,462,268H191.62A31.66,31.66,0,0,1,160,236.29V79.9A0,0,0,0,1,160,79.9Z"/><path class="cls-2" d="M191.62,32.76H462a31.66,31.66,0,0,1,31.66,31.66V79.9a0,0,0,0,1,0,0H160a0,0,0,0,1,0,0V64.43A31.66,31.66,0,0,1,191.62,32.76Z"/><circle class="cls-3" cx="186.33" cy="57.46" r="9.91"/><circle class="cls-3" cx="217.11" cy="57.46" r="9.91"/><circle class="cls-3" cx="247.89" cy="57.46" r="9.91"/><path class="cls-4" d="M23.23,274.05H356.94a0,0,0,0,1,0,0v156.4a31.66,31.66,0,0,1-31.66,31.66H54.89a31.66,31.66,0,0,1-31.66-31.66V274.05A0,0,0,0,1,23.23,274.05Z"/><path class="cls-5" d="M54.89,226.92H325.28a31.66,31.66,0,0,1,31.66,31.66v15.47a0,0,0,0,1,0,0H23.23a0,0,0,0,1,0,0V258.58A31.66,31.66,0,0,1,54.89,226.92Z"/><circle class="cls-3" cx="49.6" cy="251.62" r="9.91"/><circle class="cls-3" cx="80.38" cy="251.62" r="9.91"/><circle class="cls-3" cx="111.17" cy="251.62" r="9.91"/><path class="cls-6" d="M278.89,290.26l3.43,10.57a.75.75,0,0,0,.72.52h11.12a.76.76,0,0,1,.44,1.37l-9,6.53a.76.76,0,0,0-.28.85l3.44,10.57a.75.75,0,0,1-1.16.84l-9-6.53a.75.75,0,0,0-.88,0l-9,6.53a.76.76,0,0,1-1.17-.84L271,310.1a.77.77,0,0,0-.27-.85l-9-6.53a.76.76,0,0,1,.45-1.37H273.3a.75.75,0,0,0,.72-.52l3.43-10.57A.76.76,0,0,1,278.89,290.26Z"/><path class="cls-6" d="M317.88,290.26l3.44,10.57a.75.75,0,0,0,.71.52h11.12a.76.76,0,0,1,.44,1.37l-9,6.53a.77.77,0,0,0-.27.85l3.43,10.57a.75.75,0,0,1-1.16.84l-9-6.53a.77.77,0,0,0-.89,0l-9,6.53a.75.75,0,0,1-1.16-.84L310,310.1a.77.77,0,0,0-.27-.85l-9-6.53a.76.76,0,0,1,.44-1.37H312.3a.75.75,0,0,0,.71-.52l3.44-10.57A.75.75,0,0,1,317.88,290.26Z"/><path class="cls-6" d="M203.18,290.26l3.43,10.57a.75.75,0,0,0,.72.52h11.11a.76.76,0,0,1,.45,1.37l-9,6.53a.76.76,0,0,0-.28.85l3.44,10.57a.75.75,0,0,1-1.16.84l-9-6.53a.75.75,0,0,0-.88,0l-9,6.53a.75.75,0,0,1-1.16-.84l3.44-10.57a.76.76,0,0,0-.28-.85l-9-6.53a.76.76,0,0,1,.44-1.37h11.12a.75.75,0,0,0,.72-.52l3.43-10.57A.76.76,0,0,1,203.18,290.26Z"/><path class="cls-6" d="M242.17,290.26l3.43,10.57a.77.77,0,0,0,.72.52h11.12a.76.76,0,0,1,.44,1.37l-9,6.53a.76.76,0,0,0-.28.85l3.44,10.57a.75.75,0,0,1-1.16.84l-9-6.53a.77.77,0,0,0-.89,0l-9,6.53a.75.75,0,0,1-1.16-.84l3.43-10.57a.77.77,0,0,0-.27-.85l-9-6.53a.76.76,0,0,1,.45-1.37h11.11a.75.75,0,0,0,.72-.52l3.44-10.57A.75.75,0,0,1,242.17,290.26Z"/><path class="cls-6" d="M166.46,290.26l3.43,10.57a.75.75,0,0,0,.72.52h11.12a.76.76,0,0,1,.44,1.37l-9,6.53a.76.76,0,0,0-.28.85l3.44,10.57a.75.75,0,0,1-1.16.84l-9-6.53a.75.75,0,0,0-.88,0l-9,6.53a.75.75,0,0,1-1.16-.84l3.44-10.57a.76.76,0,0,0-.28-.85l-9-6.53a.76.76,0,0,1,.45-1.37h11.11a.75.75,0,0,0,.72-.52L165,290.26A.76.76,0,0,1,166.46,290.26Z"/><rect class="cls-7" x="189.98" y="105.41" width="279.11" height="24.19" rx="12.09"/><rect class="cls-8" x="189.98" y="150.61" width="279.11" height="24.19" rx="12.09"/><rect class="cls-9" x="189.98" y="195.8" width="142.88" height="24.19" rx="12.09"/><line class="cls-10" x1="363.43" y1="390.54" x2="369.43" y2="390.54"/><path class="cls-11" d="M381.94,390.54h36.23a15.18,15.18,0,0,0,15.18-15.18v-83.7"/><line class="cls-12" x1="433.35" y1="285.41" x2="433.35" y2="279.41"/><path class="cls-13" d="M78,221.53V115.85a15.18,15.18,0,0,1,15.18-15.18H149"/><circle class="cls-14" cx="90.3" cy="369.11" r="47.81"/><circle class="cls-15" cx="190.09" cy="416.91" r="36.94"/><circle class="cls-16" cx="245.93" cy="363.67" r="26.73"/><circle class="cls-17" cx="300.42" cy="416.91" r="33.48"/><path class="cls-3" d="M77.69,376.88q0-6.19,0-12.38a.92.92,0,0,1,.29-.72A22.33,22.33,0,0,0,81.43,359a71.75,71.75,0,0,1,8.18-11.92c2.91-3.28,2.34-7.82,4.16-11.57a2.87,2.87,0,0,1,4.79-.79c2.7,3.08,2.89,7.74,1.84,11.55-1.23,3.18-3.63,6-3.93,9.5a1.2,1.2,0,0,0,1.1,1.33,21.27,21.27,0,0,0,4.05.44c4.09.1,8.91-1.42,11.8,2.43a4.94,4.94,0,0,1,.62,6c-.15.16-.15.28,0,.42a4.21,4.21,0,0,1,1.39,3.46,6.89,6.89,0,0,1-1.76,4.93.28.28,0,0,0-.06.37,6.6,6.6,0,0,1-1.51,7.87.58.58,0,0,0-.2.66,6,6,0,0,1-2.62,5.73,6.14,6.14,0,0,1-2.77.75c-7.72.46-15.44.08-23.16.08-1.81,0-3.49-.94-5.3-.49-.35.07-.39-.05-.39-.36Q77.69,383.14,77.69,376.88Z"/><path class="cls-3" d="M75.74,376.85V365.71a2.67,2.67,0,0,0-2.87-2.88H62.37a2.67,2.67,0,0,0-2.84,2.87c0,7.41,0,14.82,0,22.23a2.82,2.82,0,0,0,3,3q5.16-.09,10.33,0a2.82,2.82,0,0,0,3-3C75.69,384.22,75.74,380.53,75.74,376.85Zm-8.1,12.08a2.2,2.2,0,1,1,2.19-2.21A2.19,2.19,0,0,1,67.64,388.93Z"/><path class="cls-3" d="M261.43,354.1v15.55a2.91,2.91,0,0,1-2.91,2.91H252.7c.61,1.75.42,3.07,2.25,3.48a5.57,5.57,0,0,1-1.16.12,5.4,5.4,0,0,1-5.1-3.6H233.33a2.91,2.91,0,0,1-2.91-2.91V354.1a2.91,2.91,0,0,1,2.91-2.91h25.19A2.91,2.91,0,0,1,261.43,354.1Z"/><path class="cls-18" d="M206,421l-15.88,15.88L174.21,421a11.23,11.23,0,0,1,15.88-15.87A11.22,11.22,0,0,1,206,421Z"/><polygon class="cls-3" points="292.67 408.16 284.2 424.13 302.28 432.88 323.91 402.89 301.31 422.66 292.67 408.16"/></svg>