<?xml version="1.0" encoding="UTF-8" standalone="no"?>
<!DOCTYPE svg PUBLIC "-//W3C//DTD SVG 1.1//EN" "http://www.w3.org/Graphics/SVG/1.1/DTD/svg11.dtd">
<svg width="100%" height="100%" viewBox="0 0 1920 600" version="1.1" xmlns="http://www.w3.org/2000/svg" xmlns:xlink="http://www.w3.org/1999/xlink" xml:space="preserve" xmlns:serif="http://www.serif.com/" style="fill-rule:evenodd;clip-rule:evenodd;stroke-miterlimit:10;">
    <rect id="Page-1" serif:id="Page 1" x="0" y="0" width="1920" height="600" style="fill:none;"/>
    <clipPath id="_clip1">
        <rect id="Page-11" serif:id="Page 1" x="0" y="0" width="1920" height="600"/>
    </clipPath>
    <g clip-path="url(#_clip1)">
        <g id="Layer-1" serif:id="Layer 1">
            <g transform="matrix(1920,0,0,-1920,0,300)">
                <rect x="0" y="-0.156" width="1" height="0.313" style="fill:url(#_Linear2);"/>
            </g>
            <g transform="matrix(1515.26,0,0,-1515.26,431.546,423.2)">
                <path d="M0.396,0.115C0.367,0.115 0.339,0.107 0.315,0.092L-0.019,-0.115L0.818,-0.117L0.981,0.004L0.981,0.118L0.396,0.115Z" style="fill:url(#_Linear3);fill-rule:nonzero;"/>
            </g>
            <g transform="matrix(1.3419,0,0,1.3419,-153.682,-95.1834)">
                <g transform="matrix(1,0,0,1,-615.672,4.79687)">
                    <g opacity="0.5">
                        <g transform="matrix(1,0,0,1,1145.23,354.436)">
                            <clipPath id="_clip4">
                                <rect x="-106.866" y="-187.342" width="193.11" height="193.111" clip-rule="nonzero"/>
                            </clipPath>
                            <g clip-path="url(#_clip4)">
                                <path d="M0,-181.573L80.48,-101.093C86.172,-95.401 86.172,-86.172 80.48,-80.48L0,0C-5.692,5.692 -14.92,5.692 -20.612,0L-101.093,-80.48C-106.784,-86.172 -106.784,-95.401 -101.093,-101.093L-20.612,-181.573C-14.92,-187.265 -5.692,-187.265 0,-181.573Z" style="fill:none;fill-rule:nonzero;stroke:white;stroke-width:3px;"/>
                            </g>
                        </g>
                    </g>
                </g>
                <g transform="matrix(1,0,0,1,-615.672,4.79687)">
                    <g opacity="0.5">
                        <g transform="matrix(1,0,0,1,1705.7,289.659)">
                            <clipPath id="_clip5">
                                <rect x="-77.34" y="-135.265" width="139.84" height="139.838" clip-rule="nonzero"/>
                            </clipPath>
                            <g clip-path="url(#_clip5)">
                                <path d="M0,-130.692L57.927,-72.765C62.023,-68.668 62.023,-62.025 57.927,-57.927L0,0C-4.098,4.098 -10.741,4.098 -14.839,0L-72.766,-57.927C-76.863,-62.025 -76.863,-68.668 -72.766,-72.765L-14.839,-130.692C-10.741,-134.79 -4.098,-134.79 0,-130.692Z" style="fill:none;fill-rule:nonzero;stroke:white;stroke-width:3px;"/>
                            </g>
                        </g>
                    </g>
                </g>
                <g transform="matrix(1,0,0,1,658.804,104.984)">
                    <path d="M0,62.235C-10.097,62.235 -20.193,62.241 -30.289,62.233C-38.926,62.227 -46.085,56.425 -47.902,47.979C-49.585,40.161 -45.707,32.057 -38.496,28.437C-37.743,28.059 -37.534,27.648 -37.536,26.836C-37.575,14.643 -29.611,4.455 -17.689,2.011C-7.848,-0.006 0.437,3.116 6.961,10.774C7.445,11.342 7.728,11.404 8.383,11.047C20.671,4.348 35.582,11.943 37.347,25.829C37.533,27.297 37.964,28.159 39.356,28.935C45.971,32.621 49.444,40.342 47.985,47.64C46.453,55.304 40.438,61.02 32.847,62.055C31.92,62.181 30.996,62.236 30.064,62.236C20.043,62.235 10.021,62.235 0,62.235" style="fill:rgb(5,98,232);fill-rule:nonzero;"/>
                </g>
                <g transform="matrix(1,0,0,1,-615.672,4.79687)">
                    <g opacity="0.5">
                        <g transform="matrix(1,0,0,1,1626.5,148.52)">
                            <path d="M0,57.907C-2.688,71.394 -13.251,81.391 -26.549,83.23C-28.152,83.419 -29.803,83.56 -31.406,83.513L-84.174,83.513C-101.904,83.513 -119.588,83.56 -137.318,83.513C-152.455,83.513 -164.999,73.327 -168.206,58.52C-169.102,54.465 -169.102,50.362 -168.395,46.449C-166.649,37.111 -160.613,28.718 -151.701,24.238C-150.381,23.577 -150.003,22.87 -150.003,21.408C-150.051,8.393 -144.863,-3.348 -136.093,-11.412C-130.48,-16.694 -123.36,-20.419 -115.202,-22.116C-97.943,-25.653 -83.419,-20.183 -71.96,-6.744C-71.111,-5.753 -70.593,-5.659 -69.461,-6.272C-47.911,-18.014 -21.739,-4.716 -18.674,19.664C-18.344,22.257 -17.59,23.766 -15.138,25.134C-3.537,31.594 2.594,45.128 0,57.907" style="fill:rgb(5,98,232);fill-rule:nonzero;"/>
                        </g>
                    </g>
                </g>
                <g transform="matrix(151.557,0,0,-151.557,543.006,348.692)">
                    <path d="M0.111,0.878C0.05,0.878 0,0.829 0,0.767L0,-0.767C0,-0.829 0.05,-0.878 0.111,-0.878L0.889,-0.878C0.95,-0.878 1,-0.829 1,-0.767L1,0.767C1,0.829 0.95,0.878 0.889,0.878L0.111,0.878Z" style="fill:url(#_Linear6);fill-rule:nonzero;"/>
                </g>
                <g transform="matrix(1,0,0,1,690,464.617)">
                    <path d="M0,-231.784L0,-0.148C0,7.599 -6.28,13.88 -14.027,13.88L-128.404,13.88C-136.151,13.88 -142.432,7.599 -142.432,-0.148L-142.432,-231.784C-142.432,-239.45 -136.218,-245.664 -128.552,-245.664L-106.036,-245.664C-105.272,-245.664 -104.654,-245.045 -104.654,-244.282L-104.654,-240.999C-104.654,-236.293 -100.839,-232.478 -96.134,-232.478L-46.299,-232.478C-41.593,-232.478 -37.778,-236.293 -37.778,-240.999L-37.778,-244.282C-37.778,-245.045 -37.159,-245.664 -36.396,-245.664L-13.88,-245.664C-6.214,-245.664 0,-239.45 0,-231.784" style="fill:rgb(235,248,255);fill-rule:nonzero;"/>
                </g>
                <g transform="matrix(109.032,0,0,-109.032,563.364,469.994)">
                    <path d="M0.009,0.009C0.004,0.009 -0,0.005 -0,-0C-0,-0.005 0.004,-0.009 0.009,-0.009L0.991,-0.009C0.996,-0.009 1,-0.005 1,-0C1,0.005 0.996,0.009 0.991,0.009L0.009,0.009Z" style="fill:url(#_Linear7);fill-rule:nonzero;"/>
                </g>
                <g transform="matrix(1,0,0,1,-615.672,4.79687)">
                    <g opacity="0.5">
                        <g transform="matrix(103.191,-117.307,-117.307,-103.191,1126.04,317.083)">
                            <path d="M0.566,-0.093L0.492,-0.008C0.484,0 0.485,0.013 0.493,0.02L0.578,0.095C0.586,0.102 0.599,0.101 0.606,0.093L0.681,0.008C0.688,-0 0.687,-0.013 0.679,-0.02L0.594,-0.095C0.586,-0.102 0.573,-0.101 0.566,-0.093Z" style="fill:url(#_Linear8);fill-rule:nonzero;"/>
                        </g>
                    </g>
                </g>
                <g transform="matrix(1,0,0,1,-615.672,4.79687)">
                    <g opacity="0.5">
                        <g transform="matrix(103.191,-117.307,-117.307,-103.191,1143.99,332.873)">
                            <path d="M0.701,-0.093L0.626,-0.008C0.619,0 0.62,0.013 0.628,0.02L0.713,0.095C0.721,0.102 0.733,0.101 0.741,0.093L0.815,0.008C0.823,-0 0.822,-0.013 0.814,-0.02L0.729,-0.095C0.72,-0.102 0.708,-0.101 0.701,-0.093Z" style="fill:url(#_Linear9);fill-rule:nonzero;"/>
                        </g>
                    </g>
                </g>
                <g transform="matrix(1,0,0,1,-615.672,4.79687)">
                    <g opacity="0.5">
                        <g transform="matrix(103.191,-117.307,-117.307,-103.191,1161.94,348.665)">
                            <path d="M0.836,-0.093L0.761,-0.008C0.754,0 0.754,0.013 0.763,0.02L0.848,0.095C0.856,0.102 0.868,0.101 0.875,0.093L0.95,0.008C0.957,-0 0.956,-0.013 0.948,-0.02L0.863,-0.095C0.855,-0.102 0.843,-0.101 0.836,-0.093Z" style="fill:url(#_Linear10);fill-rule:nonzero;"/>
                        </g>
                    </g>
                </g>
                <g transform="matrix(1,0,0,1,-615.672,4.79687)">
                    <g opacity="0.5">
                        <g transform="matrix(103.191,-117.307,-117.307,-103.191,1179.9,364.456)">
                            <path d="M0.97,-0.093L0.895,-0.008C0.888,0 0.889,0.013 0.897,0.02L0.982,0.095C0.99,0.102 1.003,0.101 1.01,0.093L1.085,0.008C1.092,-0 1.091,-0.013 1.083,-0.02L0.998,-0.095C0.99,-0.102 0.977,-0.101 0.97,-0.093Z" style="fill:url(#_Linear11);fill-rule:nonzero;"/>
                        </g>
                    </g>
                </g>
                <g transform="matrix(1,0,0,1,-615.672,4.79687)">
                    <g opacity="0.5">
                        <g transform="matrix(103.191,-117.307,-117.307,-103.191,1141.81,330.956)">
                            <path d="M0.413,-0.093L0.339,-0.008C0.332,0 0.332,0.013 0.341,0.02L0.425,0.095C0.434,0.102 0.446,0.101 0.453,0.093L0.528,0.008C0.535,-0 0.534,-0.013 0.526,-0.02L0.441,-0.095C0.433,-0.102 0.421,-0.101 0.413,-0.093Z" style="fill:url(#_Linear12);fill-rule:nonzero;"/>
                        </g>
                    </g>
                </g>
                <g transform="matrix(253.725,-288.432,-288.432,-253.725,508.652,425.807)">
                    <path d="M0.444,0.097C0.442,0.1 0.438,0.1 0.435,0.098L0.336,0.011C0.333,0.008 0.333,0.004 0.336,0.002L0.422,-0.097C0.425,-0.1 0.429,-0.1 0.432,-0.098L0.531,-0.011C0.533,-0.008 0.534,-0.004 0.531,-0.002L0.444,0.097Z" style="fill:url(#_Linear13);fill-rule:nonzero;"/>
                </g>
                <g transform="matrix(1,0,0,1,-615.672,4.79687)">
                    <g opacity="0.5">
                        <g transform="matrix(103.191,-117.307,-117.307,-103.191,1195.67,378.329)">
                            <path d="M0.817,-0.093L0.743,-0.008C0.735,0 0.736,0.013 0.744,0.02L0.829,0.095C0.837,0.102 0.85,0.101 0.857,0.093L0.932,0.008C0.939,-0 0.938,-0.013 0.93,-0.02L0.845,-0.095C0.837,-0.102 0.824,-0.101 0.817,-0.093Z" style="fill:url(#_Linear14);fill-rule:nonzero;"/>
                        </g>
                    </g>
                </g>
                <g transform="matrix(1,0,0,1,-615.672,4.79687)">
                    <g opacity="0.5">
                        <g transform="matrix(103.191,-117.307,-117.307,-103.191,1157.58,344.829)">
                            <path d="M0.261,-0.093L0.186,-0.008C0.179,0 0.18,0.013 0.188,0.02L0.273,0.095C0.281,0.102 0.293,0.101 0.3,0.093L0.375,0.008C0.382,-0 0.381,-0.013 0.373,-0.02L0.288,-0.095C0.28,-0.102 0.268,-0.101 0.261,-0.093Z" style="fill:url(#_Linear15);fill-rule:nonzero;"/>
                        </g>
                    </g>
                </g>
                <g transform="matrix(1,0,0,1,-615.672,4.79687)">
                    <g opacity="0.5">
                        <g transform="matrix(103.191,-117.307,-117.307,-103.191,1211.44,392.202)">
                            <path d="M0.664,-0.093L0.59,-0.008C0.583,0 0.583,0.013 0.592,0.02L0.676,0.095C0.685,0.102 0.697,0.101 0.704,0.093L0.779,0.008C0.786,-0 0.785,-0.013 0.777,-0.02L0.692,-0.095C0.684,-0.102 0.672,-0.101 0.664,-0.093Z" style="fill:url(#_Linear16);fill-rule:nonzero;"/>
                        </g>
                    </g>
                </g>
                <g transform="matrix(1,0,0,1,-615.672,4.79687)">
                    <g opacity="0.5">
                        <g transform="matrix(103.191,-117.307,-117.307,-103.191,1173.35,358.702)">
                            <path d="M0.108,-0.093L0.033,-0.008C0.026,0 0.027,0.013 0.035,0.02L0.12,0.095C0.128,0.102 0.14,0.101 0.148,0.093L0.222,0.008C0.229,-0 0.229,-0.013 0.22,-0.02L0.136,-0.095C0.127,-0.102 0.115,-0.101 0.108,-0.093Z" style="fill:url(#_Linear17);fill-rule:nonzero;"/>
                        </g>
                    </g>
                </g>
                <g transform="matrix(1,0,0,1,-615.672,4.79687)">
                    <g opacity="0.5">
                        <g transform="matrix(103.191,-117.307,-117.307,-103.191,1191.3,374.492)">
                            <path d="M0.242,-0.093L0.168,-0.008C0.161,0 0.161,0.013 0.169,0.02L0.254,0.095C0.263,0.102 0.275,0.101 0.282,0.093L0.357,0.008C0.364,-0 0.363,-0.013 0.355,-0.02L0.27,-0.095C0.262,-0.102 0.25,-0.101 0.242,-0.093Z" style="fill:url(#_Linear18);fill-rule:nonzero;"/>
                        </g>
                    </g>
                </g>
                <g transform="matrix(1,0,0,1,600.234,316.06)">
                    <path d="M0,-17.101L37.083,-17.101L37.083,0L32.702,0L32.702,-0.501C32.702,-4.668 32.703,-8.835 32.701,-13.002C32.701,-14.453 31.658,-15.629 30.251,-15.774C28.893,-15.914 27.638,-14.988 27.334,-13.604C27.279,-13.359 27.279,-13.1 27.279,-12.847C27.276,-8.778 27.277,-4.711 27.277,-0.643L27.277,-0.012L21.258,-0.012L21.258,-0.542C21.258,-4.709 21.261,-8.876 21.257,-13.043C21.256,-14.462 20.201,-15.631 18.81,-15.772C17.432,-15.912 16.151,-14.955 15.88,-13.566C15.832,-13.32 15.835,-13.06 15.835,-12.807C15.833,-8.711 15.833,-4.614 15.833,-0.518L15.833,-0.014L9.7,-0.014L9.7,-0.638C9.7,-4.663 9.701,-8.688 9.702,-12.715C9.702,-14.309 8.917,-15.407 7.562,-15.71C5.816,-16.101 4.252,-14.792 4.249,-12.926C4.244,-8.802 4.248,-4.677 4.248,-0.553L4.248,-0.011L0,-0.011L0,-17.101Z" style="fill:white;fill-rule:nonzero;"/>
                </g>
                <g transform="matrix(1,0,0,1,622.143,287.87)">
                    <path d="M0,1.403C0.021,-0.43 -1.502,-1.972 -3.35,-1.987C-5.166,-2.001 -6.709,-0.483 -6.726,1.335C-6.742,3.194 -5.265,4.704 -3.397,4.737C-1.56,4.77 -0.022,3.26 0,1.403M-25.46,9.006C-25.46,8.333 -25.473,7.686 -25.447,7.041C-25.443,6.923 -25.307,6.777 -25.192,6.701C-20.691,3.731 -16.186,0.767 -11.681,-2.198C-9.05,-3.928 -6.417,-5.654 -3.794,-7.394C-3.509,-7.583 -3.315,-7.603 -3.013,-7.405C4.099,-2.727 11.219,1.941 18.343,6.6C18.638,6.794 18.764,6.999 18.744,7.353C18.714,7.899 18.736,8.448 18.736,9.006L-25.46,9.006Z" style="fill:white;fill-rule:nonzero;"/>
                </g>
                <g transform="matrix(1,0,0,1,618.751,321.313)">
                    <path d="M-20.769,-3.671L21.318,-3.671C22.024,-3.671 22.098,-3.598 22.097,-2.899C22.097,-2.135 22.102,-1.372 22.095,-0.609C22.091,-0.151 21.943,-0.012 21.483,0.002C21.399,0.004 21.314,0.002 21.229,0.002C7.102,0.003 -7.026,0.003 -21.154,0.003C-21.281,0.003 -21.408,0.002 -21.535,-0.003C-21.858,-0.017 -22.034,-0.19 -22.036,-0.51C-22.041,-1.4 -22.04,-2.29 -22.034,-3.18C-22.032,-3.503 -21.864,-3.675 -21.531,-3.671C-21.276,-3.667 -21.022,-3.671 -20.769,-3.671Z" style="fill:white;fill-rule:nonzero;"/>
                </g>
                <g transform="matrix(1,0,0,1,619.15,286.82)">
                    <path d="M0,4.86L-0.705,4.86C-0.727,4.674 -0.745,4.51 -0.763,4.354C-1.781,4.038 -1.781,4.038 -1.445,3.295C-1.153,3.375 -0.863,3.5 -0.566,3.517C-0.395,3.527 -0.211,3.365 -0.033,3.281C-0.149,3.128 -0.236,2.933 -0.388,2.831C-0.629,2.668 -0.933,2.597 -1.175,2.434C-1.823,1.998 -1.769,1.068 -1.087,0.682C-0.705,0.465 -0.705,0.465 -0.678,0L-0.038,0C-0.021,0.134 -0.001,0.281 0.021,0.443C0.276,0.529 0.536,0.616 0.824,0.713C0.75,0.976 0.687,1.201 0.62,1.436C0.319,1.371 0.051,1.28 -0.222,1.267C-0.361,1.26 -0.508,1.39 -0.65,1.459C-0.56,1.583 -0.494,1.748 -0.373,1.822C-0.111,1.984 0.198,2.069 0.454,2.237C1.131,2.679 1.127,3.688 0.419,4.061C0.068,4.247 -0.105,4.435 0,4.86" style="fill:white;fill-rule:nonzero;"/>
                </g>
                <g transform="matrix(91.833,0,0,-91.833,1014.88,237.537)">
                    <rect x="-0" y="-0.177" width="1" height="0.354" style="fill:url(#_Linear19);"/>
                </g>
                <g transform="matrix(-67.0854,76.0348,76.0348,67.0854,1089.56,221.202)">
                    <path d="M0.728,-0.34L0.871,-0.34L0.272,0.34L0.129,0.34L0.728,-0.34Z" style="fill:url(#_Linear20);fill-rule:nonzero;"/>
                </g>
                <g transform="matrix(1,0,0,1,-615.672,4.79687)">
                    <g opacity="0.25">
                        <g transform="matrix(-1,0,0,1,1630.55,249.002)">
                            <path d="M-82.268,10.841L9.565,10.841L0,0L-91.833,0L-82.268,10.841Z" style="fill-rule:nonzero;"/>
                        </g>
                    </g>
                </g>
                <g transform="matrix(24.9044,108.33,108.33,-24.9044,1048.44,252.501)">
                    <path d="M0.02,-0.403L0.795,-0.403L0.98,0.403L0.205,0.403L0.02,-0.403Z" style="fill:url(#_Linear21);fill-rule:nonzero;"/>
                </g>
                <g transform="matrix(89.5372,0,0,-89.5372,1042.82,415.08)">
                    <rect x="0" y="-0.741" width="1" height="1.483" style="fill:url(#_Linear22);"/>
                </g>
                <g transform="matrix(89.5372,0,0,-89.5372,1042.82,415.08)">
                    <rect x="0" y="-0.741" width="1" height="1.483" style="fill:url(#_Linear23);"/>
                </g>
                <g transform="matrix(207.11,0,0,-207.11,835.705,351.371)">
                    <path d="M-0,0.628L-0,-0.628L1,-0.628L1,0.013L0.912,0.013L0.819,0.419L0.865,0.471L0.865,0.628L-0,0.628Z" style="fill:url(#_Linear24);fill-rule:nonzero;"/>
                </g>
                <g transform="matrix(-1,0,0,1,2251.97,132.269)">
                    <rect x="1320.52" y="164.441" width="226.6" height="143.646" style="fill:rgb(122,122,122);"/>
                </g>
                <g transform="matrix(1,0,0,1,961.21,191.551)">
                    <path d="M0,91.632L-284.232,91.632L-142.116,0L0,91.632Z" style="fill:rgb(222,222,222);fill-rule:nonzero;"/>
                </g>
                <g transform="matrix(1,0,0,1,929.707,203.549)">
                    <path d="M0,71.319L-221.227,71.319L-110.613,0L0,71.319Z" style="fill:rgb(191,191,191);fill-rule:nonzero;"/>
                </g>
                <g transform="matrix(-1,0,0,1,2254.88,-22.8671)">
                    <rect x="1277.22" y="306.05" width="316.106" height="15.564" style="fill:rgb(5,98,232);"/>
                </g>
                <g transform="matrix(0,-1,-1,0,819.094,224.288)">
                    <path d="M-22.079,-22.08C-34.274,-22.08 -44.159,-12.194 -44.159,0C-44.159,12.194 -34.274,22.079 -22.079,22.079C-9.885,22.079 0,12.194 0,0C0,-12.194 -9.885,-22.08 -22.079,-22.08" style="fill:white;fill-rule:nonzero;"/>
                </g>
                <g transform="matrix(0,-1,-1,0,819.094,229.11)">
                    <path d="M-17.257,-17.257C-26.788,-17.257 -34.514,-9.531 -34.514,0C-34.514,9.53 -26.788,17.257 -17.257,17.257C-7.726,17.257 0,9.53 0,0C0,-9.531 -7.726,-17.257 -17.257,-17.257" style="fill:rgb(50,180,74);fill-rule:nonzero;"/>
                </g>
                <g transform="matrix(-1,0,0,1,2025.46,145.786)">
                    <rect x="1302.39" y="168.4" width="36.341" height="122.211" style="fill:rgb(222,222,222);"/>
                </g>
                <g transform="matrix(-1,0,0,1,2050.51,130.348)">
                    <rect x="1327.32" y="168.4" width="11.546" height="137.649" style="fill:rgb(145,145,145);"/>
                </g>
                <g transform="matrix(-1,0,0,1,2025.71,130.348)">
                    <rect x="1314.07" y="168.4" width="13.248" height="137.649" style="fill:rgb(176,176,176);"/>
                </g>
                <g transform="matrix(-1,0,0,1,2482.26,145.786)">
                    <rect x="1530.8" y="168.4" width="36.341" height="122.211" style="fill:rgb(222,222,222);"/>
                </g>
                <g transform="matrix(-1,0,0,1,2507.06,130.348)">
                    <rect x="1555.59" y="168.4" width="11.547" height="137.649" style="fill:rgb(145,145,145);"/>
                </g>
                <g transform="matrix(-1,0,0,1,2482.26,130.348)">
                    <rect x="1542.34" y="168.4" width="13.248" height="137.649" style="fill:rgb(176,176,176);"/>
                </g>
                <g transform="matrix(-1,0,0,1,2346.88,145.786)">
                    <rect x="1463.1" y="168.4" width="36.341" height="122.211" style="fill:rgb(222,222,222);"/>
                </g>
                <g transform="matrix(-1,0,0,1,2371.71,130.348)">
                    <rect x="1487.92" y="168.4" width="11.546" height="137.649" style="fill:rgb(145,145,145);"/>
                </g>
                <g transform="matrix(-1,0,0,1,2346.91,130.348)">
                    <rect x="1474.67" y="168.4" width="13.249" height="137.649" style="fill:rgb(176,176,176);"/>
                </g>
                <g transform="matrix(-1,0,0,1,2025.46,8.22787)">
                    <rect x="1302.39" y="290.519" width="36.341" height="15.531" style="fill:rgb(145,145,145);"/>
                </g>
                <g transform="matrix(-1,0,0,1,2482.26,8.22787)">
                    <rect x="1530.8" y="290.519" width="36.341" height="15.531" style="fill:rgb(145,145,145);"/>
                </g>
                <g transform="matrix(-1,0,0,1,2346.88,8.22787)">
                    <rect x="1463.1" y="290.519" width="36.341" height="15.531" style="fill:rgb(145,145,145);"/>
                </g>
                <g transform="matrix(-1,0,0,1,2167.78,145.786)">
                    <rect x="1373.56" y="168.4" width="36.341" height="122.211" style="fill:rgb(222,222,222);"/>
                </g>
                <g transform="matrix(-1,0,0,1,2192.57,130.348)">
                    <rect x="1398.35" y="168.4" width="11.546" height="137.649" style="fill:rgb(145,145,145);"/>
                </g>
                <g transform="matrix(-1,0,0,1,2167.78,130.348)">
                    <rect x="1385.1" y="168.4" width="13.249" height="137.649" style="fill:rgb(176,176,176);"/>
                </g>
                <g transform="matrix(-1,0,0,1,2167.78,8.22787)">
                    <rect x="1373.56" y="290.519" width="36.341" height="15.531" style="fill:rgb(145,145,145);"/>
                </g>
                <g transform="matrix(-1,0,0,1,2254.88,283.833)">
                    <rect x="1277.22" y="152.564" width="316.106" height="15.836" style="fill:rgb(222,222,222);"/>
                </g>
                <g transform="matrix(-1,0,0,1,2254.88,275.915)">
                    <rect x="1277.22" y="160.482" width="316.106" height="7.918" style="fill:rgb(191,191,191);"/>
                </g>
                <g transform="matrix(-1,0,0,1,2254.88,328.904)">
                    <rect x="1256.51" y="123.329" width="357.523" height="29.235" style="fill:rgb(222,222,222);"/>
                </g>
                <g transform="matrix(-1,0,0,1,2254.88,311.546)">
                    <rect x="1256.51" y="140.687" width="357.523" height="11.877" style="fill:rgb(191,191,191);"/>
                </g>
                <g transform="matrix(1,0,0,1,831.541,325.816)">
                    <path d="M0,28.829L-21.571,28.829L-21.571,10.679C-21.571,4.781 -16.791,0 -10.894,0L-10.678,0C-4.781,0 0,4.781 0,10.679L0,28.829Z" style="fill:rgb(77,77,77);fill-rule:nonzero;"/>
                </g>
                <g transform="matrix(1,0,0,1,830.321,327.446)">
                    <path d="M0,25.569L-19.133,25.569L-19.133,9.47C-19.133,4.24 -14.893,0 -9.662,0L-9.471,0C-4.239,0 0,4.24 0,9.47L0,25.569Z" style="fill:rgb(222,222,222);fill-rule:nonzero;"/>
                </g>
                <g transform="matrix(-1,0,0,1,2257.18,72.4049)">
                    <rect x="1426.86" y="265.569" width="19.133" height="1.254" style="fill:rgb(77,77,77);"/>
                </g>
                <g transform="matrix(-1,0,0,1,2257.18,75.8919)">
                    <rect x="1435.82" y="251.093" width="1.212" height="26.719" style="fill:rgb(77,77,77);"/>
                </g>
                <g transform="matrix(1,0,0,1,750.926,325.816)">
                    <path d="M0,28.829L-21.572,28.829L-21.572,10.679C-21.572,4.781 -16.791,0 -10.894,0L-10.679,0C-4.781,0 0,4.781 0,10.679L0,28.829Z" style="fill:rgb(77,77,77);fill-rule:nonzero;"/>
                </g>
                <g transform="matrix(1,0,0,1,749.706,327.446)">
                    <path d="M0,25.569L-19.133,25.569L-19.133,9.47C-19.133,4.24 -14.893,0 -9.662,0L-9.471,0C-4.239,0 0,4.24 0,9.47L0,25.569Z" style="fill:rgb(222,222,222);fill-rule:nonzero;"/>
                </g>
                <g transform="matrix(-1,0,0,1,2095.95,72.4049)">
                    <rect x="1346.25" y="265.569" width="19.133" height="1.254" style="fill:rgb(77,77,77);"/>
                </g>
                <g transform="matrix(-1,0,0,1,2095.95,75.8919)">
                    <rect x="1355.21" y="251.093" width="1.212" height="26.719" style="fill:rgb(77,77,77);"/>
                </g>
                <g transform="matrix(1,0,0,1,910.256,325.816)">
                    <path d="M0,28.829L-21.571,28.829L-21.571,10.679C-21.571,4.781 -16.791,0 -10.894,0L-10.678,0C-4.78,0 0,4.781 0,10.679L0,28.829Z" style="fill:rgb(77,77,77);fill-rule:nonzero;"/>
                </g>
                <g transform="matrix(1,0,0,1,909.037,327.446)">
                    <path d="M0,25.569L-19.134,25.569L-19.134,9.47C-19.134,4.24 -14.894,0 -9.662,0L-9.471,0C-4.24,0 0,4.24 0,9.47L0,25.569Z" style="fill:rgb(222,222,222);fill-rule:nonzero;"/>
                </g>
                <g transform="matrix(-1,0,0,1,2414.61,72.4049)">
                    <rect x="1505.58" y="265.569" width="19.134" height="1.254" style="fill:rgb(77,77,77);"/>
                </g>
                <g transform="matrix(-1,0,0,1,2414.61,75.8919)">
                    <rect x="1514.54" y="251.093" width="1.212" height="26.719" style="fill:rgb(77,77,77);"/>
                </g>
                <g transform="matrix(1,0,0,1,826.298,250.687)">
                    <path d="M0,-8.641C-2.944,-8.96 -5.089,-9.12 -6.433,-9.12C-7.776,-9.12 -8.557,-9.082 -8.769,-9.008C-8.982,-8.934 -9.089,-8.784 -9.089,-8.56C-9.089,-8.336 -8.961,-8.161 -8.705,-8.033C-8.449,-7.904 -7.74,-7.712 -6.577,-7.456C-5.414,-7.201 -4.46,-6.96 -3.712,-6.736C-2.966,-6.512 -2.251,-6.229 -1.569,-5.888C-0.887,-5.547 -0.384,-5.141 -0.064,-4.672C0.576,-3.712 0.896,-2.315 0.896,-0.48C0.896,2.016 0.261,3.82 -1.009,4.929C-2.278,6.039 -4.192,6.635 -6.753,6.721L-6.753,9.057L-8.737,9.057L-8.737,6.721C-11.213,6.593 -13.389,6.294 -15.266,5.825L-16.258,5.601L-15.97,0.064C-12.769,0.534 -10.146,0.769 -8.097,0.769C-7.479,0.769 -7.053,0.71 -6.816,0.593C-6.582,0.476 -6.465,0.3 -6.465,0.064C-6.465,-0.17 -6.588,-0.33 -6.832,-0.416C-7.078,-0.501 -7.756,-0.628 -8.865,-0.799C-11.788,-1.269 -13.776,-1.995 -14.833,-2.976C-15.889,-3.957 -16.418,-5.547 -16.418,-7.744C-16.418,-10.453 -15.789,-12.342 -14.529,-13.408C-13.271,-14.474 -11.341,-15.029 -8.737,-15.072L-8.737,-17.698L-6.753,-17.698L-6.753,-15.072C-4.854,-14.988 -2.88,-14.785 -0.832,-14.464L0.191,-14.306L0,-8.641Z" style="fill:white;fill-rule:nonzero;"/>
                </g>
                <g transform="matrix(1,0,0,1,-615.672,4.79687)">
                    <g opacity="0.06">
                        <g transform="matrix(0,-1,-1,0,1436.43,362.748)">
                            <path d="M-20.822,-20.822C-9.323,-20.822 -0,-11.5 -0,-0.001C-0,11.499 -9.323,20.822 -20.822,20.822C-32.322,20.822 -41.644,11.499 -41.644,-0.001C-41.644,-11.5 -32.322,-20.822 -20.822,-20.822" style="fill:rgb(5,98,232);fill-rule:nonzero;"/>
                        </g>
                    </g>
                </g>
                <g transform="matrix(0,-1,-1,0,820.755,367.545)">
                    <path d="M-20.822,-20.822C-9.323,-20.822 -0,-11.5 -0,-0.001C-0,11.499 -9.323,20.822 -20.822,20.822C-32.322,20.822 -41.644,11.499 -41.644,-0.001C-41.644,-11.5 -32.322,-20.822 -20.822,-20.822" style="fill:rgb(145,145,145);fill-rule:nonzero;"/>
                </g>
                <g transform="matrix(0,-1,-1,0,820.755,370.253)">
                    <path d="M-18.114,-18.115C-8.11,-18.115 -0,-10.006 -0,-0.002C-0,10.002 -8.11,18.114 -18.114,18.114C-28.118,18.114 -36.228,10.002 -36.228,-0.002C-36.228,-10.006 -28.118,-18.115 -18.114,-18.115" style="fill:rgb(176,176,176);fill-rule:nonzero;"/>
                </g>
                <g transform="matrix(0,-1,-1,0,820.755,373.417)">
                    <path d="M-14.949,-14.95C-6.693,-14.95 0,-8.257 0,-0.001C0,8.256 -6.693,14.949 -14.949,14.949C-23.206,14.949 -29.899,8.256 -29.899,-0.001C-29.899,-8.257 -23.206,-14.95 -14.949,-14.95" style="fill:rgb(222,222,222);fill-rule:nonzero;"/>
                </g>
                <g transform="matrix(-1,0,0,1,2257.18,219.967)">
                    <rect x="1415.61" y="168.4" width="41.644" height="48.03" style="fill:rgb(145,145,145);"/>
                </g>
                <g transform="matrix(-1,0,0,1,2257.18,219.684)">
                    <rect x="1418.31" y="168.4" width="36.228" height="48.313" style="fill:rgb(176,176,176);"/>
                </g>
                <g transform="matrix(-1,0,0,1,2257.18,219.358)">
                    <rect x="1421.48" y="168.4" width="29.899" height="48.639" style="fill:rgb(222,222,222);"/>
                </g>
                <g transform="matrix(-1,0,0,1,2256.63,200.984)">
                    <rect x="1435.27" y="168.4" width="1.76" height="67.013" style="fill:rgb(145,145,145);"/>
                </g>
                <g transform="matrix(-1,0,0,1,2259.28,202.565)">
                    <rect x="1437.03" y="168.4" width="0.881" height="65.432" style="fill:rgb(176,176,176);"/>
                </g>
                <g transform="matrix(-1,0,0,1,2253.99,202.565)">
                    <rect x="1434.39" y="168.4" width="0.88" height="65.432" style="fill:rgb(176,176,176);"/>
                </g>
                <g transform="matrix(1,0,0,1,1036.85,234.995)">
                    <path d="M0,3.711L3.14,3.711L1.564,-1.356L0,3.711ZM3.982,6.431L-0.844,6.431L-1.687,9.159L-5.448,9.159L-0.09,-5.448L3.22,-5.448L8.617,9.159L4.836,9.159L3.982,6.431Z" style="fill:white;fill-rule:nonzero;"/>
                </g>
                <g transform="matrix(1,0,0,1,1065.02,241.436)">
                    <path d="M0,-9.171L-4.386,-9.171L-4.386,2.718L-7.907,2.718L-7.907,-9.171L-12.211,-9.171L-12.211,-11.889L0,-11.889L0,-9.171Z" style="fill:white;fill-rule:nonzero;"/>
                </g>
                <g transform="matrix(1,0,0,1,1079.35,244.154)">
                    <path d="M0,-14.607L3.261,-4.444L6.511,-14.607L11.146,-14.607L11.146,0L7.615,0L7.615,-3.411L7.956,-10.393L4.424,0L2.097,0L-1.444,-10.404L-1.104,-3.411L-1.104,0L-4.625,0L-4.625,-14.607L0,-14.607Z" style="fill:white;fill-rule:nonzero;"/>
                </g>
                <g transform="matrix(1,0,0,1,-615.672,4.79687)">
                    <g opacity="0.5">
                        <g transform="matrix(1,0,0,-1,-0.002,600)">
                            <rect x="1721.2" y="240.272" width="18.33" height="4.219"/>
                        </g>
                    </g>
                </g>
                <g transform="matrix(1,0,0,1,-615.672,4.79687)">
                    <g opacity="0.5">
                        <g transform="matrix(-0.771896,-0.635749,-0.635749,0.771896,1637.34,311.594)">
                            <path d="M-24.479,-73.955C-24.479,-73.955 6.723,-58.002 26.419,-30.485C26.419,-30.485 1.85,-2.712 -24.479,5.254C-24.479,5.254 -63.794,-12.158 -75.63,-36.875C-75.63,-36.875 -52.641,-64.109 -24.479,-73.955" style="fill:white;fill-rule:nonzero;"/>
                        </g>
                    </g>
                </g>
                <g transform="matrix(1,0,0,1,-615.672,4.79687)">
                    <g opacity="0.15">
                        <g transform="matrix(0.116145,-0.993232,-0.993232,-0.116145,1689.16,294.779)">
                            <path d="M-32.703,-34.038C-47.066,-10.706 -40.399,31.778 -40.399,31.778C-38.007,33.811 -35.421,35.679 -32.703,37.399C-23.419,9.416 -23.069,-19.172 -23.543,-32.365C-29.15,-33.572 -32.703,-34.038 -32.703,-34.038" style="fill-rule:nonzero;"/>
                        </g>
                    </g>
                </g>
                <g transform="matrix(1,0,0,1,552.003,465.545)">
                    <path d="M0,16.19C0,16.19 9.8,0 29.398,0C48.998,0 55.905,16.19 55.905,16.19" style="fill:rgb(0,147,69);fill-rule:nonzero;"/>
                </g>
                <g transform="matrix(1,0,0,1,624.364,465.545)">
                    <path d="M0,16.19C0,16.19 9.799,0 29.398,0C48.997,0 55.905,16.19 55.905,16.19" style="fill:rgb(0,147,69);fill-rule:nonzero;"/>
                </g>
                <g transform="matrix(1,0,0,1,590.374,465.545)">
                    <path d="M0,16.19C0,16.19 9.8,0 29.398,0C48.998,0 55.905,16.19 55.905,16.19" style="fill:rgb(41,180,115);fill-rule:nonzero;"/>
                </g>
                <g transform="matrix(1,0,0,1,959.317,465.545)">
                    <path d="M0,16.19C0,16.19 9.8,0 29.398,0C48.998,0 55.905,16.19 55.905,16.19" style="fill:rgb(0,147,69);fill-rule:nonzero;"/>
                </g>
                <g transform="matrix(1,0,0,1,1031.68,465.545)">
                    <path d="M0,16.19C0,16.19 9.8,0 29.398,0C48.998,0 55.905,16.19 55.905,16.19" style="fill:rgb(0,147,69);fill-rule:nonzero;"/>
                </g>
                <g transform="matrix(1,0,0,1,997.689,465.545)">
                    <path d="M0,16.19C0,16.19 9.8,0 29.398,0C48.998,0 55.906,16.19 55.906,16.19" style="fill:rgb(41,180,115);fill-rule:nonzero;"/>
                </g>
                <g transform="matrix(-1,0,0,1,2549.52,336.19)">
                    <rect x="1579.9" y="123.062" width="5.383" height="22.483" style="fill:rgb(124,70,51);"/>
                </g>
                <g transform="matrix(-1,0,0,1,2591.99,334.607)">
                    <rect x="1601.14" y="123.062" width="5.383" height="24.066" style="fill:rgb(124,70,51);"/>
                </g>
                <g transform="matrix(-1,0,0,1,2634.46,334.607)">
                    <rect x="1622.37" y="123.062" width="5.384" height="24.066" style="fill:rgb(124,70,51);"/>
                </g>
                <g transform="matrix(1,0,0,1,967.4,427.13)">
                    <path d="M0,37.746C-4.801,37.746 -8.729,33.818 -8.729,29.017L-8.729,8.729C-8.729,3.929 -4.801,0 0,0C4.8,0 8.729,3.929 8.729,8.729L8.729,29.017C8.729,33.818 4.8,37.746 0,37.746" style="fill:rgb(103,179,88);fill-rule:nonzero;"/>
                </g>
                <g transform="matrix(1,0,0,1,1009.39,427.13)">
                    <path d="M0,37.746C-4.8,37.746 -8.729,33.818 -8.729,29.017L-8.729,8.729C-8.729,3.929 -4.8,0 0,0C4.802,0 8.729,3.929 8.729,8.729L8.729,29.017C8.729,33.818 4.802,37.746 0,37.746" style="fill:rgb(103,179,88);fill-rule:nonzero;"/>
                </g>
                <g transform="matrix(1,0,0,1,988.16,415.461)">
                    <path d="M0,48.235C-4.801,48.235 -8.729,44.307 -8.729,39.506L-8.729,8.728C-8.729,3.927 -4.801,0 0,0C4.801,0 8.729,3.927 8.729,8.728L8.729,39.506C8.729,44.307 4.801,48.235 0,48.235" style="fill:rgb(69,145,49);fill-rule:nonzero;"/>
                </g>
                <g transform="matrix(-1,0,0,1,2677.81,336.19)">
                    <rect x="1644.05" y="123.062" width="5.383" height="22.483" style="fill:rgb(124,70,51);"/>
                </g>
                <g transform="matrix(-1,0,0,1,2720.29,334.607)">
                    <rect x="1665.29" y="123.062" width="5.383" height="24.066" style="fill:rgb(124,70,51);"/>
                </g>
                <g transform="matrix(-1,0,0,1,2762.75,334.607)">
                    <rect x="1686.52" y="123.062" width="5.384" height="24.066" style="fill:rgb(124,70,51);"/>
                </g>
                <g transform="matrix(1,0,0,1,1031.55,427.13)">
                    <path d="M0,37.746C-4.801,37.746 -8.729,33.818 -8.729,29.017L-8.729,8.729C-8.729,3.929 -4.801,0 0,0C4.8,0 8.729,3.929 8.729,8.729L8.729,29.017C8.729,33.818 4.8,37.746 0,37.746" style="fill:rgb(103,179,88);fill-rule:nonzero;"/>
                </g>
                <g transform="matrix(1,0,0,1,1073.54,427.13)">
                    <path d="M0,37.746C-4.801,37.746 -8.729,33.818 -8.729,29.017L-8.729,8.729C-8.729,3.929 -4.801,0 0,0C4.801,0 8.729,3.929 8.729,8.729L8.729,29.017C8.729,33.818 4.801,37.746 0,37.746" style="fill:rgb(103,179,88);fill-rule:nonzero;"/>
                </g>
                <g transform="matrix(1,0,0,1,1052.31,415.461)">
                    <path d="M0,48.235C-4.801,48.235 -8.729,44.307 -8.729,39.506L-8.729,8.728C-8.729,3.927 -4.801,0 0,0C4.801,0 8.729,3.927 8.729,8.728L8.729,39.506C8.729,44.307 4.801,48.235 0,48.235" style="fill:rgb(69,145,49);fill-rule:nonzero;"/>
                </g>
                <g transform="matrix(-1,0,0,1,1754.92,336.19)">
                    <rect x="1182.61" y="123.062" width="5.384" height="22.483" style="fill:rgb(124,70,51);"/>
                </g>
                <g transform="matrix(-1,0,0,1,1797.4,334.607)">
                    <rect x="1203.84" y="123.062" width="5.384" height="24.066" style="fill:rgb(124,70,51);"/>
                </g>
                <g transform="matrix(-1,0,0,1,1839.86,334.607)">
                    <rect x="1225.07" y="123.062" width="5.383" height="24.066" style="fill:rgb(124,70,51);"/>
                </g>
                <g transform="matrix(1,0,0,1,570.102,427.13)">
                    <path d="M0,37.746C-4.801,37.746 -8.729,33.818 -8.729,29.017L-8.729,8.729C-8.729,3.929 -4.801,0 0,0C4.801,0 8.729,3.929 8.729,8.729L8.729,29.017C8.729,33.818 4.801,37.746 0,37.746" style="fill:rgb(103,179,88);fill-rule:nonzero;"/>
                </g>
                <g transform="matrix(1,0,0,1,612.094,427.13)">
                    <path d="M0,37.746C-4.801,37.746 -8.729,33.818 -8.729,29.017L-8.729,8.729C-8.729,3.929 -4.801,0 0,0C4.801,0 8.729,3.929 8.729,8.729L8.729,29.017C8.729,33.818 4.801,37.746 0,37.746" style="fill:rgb(103,179,88);fill-rule:nonzero;"/>
                </g>
                <g transform="matrix(1,0,0,1,590.862,415.461)">
                    <path d="M0,48.235C-4.802,48.235 -8.729,44.307 -8.729,39.506L-8.729,8.728C-8.729,3.927 -4.802,0 0,0C4.801,0 8.729,3.927 8.729,8.728L8.729,39.506C8.729,44.307 4.801,48.235 0,48.235" style="fill:rgb(69,145,49);fill-rule:nonzero;"/>
                </g>
                <g transform="matrix(-1,0,0,1,1883.22,336.19)">
                    <rect x="1246.75" y="123.062" width="5.384" height="22.483" style="fill:rgb(124,70,51);"/>
                </g>
                <g transform="matrix(-1,0,0,1,1925.69,334.607)">
                    <rect x="1267.99" y="123.062" width="5.384" height="24.066" style="fill:rgb(124,70,51);"/>
                </g>
                <g transform="matrix(-1,0,0,1,1968.15,334.607)">
                    <rect x="1289.22" y="123.062" width="5.383" height="24.066" style="fill:rgb(124,70,51);"/>
                </g>
                <g transform="matrix(1,0,0,1,634.248,427.13)">
                    <path d="M0,37.746C-4.801,37.746 -8.729,33.818 -8.729,29.017L-8.729,8.729C-8.729,3.929 -4.801,0 0,0C4.801,0 8.729,3.929 8.729,8.729L8.729,29.017C8.729,33.818 4.801,37.746 0,37.746" style="fill:rgb(103,179,88);fill-rule:nonzero;"/>
                </g>
                <g transform="matrix(1,0,0,1,676.24,427.13)">
                    <path d="M0,37.746C-4.801,37.746 -8.729,33.818 -8.729,29.017L-8.729,8.729C-8.729,3.929 -4.801,0 0,0C4.801,0 8.729,3.929 8.729,8.729L8.729,29.017C8.729,33.818 4.801,37.746 0,37.746" style="fill:rgb(103,179,88);fill-rule:nonzero;"/>
                </g>
                <g transform="matrix(1,0,0,1,655.009,415.461)">
                    <path d="M0,48.235C-4.801,48.235 -8.729,44.307 -8.729,39.506L-8.729,8.728C-8.729,3.927 -4.801,0 0,0C4.801,0 8.729,3.927 8.729,8.728L8.729,39.506C8.729,44.307 4.801,48.235 0,48.235" style="fill:rgb(69,145,49);fill-rule:nonzero;"/>
                </g>
            </g>
        </g>
    </g>
    <defs>
        <linearGradient id="_Linear2" x1="0" y1="0" x2="1" y2="0" gradientUnits="userSpaceOnUse" gradientTransform="matrix(1,0,0,-1,0,0)"><stop offset="0" style="stop-color:rgb(66,121,232);stop-opacity:1"/><stop offset="1" style="stop-color:rgb(66,194,232);stop-opacity:1"/></linearGradient>
        <linearGradient id="_Linear3" x1="0" y1="0" x2="1" y2="0" gradientUnits="userSpaceOnUse" gradientTransform="matrix(1,0,0,-1,0,4.41509e-07)"><stop offset="0" style="stop-color:rgb(66,121,232);stop-opacity:1"/><stop offset="1" style="stop-color:rgb(66,194,232);stop-opacity:1"/></linearGradient>
        <linearGradient id="_Linear6" x1="0" y1="0" x2="1" y2="0" gradientUnits="userSpaceOnUse" gradientTransform="matrix(1,0,0,-1,0,-1.02931e-07)"><stop offset="0" style="stop-color:rgb(66,121,232);stop-opacity:1"/><stop offset="1" style="stop-color:rgb(66,194,232);stop-opacity:1"/></linearGradient>
        <linearGradient id="_Linear7" x1="0" y1="0" x2="1" y2="0" gradientUnits="userSpaceOnUse" gradientTransform="matrix(1,0,0,-1,0,-3.75302e-06)"><stop offset="0" style="stop-color:rgb(66,121,232);stop-opacity:1"/><stop offset="1" style="stop-color:rgb(66,194,232);stop-opacity:1"/></linearGradient>
        <linearGradient id="_Linear8" x1="0" y1="0" x2="1" y2="0" gradientUnits="userSpaceOnUse" gradientTransform="matrix(1,0,0,-1,0,3.85423e-06)"><stop offset="0" style="stop-color:rgb(66,121,232);stop-opacity:1"/><stop offset="1" style="stop-color:rgb(66,194,232);stop-opacity:1"/></linearGradient>
        <linearGradient id="_Linear9" x1="0" y1="0" x2="1" y2="0" gradientUnits="userSpaceOnUse" gradientTransform="matrix(1,0,0,-1,0,-3.13269e-06)"><stop offset="0" style="stop-color:rgb(66,121,232);stop-opacity:1"/><stop offset="1" style="stop-color:rgb(66,194,232);stop-opacity:1"/></linearGradient>
        <linearGradient id="_Linear10" x1="0" y1="0" x2="1" y2="0" gradientUnits="userSpaceOnUse" gradientTransform="matrix(1,0,0,-1,0,5.34305e-06)"><stop offset="0" style="stop-color:rgb(66,121,232);stop-opacity:1"/><stop offset="1" style="stop-color:rgb(66,194,232);stop-opacity:1"/></linearGradient>
        <linearGradient id="_Linear11" x1="0" y1="0" x2="1" y2="0" gradientUnits="userSpaceOnUse" gradientTransform="matrix(1,0,0,-1,0,-1.77238e-06)"><stop offset="0" style="stop-color:rgb(66,121,232);stop-opacity:1"/><stop offset="1" style="stop-color:rgb(66,194,232);stop-opacity:1"/></linearGradient>
        <linearGradient id="_Linear12" x1="0" y1="0" x2="1" y2="0" gradientUnits="userSpaceOnUse" gradientTransform="matrix(1,0,0,-1,0,3.11295e-06)"><stop offset="0" style="stop-color:rgb(66,121,232);stop-opacity:1"/><stop offset="1" style="stop-color:rgb(66,194,232);stop-opacity:1"/></linearGradient>
        <linearGradient id="_Linear13" x1="0" y1="0" x2="1" y2="0" gradientUnits="userSpaceOnUse" gradientTransform="matrix(1,0,0,-1,0,2.16113e-07)"><stop offset="0" style="stop-color:rgb(211,84,0);stop-opacity:1"/><stop offset="1" style="stop-color:rgb(255,182,45);stop-opacity:1"/></linearGradient>
        <linearGradient id="_Linear14" x1="0" y1="0" x2="1" y2="0" gradientUnits="userSpaceOnUse" gradientTransform="matrix(1,0,0,-1,0,-1.21071e-06)"><stop offset="0" style="stop-color:rgb(66,121,232);stop-opacity:1"/><stop offset="1" style="stop-color:rgb(66,194,232);stop-opacity:1"/></linearGradient>
        <linearGradient id="_Linear15" x1="0" y1="0" x2="1" y2="0" gradientUnits="userSpaceOnUse" gradientTransform="matrix(1,0,0,-1,0,2.502e-06)"><stop offset="0" style="stop-color:rgb(66,121,232);stop-opacity:1"/><stop offset="1" style="stop-color:rgb(66,194,232);stop-opacity:1"/></linearGradient>
        <linearGradient id="_Linear16" x1="0" y1="0" x2="1" y2="0" gradientUnits="userSpaceOnUse" gradientTransform="matrix(1,0,0,-1,0,-1.82166e-06)"><stop offset="0" style="stop-color:rgb(66,121,232);stop-opacity:1"/><stop offset="1" style="stop-color:rgb(66,194,232);stop-opacity:1"/></linearGradient>
        <linearGradient id="_Linear17" x1="0" y1="0" x2="1" y2="0" gradientUnits="userSpaceOnUse" gradientTransform="matrix(1,0,0,-1,0,1.89009e-06)"><stop offset="0" style="stop-color:rgb(66,121,232);stop-opacity:1"/><stop offset="1" style="stop-color:rgb(66,194,232);stop-opacity:1"/></linearGradient>
        <linearGradient id="_Linear18" x1="0" y1="0" x2="1" y2="0" gradientUnits="userSpaceOnUse" gradientTransform="matrix(1,0,0,-1,0,-4.0508e-06)"><stop offset="0" style="stop-color:rgb(66,121,232);stop-opacity:1"/><stop offset="1" style="stop-color:rgb(66,194,232);stop-opacity:1"/></linearGradient>
        <linearGradient id="_Linear19" x1="0" y1="0" x2="1" y2="0" gradientUnits="userSpaceOnUse" gradientTransform="matrix(1,0,0,-1,0,5.27479e-06)"><stop offset="0" style="stop-color:rgb(211,84,0);stop-opacity:1"/><stop offset="1" style="stop-color:rgb(255,182,45);stop-opacity:1"/></linearGradient>
        <linearGradient id="_Linear20" x1="0" y1="0" x2="1" y2="0" gradientUnits="userSpaceOnUse" gradientTransform="matrix(-0.661599,0.749858,0.749858,0.661599,0.830796,-0.374927)"><stop offset="0" style="stop-color:rgb(211,84,0);stop-opacity:1"/><stop offset="1" style="stop-color:rgb(255,182,45);stop-opacity:1"/></linearGradient>
        <linearGradient id="_Linear21" x1="0" y1="0" x2="1" y2="0" gradientUnits="userSpaceOnUse" gradientTransform="matrix(0.224049,0.974578,0.974578,-0.224049,0.387976,-0.487289)"><stop offset="0" style="stop-color:rgb(211,84,0);stop-opacity:1"/><stop offset="1" style="stop-color:rgb(255,182,45);stop-opacity:1"/></linearGradient>
        <linearGradient id="_Linear22" x1="0" y1="0" x2="1" y2="0" gradientUnits="userSpaceOnUse" gradientTransform="matrix(1,0,0,-1,0,-3.1741e-06)"><stop offset="0" style="stop-color:rgb(211,84,0);stop-opacity:1"/><stop offset="1" style="stop-color:rgb(255,182,45);stop-opacity:1"/></linearGradient>
        <linearGradient id="_Linear23" x1="0" y1="0" x2="1" y2="0" gradientUnits="userSpaceOnUse" gradientTransform="matrix(1,0,0,-1,0,-3.1741e-06)"><stop offset="0" style="stop-color:rgb(211,84,0);stop-opacity:1"/><stop offset="1" style="stop-color:rgb(255,182,45);stop-opacity:1"/></linearGradient>
        <linearGradient id="_Linear24" x1="0" y1="0" x2="1" y2="0" gradientUnits="userSpaceOnUse" gradientTransform="matrix(1,0,0,-1,0,2.4528e-07)"><stop offset="0" style="stop-color:rgb(211,84,0);stop-opacity:1"/><stop offset="1" style="stop-color:rgb(255,182,45);stop-opacity:1"/></linearGradient>
    </defs>
</svg>
