<svg id="Layer_1" data-name="Layer 1" xmlns="http://www.w3.org/2000/svg" xmlns:xlink="http://www.w3.org/1999/xlink" viewBox="0 0 650 520"><defs><style>.cls-1{opacity:0.15;fill:url(#linear-gradient);}.cls-2{fill:#fff;}.cls-110,.cls-3{opacity:0.5;}.cls-4{fill:url(#linear-gradient-2);}.cls-5{fill:url(#linear-gradient-3);}.cls-6{fill:url(#linear-gradient-4);}.cls-7{fill:url(#linear-gradient-5);}.cls-8{fill:url(#linear-gradient-6);}.cls-9{fill:#3dba85;}.cls-10{fill:#cccbcb;}.cls-11{fill:url(#linear-gradient-7);}.cls-12{fill:#f5f5f5;}.cls-13{fill:#e6e6e6;}.cls-14,.cls-26{fill:#aeb3b7;}.cls-15{fill:url(#linear-gradient-8);}.cls-16{fill:url(#linear-gradient-9);}.cls-17{fill:url(#linear-gradient-10);}.cls-18{fill:url(#linear-gradient-11);}.cls-19{fill:url(#linear-gradient-12);}.cls-20{fill:url(#linear-gradient-13);}.cls-21{fill:url(#linear-gradient-14);}.cls-22{fill:url(#linear-gradient-15);}.cls-23{fill:url(#linear-gradient-16);}.cls-24{fill:url(#linear-gradient-17);}.cls-25{fill:url(#linear-gradient-18);}.cls-26,.cls-41,.cls-42,.cls-45,.cls-46,.cls-47,.cls-49{stroke:#fff;stroke-miterlimit:10;}.cls-26,.cls-49{stroke-width:2px;}.cls-27{fill:url(#linear-gradient-19);}.cls-28{fill:url(#linear-gradient-20);}.cls-29{fill:url(#linear-gradient-21);}.cls-30{fill:url(#linear-gradient-22);}.cls-31{fill:url(#linear-gradient-23);}.cls-32{fill:url(#linear-gradient-24);}.cls-33{fill:#939598;}.cls-34{fill:#bcbec0;}.cls-35{fill:url(#linear-gradient-25);}.cls-36{fill:url(#linear-gradient-26);}.cls-37{fill:url(#linear-gradient-27);}.cls-38{fill:url(#linear-gradient-28);}.cls-39{fill:url(#linear-gradient-29);}.cls-40{fill:url(#linear-gradient-30);}.cls-41{fill:url(#linear-gradient-31);}.cls-42{fill:url(#linear-gradient-32);}.cls-43{fill:url(#linear-gradient-33);}.cls-44{fill:#f2f2f2;}.cls-45{fill:url(#linear-gradient-34);}.cls-46{fill:url(#linear-gradient-35);}.cls-47{fill:url(#linear-gradient-36);}.cls-48{fill:#999;}.cls-49{fill:url(#linear-gradient-37);}.cls-50{fill:url(#linear-gradient-38);}.cls-51{fill:url(#linear-gradient-39);}.cls-52{fill:url(#linear-gradient-40);}.cls-53{fill:url(#linear-gradient-41);}.cls-54{fill:url(#linear-gradient-42);}.cls-55{fill:url(#linear-gradient-43);}.cls-56{fill:url(#linear-gradient-44);}.cls-57{fill:url(#linear-gradient-45);}.cls-58{fill:url(#linear-gradient-46);}.cls-59{fill:url(#linear-gradient-47);}.cls-60{fill:url(#linear-gradient-48);}.cls-61{fill:url(#linear-gradient-49);}.cls-62{fill:url(#linear-gradient-50);}.cls-63{fill:url(#linear-gradient-51);}.cls-64{fill:url(#linear-gradient-52);}.cls-65{fill:url(#linear-gradient-53);}.cls-66{fill:url(#linear-gradient-54);}.cls-67{fill:url(#linear-gradient-55);}.cls-68{fill:url(#linear-gradient-56);}.cls-69{fill:url(#linear-gradient-57);}.cls-70{fill:url(#linear-gradient-58);}.cls-71{fill:url(#linear-gradient-59);}.cls-72{fill:url(#linear-gradient-60);}.cls-73{fill:url(#linear-gradient-61);}.cls-74{fill:url(#linear-gradient-62);}.cls-75{fill:url(#linear-gradient-63);}.cls-76{fill:url(#linear-gradient-64);}.cls-77{fill:url(#linear-gradient-65);}.cls-78{fill:url(#linear-gradient-66);}.cls-79{fill:url(#linear-gradient-67);}.cls-80{fill:url(#linear-gradient-68);}.cls-81{fill:url(#linear-gradient-69);}.cls-82{fill:url(#linear-gradient-70);}.cls-83{fill:url(#linear-gradient-71);}.cls-84{fill:url(#linear-gradient-72);}.cls-85{fill:url(#linear-gradient-73);}.cls-86{fill:url(#linear-gradient-74);}.cls-87{fill:url(#linear-gradient-75);}.cls-88{fill:url(#linear-gradient-76);}.cls-89{fill:url(#linear-gradient-77);}.cls-90{fill:url(#linear-gradient-78);}.cls-91{fill:url(#linear-gradient-79);}.cls-92{fill:url(#linear-gradient-80);}.cls-93{fill:url(#linear-gradient-81);}.cls-94{fill:url(#linear-gradient-82);}.cls-95{fill:url(#linear-gradient-83);}.cls-96{fill:url(#linear-gradient-84);}.cls-97{fill:url(#linear-gradient-85);}.cls-98{fill:url(#linear-gradient-86);}.cls-99{fill:url(#linear-gradient-87);}.cls-100{fill:url(#linear-gradient-88);}.cls-101{fill:url(#linear-gradient-89);}.cls-102{fill:url(#linear-gradient-90);}.cls-103{fill:url(#linear-gradient-91);}.cls-104{fill:url(#linear-gradient-92);}.cls-105{fill:url(#linear-gradient-93);}.cls-106{fill:url(#linear-gradient-94);}.cls-107{fill:url(#linear-gradient-95);}.cls-108{fill:url(#linear-gradient-96);}.cls-109{fill:url(#linear-gradient-97);}.cls-110{fill:url(#linear-gradient-98);}.cls-111{fill:url(#linear-gradient-99);}.cls-112{fill:url(#linear-gradient-100);}.cls-113{fill:url(#linear-gradient-101);}.cls-114{fill:url(#linear-gradient-102);}.cls-115{fill:url(#linear-gradient-103);}.cls-116{fill:url(#linear-gradient-104);}.cls-117{fill:url(#linear-gradient-105);}.cls-118{fill:url(#linear-gradient-106);}.cls-119{fill:url(#linear-gradient-107);}.cls-120{fill:url(#linear-gradient-108);}.cls-121{fill:url(#linear-gradient-109);}.cls-122{fill:url(#linear-gradient-110);}.cls-123{fill:url(#linear-gradient-111);}.cls-124{fill:url(#linear-gradient-112);}.cls-125{fill:url(#linear-gradient-113);}.cls-126{fill:url(#linear-gradient-114);}.cls-127{fill:url(#linear-gradient-115);}.cls-128{fill:url(#linear-gradient-116);}.cls-129{fill:url(#linear-gradient-117);}.cls-130{fill:url(#linear-gradient-118);}.cls-131{fill:url(#linear-gradient-119);}.cls-132{fill:url(#linear-gradient-120);}.cls-133{fill:url(#linear-gradient-121);}.cls-134{fill:url(#linear-gradient-122);}.cls-135{fill:url(#linear-gradient-123);}.cls-136{opacity:0.25;}.cls-137{fill:url(#linear-gradient-124);}.cls-138{fill:#f99316;}</style><linearGradient id="linear-gradient" x1="18.94" y1="261.96" x2="628.9" y2="261.96" gradientUnits="userSpaceOnUse"><stop offset="0" stop-color="#4279e8"/><stop offset="1" stop-color="#42c2e8"/></linearGradient><linearGradient id="linear-gradient-2" x1="397.46" y1="284.66" x2="533.46" y2="284.66" gradientTransform="translate(746.61 -182.93) rotate(89.57)" gradientUnits="userSpaceOnUse"><stop offset="0" stop-color="#3dba85"/><stop offset="1" stop-color="#1de885"/></linearGradient><linearGradient id="linear-gradient-3" x1="405.07" y1="284.66" x2="525.86" y2="284.66" gradientTransform="matrix(1, 0, 0, 1, 0, 0)" xlink:href="#linear-gradient-2"/><linearGradient id="linear-gradient-4" x1="451.83" y1="286.05" x2="490.8" y2="286.05" gradientTransform="translate(-3.82 -4.75) rotate(0.43)" gradientUnits="userSpaceOnUse"><stop offset="0" stop-color="#c92a1d"/><stop offset="1" stop-color="#ec3931"/></linearGradient><linearGradient id="linear-gradient-5" x1="388.29" y1="273.68" x2="524.3" y2="273.68" gradientTransform="translate(726.54 -184.66) rotate(89.57)" xlink:href="#linear-gradient-2"/><linearGradient id="linear-gradient-6" x1="395.9" y1="273.69" x2="516.69" y2="273.69" gradientTransform="matrix(1, 0, 0, 1, 0, 0)" xlink:href="#linear-gradient-2"/><linearGradient id="linear-gradient-7" x1="86.85" y1="417.33" x2="156.87" y2="417.33" gradientUnits="userSpaceOnUse"><stop offset="0" stop-color="#db1162"/><stop offset="1" stop-color="#ff6817"/></linearGradient><linearGradient id="linear-gradient-8" x1="124.67" y1="374.04" x2="147.85" y2="374.04" xlink:href="#linear-gradient-7"/><linearGradient id="linear-gradient-9" x1="124.67" y1="381.04" x2="149.79" y2="381.04" xlink:href="#linear-gradient-7"/><linearGradient id="linear-gradient-10" x1="124.67" y1="387.6" x2="147.85" y2="387.6" xlink:href="#linear-gradient-7"/><linearGradient id="linear-gradient-11" x1="124.67" y1="394.59" x2="149.79" y2="394.59" xlink:href="#linear-gradient-7"/><linearGradient id="linear-gradient-12" x1="104.76" y1="457.22" x2="109.65" y2="457.22" xlink:href="#linear-gradient-7"/><linearGradient id="linear-gradient-13" x1="124.64" y1="455.45" x2="129.53" y2="455.45" xlink:href="#linear-gradient-7"/><linearGradient id="linear-gradient-14" x1="144.52" y1="456.81" x2="149.41" y2="456.81" xlink:href="#linear-gradient-7"/><linearGradient id="linear-gradient-15" x1="97.15" y1="418.3" x2="146.82" y2="418.3" xlink:href="#linear-gradient-7"/><linearGradient id="linear-gradient-16" x1="114.23" y1="-186.81" x2="114.23" y2="-158.96" gradientTransform="translate(281.65 426.33) rotate(-37.5)" gradientUnits="userSpaceOnUse"><stop offset="0" stop-color="#999"/><stop offset="0.69" stop-color="#fff" stop-opacity="0"/></linearGradient><linearGradient id="linear-gradient-17" x1="433.34" y1="107.42" x2="544.89" y2="107.42" gradientUnits="userSpaceOnUse"><stop offset="0" stop-color="#d35400"/><stop offset="1" stop-color="#ffb62d"/></linearGradient><linearGradient id="linear-gradient-18" x1="433.34" y1="65.26" x2="472.18" y2="65.26" xlink:href="#linear-gradient-17"/><linearGradient id="linear-gradient-19" x1="444.78" y1="58.92" x2="527.75" y2="58.92" xlink:href="#linear-gradient"/><linearGradient id="linear-gradient-20" x1="523.53" y1="66.15" x2="541.25" y2="66.15" xlink:href="#linear-gradient-17"/><linearGradient id="linear-gradient-21" x1="523.24" y1="112.07" x2="537.68" y2="112.07" xlink:href="#linear-gradient"/><linearGradient id="linear-gradient-22" x1="414.98" y1="132.01" x2="467.26" y2="132.01" xlink:href="#linear-gradient"/><linearGradient id="linear-gradient-23" x1="424.01" y1="131.81" x2="458.55" y2="131.81" xlink:href="#linear-gradient"/><linearGradient id="linear-gradient-24" x1="238.01" y1="389.12" x2="354.19" y2="389.12" gradientTransform="matrix(1, 0, 0, 1, 0, 0)" xlink:href="#linear-gradient-2"/><linearGradient id="linear-gradient-25" x1="315.91" y1="418" x2="321.95" y2="418" gradientTransform="matrix(1, 0, 0, 1, 0, 0)" xlink:href="#linear-gradient-4"/><linearGradient id="linear-gradient-26" x1="324.98" y1="418" x2="331.02" y2="418" gradientTransform="matrix(1, 0, 0, 1, 0, 0)" xlink:href="#linear-gradient-4"/><linearGradient id="linear-gradient-27" x1="334.04" y1="418" x2="340.09" y2="418" gradientTransform="matrix(1, 0, 0, 1, 0, 0)" xlink:href="#linear-gradient-4"/><linearGradient id="linear-gradient-28" x1="343.11" y1="418" x2="349.15" y2="418" gradientTransform="matrix(1, 0, 0, 1, 0, 0)" xlink:href="#linear-gradient-4"/><linearGradient id="linear-gradient-29" x1="292.99" y1="404.67" x2="344.21" y2="404.67" gradientTransform="matrix(1, 0, 0, 1, 0, 0)" xlink:href="#linear-gradient-4"/><linearGradient id="linear-gradient-30" x1="263.93" y1="389.12" x2="380.12" y2="389.12" xlink:href="#linear-gradient"/><linearGradient id="linear-gradient-31" x1="293.46" y1="369.3" x2="314.81" y2="369.3" xlink:href="#linear-gradient-17"/><linearGradient id="linear-gradient-32" x1="278.21" y1="369.3" x2="296.51" y2="369.3" xlink:href="#linear-gradient-17"/><linearGradient id="linear-gradient-33" x1="349.15" y1="369.3" x2="374.22" y2="369.3" gradientTransform="matrix(1, 0, 0, 1, 0, 0)" xlink:href="#linear-gradient-2"/><linearGradient id="linear-gradient-34" x1="274.04" y1="420.35" x2="289.56" y2="420.35" xlink:href="#linear-gradient-17"/><linearGradient id="linear-gradient-35" x1="301.07" y1="420.35" x2="316.58" y2="420.35" xlink:href="#linear-gradient-17"/><linearGradient id="linear-gradient-36" x1="328.09" y1="420.35" x2="343.6" y2="420.35" xlink:href="#linear-gradient-17"/><linearGradient id="linear-gradient-37" x1="350.01" y1="432.69" x2="398.42" y2="432.69" gradientTransform="matrix(1, 0, 0, 1, 0, 0)" xlink:href="#linear-gradient-2"/><linearGradient id="linear-gradient-38" x1="15.93" y1="80.63" x2="172.49" y2="80.63" gradientUnits="userSpaceOnUse"><stop offset="0" stop-color="#0562e8"/><stop offset="1" stop-color="#0562e8"/></linearGradient><linearGradient id="linear-gradient-39" x1="228.83" y1="52.77" x2="282.26" y2="52.77" xlink:href="#linear-gradient-38"/><linearGradient id="linear-gradient-40" x1="29.53" y1="213" x2="301.9" y2="213" xlink:href="#linear-gradient-38"/><linearGradient id="linear-gradient-41" x1="54.59" y1="63.19" x2="235.57" y2="63.19" xlink:href="#linear-gradient-38"/><linearGradient id="linear-gradient-42" x1="40.28" y1="190.02" x2="77.02" y2="190.02" xlink:href="#linear-gradient-38"/><linearGradient id="linear-gradient-43" x1="258.77" y1="90.98" x2="263.26" y2="90.98" xlink:href="#linear-gradient-38"/><linearGradient id="linear-gradient-44" x1="106.1" y1="206.73" x2="277.56" y2="206.73" xlink:href="#linear-gradient-38"/><linearGradient id="linear-gradient-45" x1="206.58" y1="267.14" x2="212.11" y2="267.14" xlink:href="#linear-gradient-38"/><linearGradient id="linear-gradient-46" x1="55.17" y1="229.05" x2="59.37" y2="229.05" xlink:href="#linear-gradient-38"/><linearGradient id="linear-gradient-47" x1="48.84" y1="219.9" x2="52.68" y2="219.9" xlink:href="#linear-gradient-38"/><linearGradient id="linear-gradient-48" x1="35.11" y1="189.47" x2="37.71" y2="189.47" xlink:href="#linear-gradient-38"/><linearGradient id="linear-gradient-49" x1="70.19" y1="245.47" x2="75" y2="245.47" xlink:href="#linear-gradient-38"/><linearGradient id="linear-gradient-50" x1="43.36" y1="210.21" x2="46.81" y2="210.21" xlink:href="#linear-gradient-38"/><linearGradient id="linear-gradient-51" x1="38.77" y1="200.03" x2="41.8" y2="200.03" xlink:href="#linear-gradient-38"/><linearGradient id="linear-gradient-52" x1="196.05" y1="271.24" x2="201.68" y2="271.24" xlink:href="#linear-gradient-38"/><linearGradient id="linear-gradient-53" x1="174.18" y1="276.59" x2="179.89" y2="276.59" xlink:href="#linear-gradient-38"/><linearGradient id="linear-gradient-54" x1="185.23" y1="274.39" x2="190.92" y2="274.39" xlink:href="#linear-gradient-38"/><linearGradient id="linear-gradient-55" x1="78.75" y1="252.61" x2="83.82" y2="252.61" xlink:href="#linear-gradient-38"/><linearGradient id="linear-gradient-56" x1="87.93" y1="258.96" x2="93.21" y2="258.96" xlink:href="#linear-gradient-38"/><linearGradient id="linear-gradient-57" x1="107.87" y1="268.86" x2="111.88" y2="268.86" xlink:href="#linear-gradient-38"/><linearGradient id="linear-gradient-58" x1="97.66" y1="264.48" x2="103.11" y2="264.48" xlink:href="#linear-gradient-38"/><linearGradient id="linear-gradient-59" x1="62.3" y1="237.59" x2="66.83" y2="237.59" xlink:href="#linear-gradient-38"/><linearGradient id="linear-gradient-60" x1="55.47" y1="72.32" x2="59.68" y2="72.32" xlink:href="#linear-gradient-38"/><linearGradient id="linear-gradient-61" x1="70.53" y1="55.93" x2="75.35" y2="55.93" xlink:href="#linear-gradient-38"/><linearGradient id="linear-gradient-62" x1="62.63" y1="63.78" x2="67.16" y2="63.78" xlink:href="#linear-gradient-38"/><linearGradient id="linear-gradient-63" x1="79.11" y1="49.11" x2="82.96" y2="49.11" xlink:href="#linear-gradient-38"/><linearGradient id="linear-gradient-64" x1="130.27" y1="26.09" x2="135.44" y2="26.09" xlink:href="#linear-gradient-38"/><linearGradient id="linear-gradient-65" x1="163.07" y1="277.81" x2="168.69" y2="277.81" xlink:href="#linear-gradient-38"/><linearGradient id="linear-gradient-66" x1="49.09" y1="81.47" x2="52.95" y2="81.47" xlink:href="#linear-gradient-38"/><linearGradient id="linear-gradient-67" x1="43.56" y1="91.16" x2="47.04" y2="91.16" xlink:href="#linear-gradient-38"/><linearGradient id="linear-gradient-68" x1="32.46" y1="122.76" x2="34.63" y2="122.76" xlink:href="#linear-gradient-38"/><linearGradient id="linear-gradient-69" x1="38.92" y1="101.33" x2="41.98" y2="101.33" xlink:href="#linear-gradient-38"/><linearGradient id="linear-gradient-70" x1="35.21" y1="111.89" x2="37.83" y2="111.89" xlink:href="#linear-gradient-38"/><linearGradient id="linear-gradient-71" x1="279.15" y1="184.57" x2="281.55" y2="184.57" xlink:href="#linear-gradient-38"/><linearGradient id="linear-gradient-72" x1="271.16" y1="96.68" x2="274.41" y2="96.68" xlink:href="#linear-gradient-38"/><linearGradient id="linear-gradient-73" x1="252.39" y1="68.43" x2="256.75" y2="68.43" xlink:href="#linear-gradient-38"/><linearGradient id="linear-gradient-74" x1="216.73" y1="262.12" x2="222.09" y2="262.12" xlink:href="#linear-gradient-38"/><linearGradient id="linear-gradient-75" x1="259.46" y1="77.29" x2="263.48" y2="77.29" xlink:href="#linear-gradient-38"/><linearGradient id="linear-gradient-76" x1="152.38" y1="23.67" x2="158.03" y2="23.67" xlink:href="#linear-gradient-38"/><linearGradient id="linear-gradient-77" x1="140.86" y1="24.41" x2="146.83" y2="24.41" xlink:href="#linear-gradient-38"/><linearGradient id="linear-gradient-78" x1="163.63" y1="23.93" x2="169.31" y2="23.93" xlink:href="#linear-gradient-38"/><linearGradient id="linear-gradient-79" x1="196.68" y1="30.7" x2="202.31" y2="30.7" xlink:href="#linear-gradient-38"/><linearGradient id="linear-gradient-80" x1="185.84" y1="27.46" x2="191.54" y2="27.46" xlink:href="#linear-gradient-38"/><linearGradient id="linear-gradient-81" x1="174.8" y1="25.2" x2="180.51" y2="25.2" xlink:href="#linear-gradient-38"/><linearGradient id="linear-gradient-82" x1="265.73" y1="86.73" x2="269.37" y2="86.73" xlink:href="#linear-gradient-38"/><linearGradient id="linear-gradient-83" x1="251.87" y1="233.86" x2="256.26" y2="233.86" xlink:href="#linear-gradient-38"/><linearGradient id="linear-gradient-84" x1="259" y1="225.01" x2="263.04" y2="225.01" xlink:href="#linear-gradient-38"/><linearGradient id="linear-gradient-85" x1="265.34" y1="215.59" x2="269.01" y2="215.59" xlink:href="#linear-gradient-38"/><linearGradient id="linear-gradient-86" x1="226.38" y1="256.24" x2="231.56" y2="256.24" xlink:href="#linear-gradient-38"/><linearGradient id="linear-gradient-87" x1="270.84" y1="205.66" x2="274.12" y2="205.66" xlink:href="#linear-gradient-38"/><linearGradient id="linear-gradient-88" x1="235.5" y1="249.53" x2="240.45" y2="249.53" xlink:href="#linear-gradient-38"/><linearGradient id="linear-gradient-89" x1="244.02" y1="242.05" x2="248.71" y2="242.05" xlink:href="#linear-gradient-38"/><linearGradient id="linear-gradient-90" x1="281.98" y1="128.77" x2="283.88" y2="128.77" xlink:href="#linear-gradient-38"/><linearGradient id="linear-gradient-91" x1="275.45" y1="195.29" x2="278.31" y2="195.29" xlink:href="#linear-gradient-38"/><linearGradient id="linear-gradient-92" x1="275.71" y1="107.06" x2="278.52" y2="107.06" xlink:href="#linear-gradient-38"/><linearGradient id="linear-gradient-93" x1="279.32" y1="117.79" x2="281.68" y2="117.79" xlink:href="#linear-gradient-38"/><linearGradient id="linear-gradient-94" x1="283.68" y1="139.93" x2="285.1" y2="139.93" xlink:href="#linear-gradient-38"/><linearGradient id="linear-gradient-95" x1="281.89" y1="173.58" x2="283.81" y2="173.58" xlink:href="#linear-gradient-38"/><linearGradient id="linear-gradient-96" x1="283.64" y1="162.43" x2="285.08" y2="162.43" xlink:href="#linear-gradient-38"/><linearGradient id="linear-gradient-97" x1="284.4" y1="151.18" x2="285.37" y2="151.18" xlink:href="#linear-gradient-38"/><linearGradient id="linear-gradient-98" x1="49.46" y1="150.8" x2="268.38" y2="150.8" gradientTransform="translate(261.23 -42.92) rotate(74.34)" xlink:href="#linear-gradient"/><linearGradient id="linear-gradient-99" x1="63.8" y1="216.84" x2="245.12" y2="216.84" xlink:href="#linear-gradient-17"/><linearGradient id="linear-gradient-100" x1="245.12" y1="211.26" x2="259.88" y2="211.26" xlink:href="#linear-gradient-17"/><linearGradient id="linear-gradient-101" x1="63.8" y1="207.02" x2="259.88" y2="207.02" xlink:href="#linear-gradient-17"/><linearGradient id="linear-gradient-102" x1="81.43" y1="205.69" x2="237.61" y2="205.69" xlink:href="#linear-gradient-17"/><linearGradient id="linear-gradient-103" x1="237.61" y1="201.69" x2="248.2" y2="201.69" xlink:href="#linear-gradient-17"/><linearGradient id="linear-gradient-104" x1="81.43" y1="197.44" x2="248.2" y2="197.44" xlink:href="#linear-gradient-17"/><linearGradient id="linear-gradient-105" x1="95.55" y1="160.68" x2="117.78" y2="160.68" xlink:href="#linear-gradient-17"/><linearGradient id="linear-gradient-106" x1="117.78" y1="158.45" x2="123.67" y2="158.45" xlink:href="#linear-gradient-17"/><linearGradient id="linear-gradient-107" x1="95.55" y1="119.55" x2="123.67" y2="119.55" xlink:href="#linear-gradient-17"/><linearGradient id="linear-gradient-108" x1="150.73" y1="160.68" x2="172.96" y2="160.68" xlink:href="#linear-gradient-17"/><linearGradient id="linear-gradient-109" x1="172.96" y1="158.45" x2="178.85" y2="158.45" xlink:href="#linear-gradient-17"/><linearGradient id="linear-gradient-110" x1="150.73" y1="119.55" x2="178.85" y2="119.55" xlink:href="#linear-gradient-17"/><linearGradient id="linear-gradient-111" x1="205.91" y1="160.68" x2="228.14" y2="160.68" xlink:href="#linear-gradient-17"/><linearGradient id="linear-gradient-112" x1="228.14" y1="158.45" x2="234.03" y2="158.45" xlink:href="#linear-gradient-17"/><linearGradient id="linear-gradient-113" x1="205.91" y1="119.55" x2="234.03" y2="119.55" xlink:href="#linear-gradient-17"/><linearGradient id="linear-gradient-114" x1="63.8" y1="121" x2="245.12" y2="121" xlink:href="#linear-gradient-17"/><linearGradient id="linear-gradient-115" x1="245.12" y1="115.42" x2="259.88" y2="115.42" xlink:href="#linear-gradient-17"/><linearGradient id="linear-gradient-116" x1="63.8" y1="111.17" x2="259.88" y2="111.17" xlink:href="#linear-gradient-17"/><linearGradient id="linear-gradient-117" x1="63.8" y1="94.74" x2="245.12" y2="94.74" xlink:href="#linear-gradient-17"/><linearGradient id="linear-gradient-118" x1="154.46" y1="62.38" x2="169.22" y2="62.38" xlink:href="#linear-gradient-17"/><linearGradient id="linear-gradient-119" x1="63.8" y1="84.92" x2="169.22" y2="84.92" xlink:href="#linear-gradient-17"/><linearGradient id="linear-gradient-120" x1="245.12" y1="115.42" x2="259.88" y2="115.42" xlink:href="#linear-gradient-17"/><linearGradient id="linear-gradient-121" x1="154.46" y1="84.92" x2="259.88" y2="84.92" xlink:href="#linear-gradient-17"/><linearGradient id="linear-gradient-122" x1="63.8" y1="121" x2="245.12" y2="121" xlink:href="#linear-gradient-17"/><linearGradient id="linear-gradient-123" x1="140.05" y1="94.74" x2="168.88" y2="94.74" xlink:href="#linear-gradient-17"/><linearGradient id="linear-gradient-124" x1="157.81" y1="220.05" x2="157.81" y2="236.68" gradientUnits="userSpaceOnUse"><stop offset="0" stop-color="gray"/><stop offset="0.69" stop-color="#fff" stop-opacity="0"/></linearGradient></defs><path class="cls-1" d="M628.9,150.8c0,143.22-64.07,271.48-165.11,357.68H18.94V271a184.16,184.16,0,0,0,140,64.28c101.9,0,184.51-82.61,184.51-184.51A184,184,0,0,0,284.32,15.44H609.11A469.72,469.72,0,0,1,628.9,150.8Z"/><circle class="cls-2" cx="321.95" cy="392.15" r="75.18"/><circle class="cls-2" cx="121.34" cy="417.33" r="75.18"/><circle class="cls-2" cx="463.95" cy="277.52" r="75.18"/><circle class="cls-2" cx="487" cy="107.06" r="75.18"/><g class="cls-3"><rect class="cls-4" x="428.79" y="216.93" width="73.34" height="135.45" transform="translate(177.31 747.97) rotate(-89.57)"/><path class="cls-2" d="M402,251.14l127.45,1-.5,66.07-127.45-1Z"/><path class="cls-5" d="M405.23,296.72a17.87,17.87,0,0,1,17.57,17.8l85.51.64A17.87,17.87,0,0,1,525.67,298l.19-25.23a17.86,17.86,0,0,1-17.42-17.83v-.1l-85.2-.64c0,.14,0,.27,0,.42a17.89,17.89,0,0,1-17.84,17.57h-.16l-.19,24.58Z"/><path class="cls-2" d="M487,284.82a21.54,21.54,0,1,0-21.7,21.38A21.56,21.56,0,0,0,487,284.82Z"/><path class="cls-6" d="M445.84,284.69a19.49,19.49,0,1,1,19.34,19.63A19.5,19.5,0,0,1,445.84,284.69Z"/><rect class="cls-2" x="496.58" y="279.96" width="2.77" height="9.88" transform="translate(209.32 780.71) rotate(-89.57)"/><rect class="cls-2" x="510.01" y="280.06" width="2.77" height="9.88" transform="translate(222.55 794.25) rotate(-89.57)"/><rect class="cls-2" x="419.51" y="279.39" width="2.77" height="9.88" transform="translate(133.41 703.07) rotate(-89.57)"/><rect class="cls-2" x="432.95" y="279.49" width="2.77" height="9.88" transform="translate(146.65 716.61) rotate(-89.57)"/></g><rect class="cls-7" x="419.63" y="205.96" width="73.34" height="135.46" transform="translate(179.19 727.91) rotate(-89.57)"/><path class="cls-2" d="M392.82,240.17l127.45,1-.5,66.08-127.45-1Z"/><path class="cls-8" d="M396.07,285.74a17.87,17.87,0,0,1,17.56,17.81l85.51.64A17.87,17.87,0,0,1,516.5,287l.19-25.23a17.86,17.86,0,0,1-17.42-17.83.31.31,0,0,1,0-.1l-85.21-.64c0,.13,0,.27,0,.41a17.89,17.89,0,0,1-17.84,17.58l-.16,0-.19,24.59Z"/><path class="cls-2" d="M477.83,273.84a21.54,21.54,0,1,0-21.7,21.39A21.57,21.57,0,0,0,477.83,273.84Z"/><path class="cls-2" d="M436.68,273.71A19.48,19.48,0,1,1,456,293.35,19.48,19.48,0,0,1,436.68,273.71Z"/><rect class="cls-2" x="487.41" y="268.99" width="2.77" height="9.88" transform="translate(211.2 760.65) rotate(-89.57)"/><rect class="cls-2" x="500.85" y="269.09" width="2.77" height="9.88" transform="translate(224.44 774.18) rotate(-89.57)"/><rect class="cls-2" x="410.35" y="268.4" width="2.77" height="9.88" transform="translate(135.29 683.01) rotate(-89.57)"/><rect class="cls-2" x="423.78" y="268.51" width="2.77" height="9.88" transform="translate(148.53 696.54) rotate(-89.57)"/><path class="cls-9" d="M464.32,266.73v-.82a3.74,3.74,0,0,0-.85-2.46,2.63,2.63,0,0,0-2.1-1.05h-4.76v-3.31h-2.06v3.31h-4.76a2.63,2.63,0,0,0-2.1,1.05,3.74,3.74,0,0,0-.85,2.46v4.79a3.72,3.72,0,0,0,.85,2.46,2.6,2.6,0,0,0,2.1,1h11.58c.51,0,.89.5.89,1.15v4.82c0,.65-.38,1.15-.89,1.15H449.79c-.51,0-.89-.5-.89-1.15v-.82h-2.06v.82a3.72,3.72,0,0,0,.85,2.46,2.6,2.6,0,0,0,2.1,1.05h4.76V287h2.06v-3.31h4.76a2.6,2.6,0,0,0,2.1-1.05,3.72,3.72,0,0,0,.85-2.46v-4.82a3.7,3.7,0,0,0-.85-2.46,2.6,2.6,0,0,0-2.1-1H449.79c-.51,0-.89-.5-.89-1.15v-4.79c0-.65.38-1.14.89-1.14h11.58c.51,0,.89.49.89,1.14v.82Z"/><rect class="cls-10" x="84.58" y="358.5" width="70.02" height="122.12" rx="11.26"/><rect class="cls-11" x="86.85" y="356.27" width="70.02" height="122.12" rx="11.26"/><path class="cls-12" d="M154.51,369.41v96a10.9,10.9,0,0,1-10.9,10.9h-43.5A10.91,10.91,0,0,1,89.2,465.37v-96a10.91,10.91,0,0,1,10.91-10.9h6v3a3.51,3.51,0,0,0,3.51,3.5h24.58a3.5,3.5,0,0,0,3.5-3.5v-3h5.95A10.9,10.9,0,0,1,154.51,369.41Z"/><rect class="cls-13" x="98.38" y="470.52" width="47.22" height="2.44" rx="1.22"/><rect class="cls-14" x="94.97" y="371.93" width="27.25" height="27.25" rx="6.83"/><rect class="cls-15" x="124.67" y="373.55" width="23.18" height="0.98" rx="0.49"/><rect class="cls-16" x="124.67" y="380.55" width="25.12" height="0.98" rx="0.49"/><rect class="cls-17" x="124.67" y="387.11" width="23.18" height="0.98" rx="0.49"/><rect class="cls-18" x="124.67" y="394.1" width="25.12" height="0.98" rx="0.49"/><rect class="cls-14" x="94.75" y="443.11" width="4.88" height="21.71" rx="2.44"/><rect class="cls-19" x="104.76" y="449.62" width="4.88" height="15.2" rx="2.44"/><rect class="cls-14" x="114.63" y="437.68" width="4.88" height="27.14" rx="2.44"/><rect class="cls-20" x="124.64" y="446.09" width="4.88" height="18.73" rx="2.44"/><path class="cls-14" d="M137,464.82h0a2.56,2.56,0,0,1-2.51-2.44V445.55a2.55,2.55,0,0,1,2.51-2.44h0a2.45,2.45,0,0,1,2.45,2.44v16.83A2.45,2.45,0,0,1,137,464.82Z"/><rect class="cls-21" x="144.52" y="448.81" width="4.88" height="16.01" rx="2.44"/><rect class="cls-22" x="97.15" y="404.2" width="49.67" height="28.19" rx="2.04"/><path class="cls-2" d="M106.11,424.15V411.09h5.21a4.65,4.65,0,0,1,3.14,1,3.73,3.73,0,0,1,0,5.36,4.61,4.61,0,0,1-3.13,1h-3.71v5.74Zm1.5-7h3.58a3.28,3.28,0,0,0,2.18-.63,2.55,2.55,0,0,0,0-3.57,3.28,3.28,0,0,0-2.18-.62h-3.58Z"/><path class="cls-2" d="M121.09,424.28a3.93,3.93,0,0,1-2.15-.58,3.68,3.68,0,0,1-1.43-1.65,5.81,5.81,0,0,1-.51-2.52,5.72,5.72,0,0,1,.52-2.53,3.93,3.93,0,0,1,1.44-1.69,3.75,3.75,0,0,1,2.13-.61,3.6,3.6,0,0,1,2.15.63,3.06,3.06,0,0,1,1.19,1.78l-.22.14v-2.33h1.47v9.23h-1.47v-2.38l.22.11a3.09,3.09,0,0,1-1.19,1.78A3.66,3.66,0,0,1,121.09,424.28Zm.3-1.23a2.51,2.51,0,0,0,2.09-.93,4.12,4.12,0,0,0,.73-2.63,4,4,0,0,0-.74-2.62,2.54,2.54,0,0,0-2.08-.92,2.59,2.59,0,0,0-2.12.94,4.09,4.09,0,0,0-.76,2.64,4,4,0,0,0,.76,2.6A2.61,2.61,0,0,0,121.39,423.05Z"/><path class="cls-2" d="M131.5,424.63l-4.15-9.71h1.56l3.34,8.15Zm-3.38,3.69-.31-1.16a7.15,7.15,0,0,0,1.42-.47,2.89,2.89,0,0,0,1-.69,3.7,3.7,0,0,0,.69-1.11l.59-1.36.33-.46,3.37-8.15h1.49L132.36,425a6.18,6.18,0,0,1-1.12,1.79,4.27,4.27,0,0,1-1.4,1A7.51,7.51,0,0,1,128.12,428.32Z"/><polygon class="cls-23" points="282.59 209.94 264.87 234.74 245.13 221.08 259.88 209.94 282.59 209.94"/><path class="cls-24" d="M433.34,136.72V71.31a2.36,2.36,0,0,1,.22.38c1.15,3.45,4.09,5.29,7.83,5.28,30.81-.08,61.62,0,92.44,0,.41,0,.82,0,1.23,0,4.34.15,7.64,1.89,9.26,6.15a.94.94,0,0,0,.48.59q0,7.88,0,15.74c-4.64,0-9.28,0-13.92,0a13,13,0,0,0-9.56,4,12.57,12.57,0,0,0-2.67,13.12,12.4,12.4,0,0,0,11.38,8.06l14.82,0-.09,11.22a3,3,0,0,0-.16.42c-.89,4.51-5,7.28-9.6,7.27-30.79-.1-61.59-.05-92.38-.05a8.91,8.91,0,0,1-8.74-5.84C433.78,137.3,433.74,136.89,433.34,136.72Z"/><path class="cls-2" d="M544.8,135.84c.09,2.06.18,4.13-.78,6a9,9,0,0,1-8.58,5.26H443.39a10.63,10.63,0,0,1-5.11-1,8.93,8.93,0,0,1-4.51-5.33c-.09-.27-.1-.61-.43-.73v-3.38c.4.17.44.58.58.92a8.91,8.91,0,0,0,8.74,5.84c30.79,0,61.59,0,92.38.05,4.56,0,8.71-2.76,9.6-7.27A3,3,0,0,1,544.8,135.84Z"/><path class="cls-2" d="M541.22,75.12a9.26,9.26,0,0,1,3.58,8.55.94.94,0,0,1-.48-.59c-1.62-4.26-4.92-6-9.26-6.15-.41,0-.82,0-1.23,0-30.82,0-61.63,0-92.44,0-3.74,0-6.68-1.83-7.83-5.28a2.36,2.36,0,0,0-.22-.38v-4c.08.2.18.41.25.62,1.22,3.77,3.52,5.45,7.49,5.45h3.7l15.27,0h60l7.68,0c2.08,0,4.16,0,6.24,0A11.88,11.88,0,0,1,541.22,75.12Z"/><path class="cls-25" d="M444.78,73.32h-3.7c-4,0-6.27-1.68-7.49-5.45-.07-.21-.17-.42-.25-.62V64.34c.59-.49.52-1.28.84-1.9a9,9,0,0,1,8.48-5.23c9.84,0,19.68,0,29.52,0-.44.28-.87.57-1.32.84q-12,7-24,14A8.92,8.92,0,0,0,444.78,73.32Z"/><path class="cls-26" d="M544.84,99.41c2.79.65,3.6,1.67,3.6,4.53,0,5.62,0,11.24,0,16.86a3.56,3.56,0,0,1-3.54,3.82l-14.82,0a12.4,12.4,0,0,1-11.38-8.06,12.57,12.57,0,0,1,2.67-13.12,13,13,0,0,1,9.56-4C535.56,99.38,540.2,99.41,544.84,99.41Zm-21.6,12.64a7.21,7.21,0,0,0,7.18,7.25,7.24,7.24,0,1,0,0-14.47A7.18,7.18,0,0,0,523.24,112.05Z"/><path class="cls-27" d="M444.78,73.32A8.92,8.92,0,0,1,446.84,72q12-7,24-14c.45-.27.88-.56,1.32-.84l15.43-9c1.78-1,3.55-2.09,5.34-3.1a3.64,3.64,0,0,1,5.43,1.46c1.6,2.7,3.21,5.4,4.72,8.16.47.85.94.91,1.77.68,4.26-1.17,8.52-2.28,12.79-3.41,2.78-.74,4.46.22,5.24,3,.2.72.42,1.44.63,2.16q.83,3.14,1.64,6.29c.84,3.29,1.88,6.53,2.58,9.86l-7.68,0c-.88-4-2-8-3.15-11.92a1.58,1.58,0,0,0-2.13-1.11c-1.67.43-3.34.84-5,1.32-2.73.79-2.44.22-1.05,2.85a1.09,1.09,0,0,0,1.48.59c.92-.3,1.88-.48,2.81-.77s1.16,0,1.36.8c.7,2.75,1.45,5.49,2.19,8.24H505.27c-3.55-6.16-7.08-12.33-10.65-18.48-.8-1.37-1.73-1.55-3.12-.75q-5,2.85-9.91,5.73c-1.22.71-1.62,1.72-1.1,2.69s1.51,1.14,2.82.4c2.63-1.5,5.26-3,7.87-4.55.79-.46,1.22-.35,1.68.46,2.76,4.85,5.56,9.67,8.34,14.5H482.14a2.74,2.74,0,0,0-.89-1.13c-3.68-3.32-7.94-4.85-12.89-3.9a12.85,12.85,0,0,0-8.31,5Z"/><path class="cls-28" d="M527.75,73.34c-.7-3.33-1.74-6.57-2.58-9.86q-.81-3.15-1.64-6.29c3.17.08,6.35-.12,9.52.11a9,9,0,0,1,8.18,8.85c0,3,0,6,0,9a11.88,11.88,0,0,0-7.23-1.8C531.91,73.37,529.83,73.34,527.75,73.34Z"/><path class="cls-2" d="M501.2,73.29c-2.78-4.83-5.58-9.65-8.34-14.5-.46-.81-.89-.92-1.68-.46-2.61,1.55-5.24,3.05-7.87,4.55-1.31.74-2.29.58-2.82-.4s-.12-2,1.1-2.69q4.95-2.88,9.91-5.73c1.39-.8,2.32-.62,3.12.75,3.57,6.15,7.1,12.32,10.65,18.48Z"/><path class="cls-2" d="M460.05,73.29a12.85,12.85,0,0,1,8.31-5c4.95-1,9.21.58,12.89,3.9a2.74,2.74,0,0,1,.89,1.13Z"/><path class="cls-2" d="M516.59,73.3c-.74-2.75-1.49-5.49-2.19-8.24-.2-.8-.57-1-1.36-.8s-1.89.47-2.81.77a1.09,1.09,0,0,1-1.48-.59c-1.39-2.63-1.68-2.06,1.05-2.85,1.65-.48,3.32-.89,5-1.32a1.58,1.58,0,0,1,2.13,1.11c1.14,3.94,2.27,7.9,3.15,11.92Z"/><path class="cls-29" d="M523.24,112.05a7.18,7.18,0,0,1,7.21-7.22,7.24,7.24,0,1,1,0,14.47A7.21,7.21,0,0,1,523.24,112.05Z"/><path class="cls-2" d="M417.21,132a23.91,23.91,0,1,0,23.91-23.91A23.94,23.94,0,0,0,417.21,132Z"/><path class="cls-30" d="M441.12,158.16A26.15,26.15,0,1,1,467.26,132,26.18,26.18,0,0,1,441.12,158.16Zm0-49.42A23.28,23.28,0,1,0,464.39,132,23.3,23.3,0,0,0,441.12,108.74Z"/><path class="cls-31" d="M458.55,131.8a17.27,17.27,0,1,1-17.27-17.27A17.28,17.28,0,0,1,458.55,131.8Z"/><path class="cls-2" d="M444.78,139.09h-8.6c-.44,0-.76-.42-.76-1v-.7h-1.76v.7a3.21,3.21,0,0,0,.72,2.1,2.26,2.26,0,0,0,1.8.9h4.06v2.82H442v-2.82h4.07a2.24,2.24,0,0,0,1.79-.9,3.15,3.15,0,0,0,.72-2.1V134a3.15,3.15,0,0,0-.72-2.1,2.21,2.21,0,0,0-1.79-.9h-9.89c-.44,0-.76-.42-.76-1v-4.09c0-.55.32-1,.76-1h9.89c.43,0,.76.42.76,1v.7h1.75v-.7a3.15,3.15,0,0,0-.72-2.1,2.24,2.24,0,0,0-1.79-.9H442V120.1h-1.76v2.82h-4.06a2.26,2.26,0,0,0-1.8.9,3.21,3.21,0,0,0-.72,2.1V130a3.21,3.21,0,0,0,.72,2.1,2.23,2.23,0,0,0,1.8.9h9.89c.43,0,.76.42.76,1v4.12c0,.56-.33,1-.76,1h-1.29"/><rect class="cls-32" x="238.01" y="352.52" width="116.18" height="73.2" rx="5.05"/><rect class="cls-33" x="238.01" y="359.24" width="116.18" height="12.09"/><rect class="cls-34" x="241.36" y="376.7" width="75.22" height="2.69"/><rect class="cls-34" x="241.36" y="381.4" width="75.22" height="2.69"/><rect class="cls-34" x="241.36" y="386.1" width="75.22" height="2.69"/><rect class="cls-34" x="241.36" y="390.8" width="45.67" height="2.69"/><rect class="cls-35" x="315.91" y="414.98" width="6.04" height="6.04"/><rect class="cls-36" x="324.98" y="414.98" width="6.04" height="6.04"/><rect class="cls-37" x="334.04" y="414.98" width="6.04" height="6.04"/><rect class="cls-38" x="343.11" y="414.98" width="6.04" height="6.04"/><path class="cls-39" d="M293.8,410c.31-2.21.68-4.41,1-6.61a8.76,8.76,0,0,1,1.07-3.3,3.49,3.49,0,0,1,1.39-1.27,3.19,3.19,0,0,1,1.92-.28,4.59,4.59,0,0,1,3.06,2.09,8.77,8.77,0,0,1,1.15,3.38c.09.57.16,1.13.22,1.69a9.65,9.65,0,0,1,.05,1.8,3.27,3.27,0,0,1-2.52,3.13l-1,.18.13-1a11,11,0,0,1,.49-2.37,4.26,4.26,0,0,1,1.6-2.21,4.06,4.06,0,0,1,2.68-.56c.83.07,1.57.25,2.24.29a8.6,8.6,0,0,0,7.29-3.1l.56-.7.63.63a5.29,5.29,0,0,0,2.84,1.35,22.27,22.27,0,0,0,3.53.27c2.45.07,4.89.16,7.33.19s4.88.07,7.33.11h7.34c-2.44.28-4.88.47-7.32.65s-4.9.28-7.35.37-4.9.09-7.35.09a23.24,23.24,0,0,1-3.78-.19,6.69,6.69,0,0,1-3.7-1.72l1.18-.06a10.09,10.09,0,0,1-8.67,3.74c-.84-.06-1.57-.25-2.24-.31a2.5,2.5,0,0,0-1.66.29c-.9.56-1.25,2-1.46,3.44l-.86-.86a1.28,1.28,0,0,0,.86-.56,2.4,2.4,0,0,0,.43-1.2,18.12,18.12,0,0,0-.16-3.15,7.45,7.45,0,0,0-.85-2.94,3.56,3.56,0,0,0-2.22-1.69,2.31,2.31,0,0,0-2.42,1,8.52,8.52,0,0,0-1.18,2.94C294.89,405.69,294.37,407.86,293.8,410Z"/><rect class="cls-40" x="263.93" y="352.52" width="116.18" height="73.2" rx="5.05"/><path class="cls-2" d="M299.69,410l1.19-6.58a9,9,0,0,1,1.1-3.25,3.43,3.43,0,0,1,1.36-1.22,3,3,0,0,1,1.84-.26,4.52,4.52,0,0,1,3,2,8.4,8.4,0,0,1,1.13,3.33c.09.57.15,1.13.21,1.68a8.66,8.66,0,0,1,.06,1.78,3.14,3.14,0,0,1-2.4,3l-.81.15.1-.86a11.28,11.28,0,0,1,.48-2.35,4.14,4.14,0,0,1,1.53-2.17,4,4,0,0,1,2.63-.57c.82.06,1.57.23,2.24.26a8.5,8.5,0,0,0,7.17-3.24l.63-.84.8.76a5.13,5.13,0,0,0,2.77,1.2,27.62,27.62,0,0,0,3.49.21l7.32.17,14.67.35v.2q-3.65.54-7.32.82c-2.45.22-4.9.36-7.35.44l-3.68.09h-3.68a20.26,20.26,0,0,1-3.82-.27,6.79,6.79,0,0,1-3.77-1.85l1.43-.08a10.22,10.22,0,0,1-8.8,3.6c-.83-.07-1.56-.27-2.24-.34a2.59,2.59,0,0,0-1.72.28c-1,.58-1.33,2.09-1.54,3.51l-.71-.71a1.44,1.44,0,0,0,.95-.62,2.5,2.5,0,0,0,.47-1.26,17.49,17.49,0,0,0-.16-3.19,7.91,7.91,0,0,0-.87-3,3.76,3.76,0,0,0-2.32-1.75,2.46,2.46,0,0,0-2.54,1.08,8.49,8.49,0,0,0-1.14,3L299.89,410Z"/><path class="cls-41" d="M314.75,370.38a10.66,10.66,0,0,1-18.24,6.38,10.67,10.67,0,1,1,18.24-6.38Z"/><path class="cls-42" d="M293.46,369.3a10.61,10.61,0,0,0,3.05,7.46,10.68,10.68,0,1,1,0-14.92A10.59,10.59,0,0,0,293.46,369.3Z"/><rect class="cls-43" x="349.15" y="359.78" width="25.06" height="19.04" rx="3.25"/><rect class="cls-44" x="349.15" y="368.65" width="25.06" height="0.65"/><rect class="cls-44" x="358.41" y="368.98" width="19.04" height="0.65" transform="translate(-1.37 737.23) rotate(-90)"/><rect class="cls-44" x="351.94" y="368.98" width="19.04" height="0.65" transform="translate(-7.84 730.76) rotate(-90)"/><rect class="cls-44" x="345.48" y="368.98" width="19.04" height="0.65" transform="translate(-14.3 724.3) rotate(-90)"/><rect class="cls-45" x="274.04" y="418" width="15.52" height="4.69"/><rect class="cls-46" x="301.07" y="418" width="15.52" height="4.69"/><rect class="cls-47" x="328.09" y="418" width="15.52" height="4.69"/><path class="cls-48" d="M390,402.75V425h-3.31V403.44a12.44,12.44,0,1,0-24.87,0V425h-3.31V402.75a15.75,15.75,0,0,1,31.49,0Z"/><rect class="cls-49" x="350.01" y="410.34" width="48.41" height="44.7" rx="6.55"/><path class="cls-44" d="M383.79,429a9.56,9.56,0,0,1-7.36,9.3v8.21a2.05,2.05,0,0,1-4.1,0v-8.14A9.56,9.56,0,1,1,383.79,429Z"/><path class="cls-50" d="M17,152.5A141.78,141.78,0,0,1,171.45,9.42l1-1c-2.69-.25-5.39-.44-8.11-.54A143,143,0,0,0,16,145.33q-.15,4.08-.07,8.13Z"/><path class="cls-51" d="M281.5,79.1l.76-.71a144.58,144.58,0,0,0-52.63-51.94l-.8.74A142.33,142.33,0,0,1,281.5,79.1Z"/><path class="cls-52" d="M299.76,133.11A141.94,141.94,0,0,1,255.42,255C198,308.18,108,304.74,54.74,247.3a141.4,141.4,0,0,1-24.41-36.23l-.8.74A143,143,0,0,0,301.8,156.26a144.46,144.46,0,0,0-1.08-24Z"/><path class="cls-53" d="M55.7,94.22A117.73,117.73,0,0,1,234.93,61l.64-.7A118.62,118.62,0,0,0,71,71.16,119.8,119.8,0,0,0,54.59,94.22Z"/><path class="cls-54" d="M41.47,144h-1a121.27,121.27,0,0,0,0,12.65,117.83,117.83,0,0,0,36,79.36l.64-.7A117.52,117.52,0,0,1,41.47,144Z"/><path class="cls-55" d="M263.26,94.22q-1.8-3.3-3.79-6.48l-.7.76c1.18,1.88,2.28,3.79,3.34,5.72Z"/><path class="cls-56" d="M277.36,144h-1A117.61,117.61,0,0,1,106.79,256.32l-.69.76A118.68,118.68,0,0,0,277.41,144.93C277.4,144.62,277.37,144.32,277.36,144Z"/><path class="cls-57" d="M207,268.71c1.73-.73,3.46-1.5,5.16-2.3l-.4-.85c-1.68.8-3.41,1.56-5.13,2.28Z"/><path class="cls-58" d="M55.92,226.54l-.75.56c1.12,1.51,2.29,3,3.47,4.45l.73-.59C58.19,229.52,57,228,55.92,226.54Z"/><path class="cls-59" d="M49.64,217.28l-.8.5c1,1.59,2,3.18,3.06,4.73l.78-.53C51.63,220.45,50.61,218.87,49.64,217.28Z"/><path class="cls-60" d="M36,186.64l-.91.27c.53,1.8,1.11,3.61,1.71,5.38l.89-.3C37.11,190.23,36.54,188.43,36,186.64Z"/><path class="cls-61" d="M70.83,243.24l-.64.68c1.36,1.28,2.77,2.55,4.2,3.78L75,247C73.59,245.77,72.18,244.51,70.83,243.24Z"/><path class="cls-62" d="M44.2,207.5l-.84.42c.83,1.67,1.72,3.36,2.63,5l.82-.45C45.91,210.83,45,209.16,44.2,207.5Z"/><path class="cls-63" d="M39.64,197.25l-.87.35c.68,1.74,1.42,3.5,2.18,5.21l.85-.38C41.05,200.73,40.32,199,39.64,197.25Z"/><path class="cls-64" d="M196.34,272.59c1.79-.56,3.58-1.18,5.34-1.82l-.32-.88c-1.75.64-3.53,1.24-5.31,1.81Z"/><path class="cls-65" d="M174.18,276.55l.13.93c1.86-.25,3.73-.53,5.58-.86l-.16-.92C177.89,276,176,276.31,174.18,276.55Z"/><path class="cls-66" d="M185.23,274.6l.2.92c1.83-.41,3.68-.86,5.49-1.34l-.25-.91C188.88,273.75,187,274.2,185.23,274.6Z"/><path class="cls-67" d="M79.33,250.54l-.58.74c1.48,1.16,3,2.3,4.52,3.39l.55-.76C82.3,252.83,80.8,251.69,79.33,250.54Z"/><path class="cls-68" d="M88.45,257.08l-.52.78c1.57,1,3.19,2,4.8,3l.48-.81C91.61,259.09,90,258.1,88.45,257.08Z"/><path class="cls-69" d="M111.75,269.05c-1.18-.46-2.36-.94-3.52-1.43l-.36.87c1.32.56,2.67,1.1,4,1.62Z"/><path class="cls-70" d="M98.1,262.79l-.44.83c1.66.88,3.36,1.74,5,2.54l.4-.84C101.43,264.51,99.75,263.66,98.1,262.79Z"/><path class="cls-71" d="M63,235.22l-.71.62c1.25,1.4,2.55,2.79,3.86,4.13l.67-.66C65.53,238,64.24,236.6,63,235.22Z"/><path class="cls-72" d="M59.68,70.41l-.73-.6c-1.19,1.46-2.36,3-3.48,4.45l.75.56C57.33,73.34,58.5,71.85,59.68,70.41Z"/><path class="cls-73" d="M74.74,53.7c-1.42,1.22-2.84,2.49-4.21,3.77l.64.68c1.37-1.27,2.77-2.52,4.18-3.73Z"/><path class="cls-74" d="M66.49,61.41c-1.31,1.34-2.6,2.72-3.86,4.12l.7.63c1.25-1.39,2.53-2.77,3.83-4.09Z"/><path class="cls-75" d="M82.83,47.35c-1.26.9-2.51,1.83-3.72,2.78l.58.74c1.07-.83,2.17-1.66,3.27-2.46Z"/><path class="cls-76" d="M135.44,26.05l-.17-.92c-1.66.29-3.34.63-5,1l.12.93C132.06,26.69,133.76,26.35,135.44,26.05Z"/><path class="cls-77" d="M163.07,277.52l.12.94c1.83-.09,3.68-.21,5.5-.37l-.08-.93C166.77,277.32,164.91,277.44,163.07,277.52Z"/><path class="cls-78" d="M52.18,78.85c-1.06,1.55-2.1,3.14-3.09,4.74l.8.49c1-1.58,2-3.16,3.06-4.7Z"/><path class="cls-79" d="M46.22,88.45c-.92,1.64-1.81,3.32-2.66,5l.84.43c.84-1.67,1.73-3.33,2.64-5Z"/><path class="cls-80" d="M33.71,119.91c-.45,1.82-.87,3.68-1.25,5.52l.92.19c.38-1.83.79-3.68,1.25-5.49Z"/><path class="cls-81" d="M41.13,98.55c-.77,1.71-1.52,3.46-2.21,5.21l.87.34c.69-1.73,1.43-3.47,2.19-5.17Z"/><path class="cls-82" d="M37,109.06c-.62,1.77-1.2,3.59-1.74,5.39l.9.26c.53-1.78,1.11-3.58,1.72-5.34Z"/><path class="cls-83" d="M280.05,187.41c.54-1.8,1-3.64,1.5-5.46l-.91-.23c-.45,1.81-1,3.63-1.49,5.42Z"/><path class="cls-84" d="M273.55,99.42l.86-.38c-.76-1.71-1.57-3.43-2.41-5.11l-.84.42C272,96,272.8,97.72,273.55,99.42Z"/><path class="cls-85" d="M256,70.87l.73-.59c-1.19-1.45-2.42-2.9-3.66-4.3l-.7.63C253.62,68,254.84,69.43,256,70.87Z"/><path class="cls-86" d="M217.16,263.89c1.66-.87,3.31-1.79,4.93-2.73l-.48-.81c-1.6.93-3.24,1.85-4.88,2.71Z"/><path class="cls-87" d="M262.7,79.85l.78-.52c-1.05-1.55-2.15-3.1-3.27-4.6l-.75.56C260.57,76.78,261.66,78.32,262.7,79.85Z"/><path class="cls-88" d="M158,24.08v-.94c-1.87,0-3.77,0-5.65.11l0,.94C154.28,24.11,156.17,24.08,158,24.08Z"/><path class="cls-89" d="M141,25.19l.27,0c1.85-.24,3.73-.45,5.58-.61l-.08-.93c-1.87.16-3.75.36-5.62.61l-.27,0Z"/><path class="cls-90" d="M169.23,24.6l.08-.94c-1.86-.17-3.76-.3-5.63-.39l-.05.94C165.49,24.3,167.37,24.43,169.23,24.6Z"/><path class="cls-91" d="M202,32.07l.33-.88c-1.76-.66-3.56-1.29-5.34-1.86l-.29.89C198.44,30.79,200.23,31.41,202,32.07Z"/><path class="cls-92" d="M191.29,28.61l.25-.91c-1.8-.5-3.65-1-5.49-1.38l-.21.91C187.67,27.65,189.5,28.11,191.29,28.61Z"/><path class="cls-93" d="M180.34,26.1l.17-.92c-1.85-.34-3.73-.63-5.58-.88l-.13.93C176.64,25.48,178.5,25.77,180.34,26.1Z"/><path class="cls-94" d="M268.55,89.39l.82-.46c-.9-1.64-1.86-3.27-2.84-4.87l-.8.5C266.7,86.14,267.65,87.76,268.55,89.39Z"/><path class="cls-95" d="M252.58,236.3c1.25-1.4,2.49-2.84,3.68-4.28l-.73-.6c-1.18,1.44-2.41,2.87-3.66,4.25Z"/><path class="cls-96" d="M259.75,227.58c1.12-1.5,2.23-3.05,3.29-4.59l-.77-.54c-1.06,1.54-2.16,3.08-3.27,4.56Z"/><path class="cls-97" d="M266.13,218.25c1-1.59,2-3.23,2.88-4.86l-.82-.46c-.91,1.62-1.87,3.25-2.85,4.83Z"/><path class="cls-98" d="M226.89,258.21c1.57-1,3.14-2.08,4.67-3.17l-.55-.76c-1.51,1.07-3.07,2.13-4.63,3.14Z"/><path class="cls-99" d="M271.67,208.4c.85-1.67,1.67-3.39,2.45-5.1l-.86-.39c-.77,1.7-1.58,3.41-2.42,5.07Z"/><path class="cls-100" d="M236.08,251.67c1.47-1.14,2.95-2.34,4.37-3.56l-.61-.72c-1.41,1.21-2.87,2.4-4.34,3.54Z"/><path class="cls-101" d="M244.66,244.35c1.38-1.28,2.74-2.6,4.05-3.94l-.67-.66c-1.3,1.33-2.66,2.65-4,3.91Z"/><path class="cls-102" d="M283,131.63l.93-.15c-.29-1.86-.61-3.73-1-5.56l-.92.18C282.34,127.92,282.67,129.78,283,131.63Z"/><path class="cls-103" d="M276.33,198.1c.69-1.75,1.36-3.53,2-5.31l-.89-.3c-.61,1.76-1.28,3.53-2,5.26Z"/><path class="cls-104" d="M277.63,109.86l.89-.3c-.6-1.77-1.26-3.56-1.94-5.3l-.87.34C276.38,106.33,277,108.1,277.63,109.86Z"/><path class="cls-105" d="M280.77,120.63l.91-.22c-.44-1.82-.93-3.66-1.46-5.46l-.9.26C279.84,117,280.33,118.82,280.77,120.63Z"/><path class="cls-106" d="M285.1,142.71c-.12-1.86-.28-3.75-.49-5.62l-.93.1c.2,1.86.36,3.74.48,5.58Z"/><path class="cls-107" d="M282.81,176.43c.37-1.84.71-3.71,1-5.56l-.92-.14c-.29,1.83-.63,3.69-1,5.51Z"/><path class="cls-108" d="M284.57,165.27c.21-1.86.38-3.75.51-5.62l-.94-.07c-.12,1.86-.29,3.74-.5,5.59Z"/><path class="cls-109" d="M285.34,154c0-1.87,0-3.77,0-5.64l-.93,0c0,1.85,0,3.74,0,5.6Z"/><circle class="cls-110" cx="158.92" cy="150.8" r="109.46" transform="translate(-29.17 263.12) rotate(-74.34)"/><rect class="cls-111" x="63.8" y="212.59" width="181.32" height="8.5"/><polygon class="cls-112" points="259.88 209.94 245.13 221.09 245.13 212.59 259.88 201.44 259.88 209.94"/><polygon class="cls-113" points="245.13 212.59 63.8 212.59 78.56 201.44 259.88 201.44 245.13 212.59"/><rect class="cls-114" x="81.43" y="201.44" width="156.18" height="8.5"/><polygon class="cls-115" points="248.2 201.94 237.61 209.94 237.61 201.44 248.2 193.44 248.2 201.94"/><polygon class="cls-116" points="237.61 201.44 81.43 201.44 92.02 193.44 248.2 193.44 237.61 201.44"/><rect class="cls-117" x="95.55" y="121.78" width="22.23" height="77.8"/><polygon class="cls-118" points="123.67 195.13 117.78 199.58 117.78 121.78 123.67 117.33 123.67 195.13"/><polygon class="cls-119" points="117.78 121.78 95.55 121.78 101.44 117.33 123.67 117.33 117.78 121.78"/><rect class="cls-120" x="150.73" y="121.78" width="22.23" height="77.8"/><polygon class="cls-121" points="178.85 195.13 172.96 199.58 172.96 121.78 178.85 117.33 178.85 195.13"/><polygon class="cls-122" points="172.96 121.78 150.73 121.78 156.62 117.33 178.85 117.33 172.96 121.78"/><rect class="cls-123" x="205.91" y="121.78" width="22.23" height="77.8"/><polygon class="cls-124" points="234.03 195.13 228.14 199.58 228.14 121.78 234.03 117.33 234.03 195.13"/><polygon class="cls-125" points="228.14 121.78 205.91 121.78 211.8 117.33 234.03 117.33 228.14 121.78"/><rect class="cls-126" x="63.8" y="116.75" width="181.32" height="8.5"/><polygon class="cls-127" points="259.88 114.09 245.13 125.25 245.13 116.75 259.88 105.6 259.88 114.09"/><polygon class="cls-128" points="245.13 116.75 63.8 116.75 78.56 105.6 259.88 105.6 245.13 116.75"/><polygon class="cls-129" points="245.12 116.75 245.12 125.25 63.8 125.25 63.8 116.75 154.47 64.24 166.88 71.67 245.12 116.75"/><polygon class="cls-130" points="169.22 53.09 169.22 61.58 166.88 71.67 154.47 64.24 169.22 53.09"/><polygon class="cls-131" points="169.22 53.09 154.47 64.24 63.8 116.75 78.56 105.6 169.22 53.09"/><polygon class="cls-132" points="259.88 105.6 259.88 114.09 245.12 125.25 245.12 116.75 259.88 105.6"/><polygon class="cls-133" points="259.88 105.6 245.12 116.75 166.88 71.67 154.47 64.24 169.22 53.09 259.88 105.6"/><rect class="cls-134" x="63.8" y="116.75" width="181.32" height="8.5"/><circle class="cls-135" cx="154.46" cy="94.74" r="14.41"/><rect class="cls-136" x="63.8" y="212.59" width="181.32" height="8.5"/><rect class="cls-136" x="81.43" y="201.44" width="156.18" height="8.5"/><rect class="cls-136" x="63.8" y="116.75" width="181.32" height="8.5"/><circle class="cls-136" cx="154.46" cy="94.74" r="14.41"/><path class="cls-2" d="M161.25,89.84V89.2a2.85,2.85,0,0,0-.66-1.91,2,2,0,0,0-1.63-.82h-3.7V83.9h-1.6v2.57H150a2,2,0,0,0-1.64.82,2.89,2.89,0,0,0-.65,1.91v3.72a2.87,2.87,0,0,0,.65,1.91,2,2,0,0,0,1.64.82h9c.39,0,.69.38.69.89v3.74c0,.51-.3.89-.69.89h-9c-.4,0-.7-.38-.7-.89v-.63h-1.59v.63a2.87,2.87,0,0,0,.65,1.91A2,2,0,0,0,150,103h3.69v2.57h1.6V103H159a2,2,0,0,0,1.63-.82,2.83,2.83,0,0,0,.66-1.91V96.54a2.85,2.85,0,0,0-.66-1.91,2,2,0,0,0-1.63-.82h-9c-.4,0-.7-.38-.7-.89V89.2c0-.51.3-.89.7-.89h9c.39,0,.69.38.69.89v.64Z"/><polygon class="cls-137" points="264.87 234.74 50.76 234.58 63.8 221.09 245.13 221.09 264.87 234.74"/><circle class="cls-138" cx="202.31" cy="15.44" r="5.72"/><circle class="cls-138" cx="294.44" cy="109.16" r="5.72"/><circle class="cls-138" cx="18.94" cy="181.72" r="5.72"/></svg>