<svg id="Layer_1" data-name="Layer 1" xmlns="http://www.w3.org/2000/svg" viewBox="0 0 50 50"><defs><style>.cls-1{fill:none;stroke:#1860d3;stroke-miterlimit:10;stroke-width:1.56px;}</style></defs><path class="cls-1" d="M20.66,32.25v4.22l-11.17-12s1.9-1.07,7.29-1.74C16.53,27.52,20.66,32.25,20.66,32.25Z"/><path class="cls-1" d="M34,22.55c-2.12-.18-4.68-.32-7.76-.32-1.55,0-3,0-4.28.09A76.77,76.77,0,0,1,34,22.55Z"/><path class="cls-1" d="M43.05,24.48l-10.93,12-.06.07H32V32.25s4.12-4.71,3.88-9.49C41.18,23.42,43.05,24.48,43.05,24.48Z"/><path class="cls-1" d="M35.88,22.76c.24,4.78-3.88,9.49-3.88,9.49v6.66l-5.67,7.92-5.67-7.92V32.25s-4.13-4.73-3.88-9.51l.55-.06.93-.1.84-.07,1.64-.12c.43,0,.85-.06,1.26-.07,1.3-.06,2.73-.09,4.28-.09,3.08,0,5.64.14,7.76.32l.21,0,.31,0h.08Z"/><path class="cls-1" d="M34,22.55c-2.12-.18-4.68-.32-7.76-.32-1.55,0-3,0-4.28.09A76.77,76.77,0,0,1,34,22.55Z"/><path class="cls-1" d="M32,36.64v2.27l-5.67,7.92-5.67-7.92V36.47l-11.17-12s1.9-1.07,7.29-1.74l.55-.06.93-.1.84-.07,1.64-.12c.43,0,.85-.06,1.26-.07a76.77,76.77,0,0,1,12,.23l.21,0,.31,0h.08l1.24.15c5.3.66,7.17,1.72,7.17,1.72l-10.93,12Z"/><path class="cls-1" d="M48.55,45.1V48H1.45a27.88,27.88,0,0,1,16.76-9.92L6.37,25.12,9,19C16.85,2,26.28,2,26.28,2s9.43,0,17.23,17l2.66,6.08L34,38A28.4,28.4,0,0,1,48.55,45.1Z"/></svg>