<svg id="Layer_1" data-name="Layer 1" xmlns="http://www.w3.org/2000/svg" xmlns:xlink="http://www.w3.org/1999/xlink" viewBox="0 0 100 100"><defs><style>.cls-1{fill:#999;}.cls-2{fill:url(#linear-gradient);}.cls-3{fill:url(#linear-gradient-2);}.cls-4{fill:url(#linear-gradient-3);}.cls-5{fill:url(#linear-gradient-4);}.cls-6{fill:url(#linear-gradient-5);}.cls-7{fill:url(#linear-gradient-6);}.cls-8{fill:#fff;}</style><linearGradient id="linear-gradient" x1="74.76" y1="14.07" x2="94.48" y2="14.07" gradientUnits="userSpaceOnUse"><stop offset="0" stop-color="#4279e8"/><stop offset="1" stop-color="#42c2e8"/></linearGradient><linearGradient id="linear-gradient-2" x1="5.52" y1="32.69" x2="25.24" y2="32.69" gradientTransform="translate(30.76 65.38) rotate(-180)" xlink:href="#linear-gradient"/><linearGradient id="linear-gradient-3" x1="5.52" y1="50.84" x2="66.87" y2="50.84" gradientUnits="userSpaceOnUse"><stop offset="0" stop-color="#db1162"/><stop offset="1" stop-color="#ff6817"/></linearGradient><linearGradient id="linear-gradient-4" x1="5.52" y1="87.81" x2="66.87" y2="87.81" xlink:href="#linear-gradient"/><linearGradient id="linear-gradient-5" x1="5.52" y1="69.19" x2="25.24" y2="69.19" gradientTransform="translate(30.76 138.38) rotate(-180)" xlink:href="#linear-gradient"/><linearGradient id="linear-gradient-6" x1="20.78" y1="56.06" x2="90.38" y2="56.06" xlink:href="#linear-gradient-3"/></defs><rect class="cls-1" x="5.52" y="7.27" width="61.35" height="13.59"/><rect class="cls-2" x="74.76" y="7.27" width="19.72" height="13.59"/><rect class="cls-1" x="33.13" y="25.89" width="61.35" height="13.59" transform="translate(127.61 65.38) rotate(180)"/><rect class="cls-3" x="5.52" y="25.89" width="19.72" height="13.59" transform="translate(30.76 65.38) rotate(180)"/><rect class="cls-4" x="5.52" y="44.04" width="61.35" height="13.59"/><rect class="cls-1" x="74.76" y="44.04" width="19.72" height="13.59"/><rect class="cls-5" x="5.52" y="81.02" width="61.35" height="13.59"/><rect class="cls-1" x="74.76" y="81.02" width="19.72" height="13.59"/><rect class="cls-1" x="33.13" y="62.39" width="61.35" height="13.59" transform="translate(127.61 138.38) rotate(180)"/><rect class="cls-6" x="5.52" y="62.39" width="19.72" height="13.59" transform="translate(30.76 138.38) rotate(180)"/><path class="cls-7" d="M83.7,94.1a6.7,6.7,0,0,1-5.12-2.38L63.16,73.33A29.22,29.22,0,1,1,73.4,64.74L88.82,83.13a6.67,6.67,0,0,1-5.12,11ZM50,25.47a21.77,21.77,0,1,0,16.69,7.76A21.85,21.85,0,0,0,50,25.47Z"/><path class="cls-8" d="M50,19A28.19,28.19,0,0,1,72.08,64.77l16,19a5.66,5.66,0,0,1-8.68,7.28l-16-19A28.19,28.19,0,1,1,50,19m0,51a22.79,22.79,0,1,0-17.49-8.15A22.68,22.68,0,0,0,50,70m0-53A30.24,30.24,0,1,0,62.89,74.6L77.8,92.37a7.7,7.7,0,1,0,11.8-9.9L74.69,64.69A30.24,30.24,0,0,0,50,17Zm0,51a20.75,20.75,0,1,1,13.31-4.85A20.76,20.76,0,0,1,50,68Z"/></svg>