<svg id="Layer_1" data-name="Layer 1" xmlns="http://www.w3.org/2000/svg" xmlns:xlink="http://www.w3.org/1999/xlink" viewBox="0 0 100 100"><defs><style>.cls-1{fill:url(#linear-gradient);}.cls-2{stroke:#fff;stroke-miterlimit:10;stroke-width:1.24px;fill:url(#linear-gradient-2);}.cls-3{fill:#fff;}.cls-4{fill:url(#linear-gradient-3);}</style><linearGradient id="linear-gradient" x1="4" y1="58.92" x2="94.49" y2="58.92" gradientUnits="userSpaceOnUse"><stop offset="0" stop-color="#4279e8"/><stop offset="1" stop-color="#42c2e8"/></linearGradient><linearGradient id="linear-gradient-2" x1="22.01" y1="53.31" x2="77.99" y2="53.31" gradientUnits="userSpaceOnUse"><stop offset="0" stop-color="#d35400"/><stop offset="1" stop-color="#ffb62d"/></linearGradient><linearGradient id="linear-gradient-3" x1="4" y1="10.53" x2="94.49" y2="10.53" xlink:href="#linear-gradient-2"/></defs><path class="cls-1" d="M94.49,31V76.34A8.51,8.51,0,0,1,86,84.85H64.08A15.78,15.78,0,0,0,75.56,95a14.41,14.41,0,0,1-3.38.37A15.77,15.77,0,0,1,57.31,84.85H12.49A8.51,8.51,0,0,1,4,76.34V31a8.51,8.51,0,0,1,8.49-8.51H86A8.51,8.51,0,0,1,94.49,31Z"/><circle class="cls-2" cx="50" cy="53.31" r="27.99"/><circle class="cls-3" cx="39.05" cy="46.13" r="4.81"/><circle class="cls-3" cx="61.41" cy="46.13" r="4.81"/><polygon class="cls-3" points="47.89 60.77 50 48.13 52.11 60.77 47.89 60.77"/><path class="cls-3" d="M63.46,63.52a12.61,12.61,0,0,1-5.21,6.39,15.46,15.46,0,0,1-16.5,0,12.53,12.53,0,0,1-5.21-6.4A28.33,28.33,0,0,0,43.23,67a20.79,20.79,0,0,0,13.55,0A28.14,28.14,0,0,0,63.46,63.52Z"/><rect class="cls-4" x="4" y="4.44" width="90.49" height="12.17" rx="5.49"/></svg>