<svg id="Layer_1" data-name="Layer 1" xmlns="http://www.w3.org/2000/svg" xmlns:xlink="http://www.w3.org/1999/xlink" viewBox="0 0 100 100"><defs><style>.cls-1{opacity:0.25;fill:url(#linear-gradient);}.cls-2{fill:url(#linear-gradient-2);}.cls-3{fill:url(#linear-gradient-3);}.cls-4{fill:url(#linear-gradient-4);}.cls-5{fill:url(#linear-gradient-5);}.cls-6{fill:none;stroke:#fff;stroke-miterlimit:10;stroke-width:0.72px;}</style><linearGradient id="linear-gradient" x1="12.77" y1="18.09" x2="87.63" y2="18.09" gradientUnits="userSpaceOnUse"><stop offset="0" stop-color="#05a1e8"/><stop offset="1" stop-color="#0562e8"/></linearGradient><linearGradient id="linear-gradient-2" x1="29.4" y1="30.87" x2="72.89" y2="30.87" gradientUnits="userSpaceOnUse"><stop offset="0" stop-color="#d35400"/><stop offset="1" stop-color="#ffb62d"/></linearGradient><linearGradient id="linear-gradient-3" x1="68.95" y1="20.89" x2="81.68" y2="20.89" gradientUnits="userSpaceOnUse"><stop offset="0" stop-color="#db1162"/><stop offset="1" stop-color="#ff6817"/></linearGradient><linearGradient id="linear-gradient-4" x1="21.03" y1="20.89" x2="32.18" y2="20.89" xlink:href="#linear-gradient-3"/><linearGradient id="linear-gradient-5" x1="11.04" y1="66.96" x2="92.88" y2="66.96" xlink:href="#linear-gradient"/></defs><path class="cls-1" d="M87.63,34.71H12.77S15.23,1.46,52,1.46c14.55,0,22.7,5.2,28.16,11.51l0,0A34.94,34.94,0,0,1,87.63,34.71Z"/><path class="cls-2" d="M29.41,28.24c1.49-.53,2.95-1.06,4.43-1.57a.89.89,0,0,0,.6-.63c.46-1.21,1-2.41,1.5-3.59a.9.9,0,0,0,0-.86c-.63-1.28-1.23-2.57-1.85-3.85a.52.52,0,0,1,.11-.72q1.57-1.53,3.1-3.1a.52.52,0,0,1,.72-.11c1.31.64,2.62,1.27,3.95,1.87a.89.89,0,0,0,.66,0c1.25-.5,2.49-1.05,3.74-1.54a.79.79,0,0,0,.56-.53c.47-1.36,1-2.71,1.44-4.07a.49.49,0,0,1,.55-.41c1.47,0,3,0,4.43,0a.48.48,0,0,1,.56.39c.46,1.36,1,2.71,1.43,4.07a.88.88,0,0,0,.6.57c1.21.46,2.41.95,3.6,1.49a.92.92,0,0,0,.91,0c1.26-.62,2.54-1.21,3.8-1.83A.55.55,0,0,1,65,14q1.49,1.53,3,3a.61.61,0,0,1,.13.85c-.64,1.29-1.26,2.59-1.85,3.91a.92.92,0,0,0,0,.65c.5,1.25,1,2.5,1.56,3.74a1,1,0,0,0,.49.51c1.36.52,2.74,1,4.1,1.49a.64.64,0,0,1,.37.39c0,1.66,0,3.31,0,5-1.45.52-2.89,1-4.33,1.53a1.06,1.06,0,0,0-.72.72c-.43,1.19-.92,2.36-1.45,3.5a1,1,0,0,0,0,1c.62,1.26,1.21,2.53,1.83,3.8a.53.53,0,0,1-.12.72c-1,1-2.08,2.05-3.1,3.09a.51.51,0,0,1-.72.11c-1.31-.64-2.62-1.27-3.95-1.87a1,1,0,0,0-.66,0c-1.25.5-2.48,1-3.74,1.54a.8.8,0,0,0-.56.54c-.47,1.36-1,2.71-1.43,4.07-.11.3-.23.41-.55.41-1.48,0-3,0-4.43,0a.49.49,0,0,1-.57-.38c-.46-1.37-1-2.72-1.43-4.08a.85.85,0,0,0-.6-.56c-1.22-.47-2.44-1-3.64-1.52a.81.81,0,0,0-.81,0c-1.28.62-2.57,1.21-3.85,1.84a.55.55,0,0,1-.77-.12q-1.5-1.56-3.05-3.06a.55.55,0,0,1-.12-.77c.64-1.29,1.24-2.6,1.87-3.89a.74.74,0,0,0,0-.72c-.55-1.23-1-2.49-1.58-3.73a1.08,1.08,0,0,0-.49-.52c-1.34-.51-2.7-1-4.06-1.45-.32-.11-.44-.24-.44-.58C29.42,31.47,29.41,29.87,29.41,28.24Zm21.75,15A12.35,12.35,0,1,0,38.81,30.93,12.31,12.31,0,0,0,51.16,43.21Z"/><path class="cls-3" d="M69,20.12l1.29-.46a.27.27,0,0,0,.18-.18c.13-.36.28-.71.44-1.05a.3.3,0,0,0,0-.26c-.19-.37-.36-.75-.54-1.12a.16.16,0,0,1,0-.21c.31-.3.61-.6.91-.91a.16.16,0,0,1,.21,0l1.15.54a.28.28,0,0,0,.2,0c.36-.15.72-.31,1.09-.45a.23.23,0,0,0,.17-.16c.13-.39.28-.79.42-1.19,0-.09.06-.12.16-.12H76a.15.15,0,0,1,.17.12c.13.4.28.79.42,1.19a.23.23,0,0,0,.17.16c.36.14.71.28,1.06.44a.24.24,0,0,0,.26,0l1.11-.53a.16.16,0,0,1,.23,0c.29.3.58.59.88.88a.18.18,0,0,1,0,.25q-.28.57-.54,1.14a.25.25,0,0,0,0,.19c.15.37.3.74.46,1.1a.26.26,0,0,0,.14.15l1.2.43c.05,0,.11.08.11.12v1.46l-1.27.44a.33.33,0,0,0-.21.22c-.12.34-.27.68-.42,1a.28.28,0,0,0,0,.28l.53,1.11a.16.16,0,0,1,0,.21c-.31.3-.61.6-.91.91a.16.16,0,0,1-.21,0L78,25.33a.25.25,0,0,0-.19,0c-.37.14-.73.3-1.1.45a.24.24,0,0,0-.16.15l-.42,1.19c0,.09-.06.12-.16.12h-1.3c-.09,0-.13,0-.16-.11L74.09,26c0-.1-.09-.13-.18-.17-.36-.14-.71-.28-1.06-.44a.23.23,0,0,0-.24,0l-1.13.54a.16.16,0,0,1-.22,0c-.29-.3-.59-.6-.9-.89a.17.17,0,0,1,0-.23c.19-.38.36-.76.55-1.14a.2.2,0,0,0,0-.21c-.16-.36-.3-.73-.46-1.09a.26.26,0,0,0-.14-.15l-1.19-.43a.16.16,0,0,1-.13-.17C69,21.06,69,20.6,69,20.12Zm6.36,4.38a3.62,3.62,0,1,0-3.62-3.59A3.6,3.6,0,0,0,75.32,24.5Z"/><path class="cls-4" d="M21,20.22l1.14-.41a.24.24,0,0,0,.15-.16c.12-.31.25-.62.38-.92a.24.24,0,0,0,0-.22c-.17-.33-.32-.66-.48-1a.14.14,0,0,1,0-.18c.27-.26.53-.53.79-.8a.16.16,0,0,1,.19,0c.34.17.67.33,1,.48a.25.25,0,0,0,.17,0c.32-.13.64-.27,1-.39a.23.23,0,0,0,.15-.14l.37-1.05c0-.07.05-.1.14-.1h1.13a.13.13,0,0,1,.15.1c.12.35.25.69.36,1a.22.22,0,0,0,.16.15c.31.12.62.24.92.38A.23.23,0,0,0,29,17l1-.46a.12.12,0,0,1,.19,0l.78.77a.15.15,0,0,1,0,.22c-.16.33-.32.67-.47,1a.25.25,0,0,0,0,.17c.13.32.26.64.4,1a.25.25,0,0,0,.12.13l1.06.38s.09.07.09.1c0,.43,0,.85,0,1.28L31.07,22a.29.29,0,0,0-.18.19c-.11.3-.24.6-.37.9a.23.23,0,0,0,0,.24l.47,1a.12.12,0,0,1,0,.18c-.27.26-.53.53-.79.8a.14.14,0,0,1-.19,0l-1-.48a.25.25,0,0,0-.17,0l-1,.39c-.08,0-.12.06-.14.14-.12.35-.25.69-.37,1,0,.08-.06.11-.14.11H26c-.08,0-.12,0-.14-.1l-.37-1.05a.23.23,0,0,0-.16-.14q-.47-.18-.93-.39a.2.2,0,0,0-.21,0l-1,.47c-.09,0-.13,0-.2,0-.26-.27-.52-.53-.79-.79-.07-.06-.06-.11,0-.19.16-.33.31-.67.47-1a.19.19,0,0,0,0-.19c-.14-.31-.27-.63-.4-.95a.24.24,0,0,0-.13-.13c-.34-.14-.69-.26-1-.38-.08,0-.11-.06-.11-.15Zm5.58,3.84a3.17,3.17,0,1,0-3.17-3.16A3.17,3.17,0,0,0,26.61,24.06Z"/><path class="cls-5" d="M52.45,99.2V90.81s-7.36,7-12.49,7-5.87-4.56-7.79-6-2.17,0-4-1.26.39-2.62-1.5-3.84-3.15-.07-4.55-1.33S21.07,81.76,19,80s-7.74-2.9-8-5.27,5.42-5.23,4.81-13.29S11,48.91,12.77,34.71H87.63A37.7,37.7,0,0,1,84.9,48a17.66,17.66,0,0,1-2.51,4.18c-5.08,5.64,10.49,47,10.49,47Z"/><path class="cls-6" d="M38.81,48.51a16,16,0,0,0,31.93,0"/><line class="cls-6" x1="66.78" y1="59.03" x2="72.89" y2="99.2"/><circle class="cls-6" cx="51.15" cy="48.51" r="5.07"/></svg>