<svg id="Layer_1" data-name="Layer 1" xmlns="http://www.w3.org/2000/svg" viewBox="0 0 50 50"><defs><style>.cls-1{fill:none;stroke:#1860d3;stroke-miterlimit:10;stroke-width:1.56px;}</style></defs><path class="cls-1" d="M44.43,18.62v19.7a3.92,3.92,0,0,1-3.91,3.92H33.25a7.27,7.27,0,0,0,5.29,4.67,6.66,6.66,0,0,1-1.56.17,7.26,7.26,0,0,1-6.85-4.84H9.48a3.92,3.92,0,0,1-3.91-3.92V18.62A3.92,3.92,0,0,1,9.48,14.7h31A3.92,3.92,0,0,1,44.43,18.62Z"/><circle class="cls-1" cx="25" cy="28.58" r="10.39"/><circle class="cls-1" cx="20.93" cy="25.92" r="1.78"/><circle class="cls-1" cx="29.24" cy="25.92" r="1.78"/><line class="cls-1" x1="25" y1="28.58" x2="25" y2="31.35"/><path class="cls-1" d="M30,32.37a6.28,6.28,0,0,1-10,0"/><rect class="cls-1" x="5.57" y="4.86" width="38.86" height="5.61" rx="2.53"/></svg>