<svg id="Layer_1" data-name="Layer 1" xmlns="http://www.w3.org/2000/svg" xmlns:xlink="http://www.w3.org/1999/xlink" viewBox="0 0 50 50"><defs><style>.cls-1{fill:url(#linear-gradient);}.cls-2{fill:url(#linear-gradient-2);}.cls-3{fill:url(#linear-gradient-3);}.cls-4{fill:url(#linear-gradient-4);}.cls-5{fill:#0951ba;}.cls-6{fill:#3f86ed;}.cls-13,.cls-7{fill:none;stroke-miterlimit:10;}.cls-7{stroke:#f99316;stroke-width:0.41px;}.cls-8,.cls-9{fill:#fff;}.cls-9{opacity:0.25;}.cls-10{fill:url(#linear-gradient-5);}.cls-11{fill:url(#linear-gradient-6);}.cls-12{fill:url(#linear-gradient-7);}.cls-13{stroke:#fff;stroke-width:0.54px;}.cls-14{fill:url(#linear-gradient-8);}.cls-15{fill:url(#linear-gradient-9);}.cls-16{fill:url(#linear-gradient-10);}.cls-17{fill:url(#linear-gradient-11);}.cls-18{fill:url(#linear-gradient-12);}</style><linearGradient id="linear-gradient" x1="9.73" y1="45.94" x2="41.52" y2="45.94" gradientUnits="userSpaceOnUse"><stop offset="0" stop-color="#d35400"/><stop offset="1" stop-color="#ffb62d"/></linearGradient><linearGradient id="linear-gradient-2" x1="9.74" y1="41.43" x2="47.99" y2="41.43" xlink:href="#linear-gradient"/><linearGradient id="linear-gradient-3" x1="41.52" y1="43.69" x2="47.99" y2="43.69" xlink:href="#linear-gradient"/><linearGradient id="linear-gradient-4" x1="9.73" y1="35.64" x2="41.52" y2="35.64" gradientUnits="userSpaceOnUse"><stop offset="0" stop-color="#05a1e8"/><stop offset="1" stop-color="#0562e8"/></linearGradient><linearGradient id="linear-gradient-5" x1="17.52" y1="18.42" x2="31.7" y2="18.42" xlink:href="#linear-gradient"/><linearGradient id="linear-gradient-6" x1="-362.75" y1="3421.25" x2="-352.99" y2="3421.25" gradientTransform="translate(694.93 -3348.25) rotate(5.26)" xlink:href="#linear-gradient"/><linearGradient id="linear-gradient-7" x1="-362.75" y1="3424.04" x2="-352.99" y2="3424.04" gradientTransform="translate(695.18 -3353.81) rotate(5.26)" xlink:href="#linear-gradient"/><linearGradient id="linear-gradient-8" x1="-18.05" y1="-100.33" x2="-12.55" y2="-100.33" gradientTransform="translate(28.82 113.4)" gradientUnits="userSpaceOnUse"><stop offset="0" stop-color="#3dba85"/><stop offset="1" stop-color="#1de885"/></linearGradient><linearGradient id="linear-gradient-9" x1="-80.68" y1="-196.58" x2="-75.17" y2="-196.58" gradientTransform="translate(95.21 203.57)" xlink:href="#linear-gradient-8"/><linearGradient id="linear-gradient-10" x1="-491.94" y1="101.1" x2="-486.44" y2="101.1" gradientTransform="matrix(1, 0, 0, -1, 523.94, 114.18)" xlink:href="#linear-gradient-8"/><linearGradient id="linear-gradient-11" x1="509.21" y1="-1020.86" x2="514.72" y2="-1020.86" gradientTransform="matrix(1, 0, 0, -1, -487.61, -1016.31)" xlink:href="#linear-gradient-8"/><linearGradient id="linear-gradient-12" x1="-445.51" y1="167.82" x2="-440.01" y2="167.82" gradientTransform="matrix(1, 0, 0, -1, 474.46, 174.51)" xlink:href="#linear-gradient-8"/></defs><rect class="cls-1" x="9.73" y="43.69" width="31.79" height="4.51"/><polygon class="cls-2" points="41.52 43.69 9.74 43.69 16.2 39.17 47.99 39.17 41.52 43.69"/><polygon class="cls-3" points="47.99 43.69 41.52 48.2 41.52 43.69 47.99 39.17 47.99 43.69"/><rect class="cls-4" x="9.73" y="33.38" width="31.79" height="4.51"/><polygon class="cls-5" points="41.52 33.38 9.74 33.38 16.2 28.87 47.99 28.87 41.52 33.38"/><polygon class="cls-6" points="47.99 33.38 41.52 37.89 41.52 33.38 47.99 28.87 47.99 33.38"/><polyline class="cls-7" points="38.96 35.68 2.01 35.68 2.01 21.22 20.49 21.22"/><polyline class="cls-7" points="38.96 45.94 4.95 45.94 4.95 35.68"/><circle class="cls-8" cx="38.96" cy="35.68" r="1.07"/><circle class="cls-8" cx="38.96" cy="45.94" r="1.07"/><circle class="cls-9" cx="32.29" cy="35.68" r="1.07"/><circle class="cls-9" cx="32.29" cy="45.94" r="1.07"/><circle class="cls-9" cx="25.62" cy="35.68" r="1.07"/><circle class="cls-9" cx="25.62" cy="45.94" r="1.07"/><circle class="cls-9" cx="18.95" cy="35.68" r="1.07"/><circle class="cls-9" cx="18.95" cy="45.94" r="1.07"/><circle class="cls-9" cx="12.29" cy="35.68" r="1.07"/><circle class="cls-9" cx="12.29" cy="45.94" r="1.07"/><path class="cls-10" d="M31.69,15.74A7.08,7.08,0,0,1,28.76,22v4.7a1,1,0,0,1-1,1H21.5a1,1,0,0,1-1-1V22A7.09,7.09,0,0,1,24.88,9.13,7.16,7.16,0,0,1,31.69,15.74Z"/><rect class="cls-11" x="19.83" y="24.95" width="9.79" height="1.6" rx="0.8" transform="translate(51.69 49.12) rotate(174.74)"/><rect class="cls-12" x="19.83" y="22.17" width="9.79" height="1.6" rx="0.8" transform="translate(51.44 43.57) rotate(174.74)"/><path class="cls-13" d="M21.78,21.64s3.58-6.59.88-8.43-2.46,5.92,1,4.89,5.41-5.92,3.42-5.53-2.37,6.63-.63,8.33"/><rect class="cls-14" x="10.77" y="12.44" width="5.5" height="1.28" rx="0.64" transform="translate(6.19 -4.25) rotate(23.03)"/><rect class="cls-15" x="14.54" y="6.35" width="5.5" height="1.28" rx="0.64" transform="translate(10.01 -10.18) rotate(45)"/><rect class="cls-16" x="32" y="12.44" width="5.5" height="1.28" rx="0.64" transform="translate(71.85 11.51) rotate(156.97)"/><rect class="cls-17" x="21.61" y="3.91" width="5.5" height="1.28" rx="0.64" transform="translate(28.91 -19.81) rotate(90)"/><rect class="cls-18" x="28.95" y="6.05" width="5.5" height="1.28" rx="0.64" transform="translate(58.85 -11) rotate(135)"/></svg>