<svg id="Layer_1" data-name="Layer 1" xmlns="http://www.w3.org/2000/svg" viewBox="0 0 50 50"><defs><style>.cls-1{fill:none;stroke:#1860d3;stroke-miterlimit:10;stroke-width:1.56px;}</style></defs><path class="cls-1" d="M37.3,32.29a.85.85,0,0,1-.57.81l-1.93.69a.48.48,0,0,0-.34.35c-.26.69-.55,1.37-.86,2a.51.51,0,0,0,0,.48c.35.72.69,1.45,1,2.16a.28.28,0,0,1-.06.4L32.83,41a.29.29,0,0,1-.41.08l0,0c-.74-.35-1.48-.71-2.23-1.05a.43.43,0,0,0-.35,0c-.73.29-1.44.61-2.16.88a.5.5,0,0,0-.3.3c-.26.76-.54,1.53-.81,2.29a.28.28,0,0,1-.31.24h-2.5a.28.28,0,0,1-.32-.22c-.26-.77-.55-1.53-.81-2.3a.48.48,0,0,0-.34-.32c-.68-.26-1.37-.55-2-.87a.63.63,0,0,0-.52,0c-.7.35-1.43.68-2.15,1a.32.32,0,0,1-.44-.07c-.56-.58-1.12-1.15-1.72-1.73a.35.35,0,0,1-.07-.48c.36-.72.7-1.45,1-2.18a.48.48,0,0,0,0-.39c-.28-.71-.57-1.42-.88-2.12a.69.69,0,0,0-.32-.31l-2.28-.82c-.08,0-.2-.14-.2-.22V30.54a1,1,0,0,1,.63-.89c.6-.21,1.21-.43,1.82-.63a.57.57,0,0,0,.4-.41c.25-.67.52-1.33.83-2a.59.59,0,0,0,0-.55c-.36-.71-.69-1.43-1-2.15a.3.3,0,0,1,.07-.41c.59-.57,1.17-1.16,1.75-1.75a.3.3,0,0,1,.41-.06c.74.36,1.48.72,2.23,1.06a.43.43,0,0,0,.35,0c.71-.28,1.42-.6,2.14-.87a.43.43,0,0,0,.31-.3c.27-.77.55-1.53.81-2.3a.28.28,0,0,1,.31-.23l.33.05,2.23-.05a.26.26,0,0,1,.26.22c.27.77.55,1.53.82,2.3a.48.48,0,0,0,.34.32c.69.27,1.38.55,2.06.87a.54.54,0,0,0,.45,0l2.16-1a.31.31,0,0,1,.43.07l1.73,1.72a.31.31,0,0,1,.06.43c-.36.73-.7,1.47-1.06,2.2a.47.47,0,0,0,0,.4c.31.7.59,1.42.9,2.12a.55.55,0,0,0,.27.29c.76.29,1.53.56,2.3.82a.3.3,0,0,1,.25.33C37.28,30.85,37.3,31.57,37.3,32.29ZM25,27.47a3.95,3.95,0,1,0,3.95,4v0A4,4,0,0,0,25,27.47Z"/><path class="cls-1" d="M42.86,38.28c-.84,3.67-3.3,5.86-6.64,7.2a24.36,24.36,0,0,1-7.73,1.57c-1,.06-2,0-3,0A33.37,33.37,0,0,1,15.59,46,14.47,14.47,0,0,1,11,43.7c-3.16-2.37-4.31-5.63-4-9.44a23.43,23.43,0,0,1,3.66-10.59,30.93,30.93,0,0,1,8.88-9.82,3.87,3.87,0,0,1,2.43-.74c1.69.07,3.39,0,5.08,0a3.32,3.32,0,0,1,1.71.45,27.35,27.35,0,0,1,7.19,6.06,30.82,30.82,0,0,1,6.66,11.9A13.57,13.57,0,0,1,42.86,38.28Z"/><path class="cls-1" d="M24.13,12.22c-1,0-2,0-3,0a1.12,1.12,0,0,1-.64-.22,11.92,11.92,0,0,1-4.07-5.62,5.94,5.94,0,0,1-.29-1.87A1.53,1.53,0,0,1,18,3a14.56,14.56,0,0,1,1.91.6c.33.12.64.27,1,.42a5.81,5.81,0,0,0,4.39.31c1.62-.48,3.28-.82,4.93-1.21a2.52,2.52,0,0,1,.48,0c1.08,0,1.34.25,1.18,1.34a11.18,11.18,0,0,1-1.6,4.26c-.72,1.15-1.58,2.22-2.41,3.3a1.06,1.06,0,0,1-.7.29c-1,0-2,0-3,0Z"/></svg>