<svg id="Layer_1" data-name="Layer 1" xmlns="http://www.w3.org/2000/svg" xmlns:xlink="http://www.w3.org/1999/xlink" viewBox="0 0 100 100"><defs><style>.cls-1{opacity:0.15;fill:url(#linear-gradient);}.cls-2{fill:url(#linear-gradient-2);}.cls-3{fill:none;stroke:#fff;stroke-miterlimit:10;stroke-width:1.02px;}.cls-4{fill:url(#linear-gradient-3);}.cls-5{fill:url(#linear-gradient-4);}.cls-6{fill:url(#linear-gradient-5);}.cls-7{fill:url(#linear-gradient-6);}.cls-8{fill:url(#linear-gradient-7);}.cls-9{fill:url(#linear-gradient-8);}.cls-10{fill:url(#linear-gradient-9);}.cls-11{fill:url(#linear-gradient-10);}.cls-12{fill:url(#linear-gradient-11);}.cls-13{fill:url(#linear-gradient-12);}.cls-14{fill:url(#linear-gradient-13);}.cls-15{fill:url(#linear-gradient-14);}.cls-16{fill:url(#linear-gradient-15);}.cls-17{fill:url(#linear-gradient-16);}.cls-18{fill:url(#linear-gradient-17);}.cls-19{fill:url(#linear-gradient-18);}.cls-20{fill:url(#linear-gradient-19);}.cls-21{fill:url(#linear-gradient-20);}.cls-22{fill:url(#linear-gradient-21);}.cls-23{fill:url(#linear-gradient-22);}.cls-24{fill:url(#linear-gradient-23);}.cls-25{fill:url(#linear-gradient-24);}.cls-26{fill:url(#linear-gradient-25);}.cls-27{fill:url(#linear-gradient-26);}.cls-28{fill:url(#linear-gradient-27);}.cls-29{opacity:0.25;}.cls-30{fill:#fff;}</style><linearGradient id="linear-gradient" x1="9.95" y1="50" x2="90.05" y2="50" gradientUnits="userSpaceOnUse"><stop offset="0" stop-color="#4279e8"/><stop offset="1" stop-color="#42c2e8"/></linearGradient><linearGradient id="linear-gradient-2" x1="43.67" y1="31.44" x2="97.74" y2="31.44" gradientTransform="matrix(-1, 0, 0, 1, 99.32, 0)" gradientUnits="userSpaceOnUse"><stop offset="0" stop-color="#05a1e8"/><stop offset="1" stop-color="#0562e8"/></linearGradient><linearGradient id="linear-gradient-3" x1="22.14" y1="93.45" x2="88.71" y2="93.45" gradientUnits="userSpaceOnUse"><stop offset="0" stop-color="#d35400"/><stop offset="1" stop-color="#ffb62d"/></linearGradient><linearGradient id="linear-gradient-4" x1="88.71" y1="91.4" x2="94.12" y2="91.4" xlink:href="#linear-gradient-3"/><linearGradient id="linear-gradient-5" x1="22.14" y1="89.84" x2="94.12" y2="89.84" xlink:href="#linear-gradient-3"/><linearGradient id="linear-gradient-6" x1="28.61" y1="89.36" x2="85.95" y2="89.36" xlink:href="#linear-gradient-3"/><linearGradient id="linear-gradient-7" x1="85.95" y1="87.89" x2="89.83" y2="87.89" xlink:href="#linear-gradient-3"/><linearGradient id="linear-gradient-8" x1="28.61" y1="86.33" x2="89.83" y2="86.33" xlink:href="#linear-gradient-3"/><linearGradient id="linear-gradient-9" x1="33.79" y1="72.83" x2="41.95" y2="72.83" xlink:href="#linear-gradient-3"/><linearGradient id="linear-gradient-10" x1="41.95" y1="72.01" x2="44.11" y2="72.01" xlink:href="#linear-gradient-3"/><linearGradient id="linear-gradient-11" x1="33.79" y1="57.73" x2="44.11" y2="57.73" xlink:href="#linear-gradient-3"/><linearGradient id="linear-gradient-12" x1="54.05" y1="72.83" x2="62.21" y2="72.83" xlink:href="#linear-gradient-3"/><linearGradient id="linear-gradient-13" x1="62.21" y1="72.01" x2="64.37" y2="72.01" xlink:href="#linear-gradient-3"/><linearGradient id="linear-gradient-14" x1="54.05" y1="57.73" x2="64.37" y2="57.73" xlink:href="#linear-gradient-3"/><linearGradient id="linear-gradient-15" x1="74.31" y1="72.83" x2="82.47" y2="72.83" xlink:href="#linear-gradient-3"/><linearGradient id="linear-gradient-16" x1="82.47" y1="72.01" x2="84.63" y2="72.01" xlink:href="#linear-gradient-3"/><linearGradient id="linear-gradient-17" x1="74.31" y1="57.73" x2="84.63" y2="57.73" xlink:href="#linear-gradient-3"/><linearGradient id="linear-gradient-18" x1="22.14" y1="58.26" x2="88.71" y2="58.26" xlink:href="#linear-gradient-3"/><linearGradient id="linear-gradient-19" x1="88.71" y1="56.22" x2="94.12" y2="56.22" xlink:href="#linear-gradient-3"/><linearGradient id="linear-gradient-20" x1="22.14" y1="54.66" x2="94.12" y2="54.66" xlink:href="#linear-gradient-3"/><linearGradient id="linear-gradient-21" x1="22.14" y1="48.62" x2="88.71" y2="48.62" xlink:href="#linear-gradient-3"/><linearGradient id="linear-gradient-22" x1="55.42" y1="36.74" x2="60.84" y2="36.74" xlink:href="#linear-gradient-3"/><linearGradient id="linear-gradient-23" x1="22.14" y1="45.02" x2="60.84" y2="45.02" xlink:href="#linear-gradient-3"/><linearGradient id="linear-gradient-24" x1="88.71" y1="56.22" x2="94.13" y2="56.22" xlink:href="#linear-gradient-3"/><linearGradient id="linear-gradient-25" x1="55.42" y1="45.02" x2="94.13" y2="45.02" xlink:href="#linear-gradient-3"/><linearGradient id="linear-gradient-26" x1="22.14" y1="58.26" x2="88.71" y2="58.26" xlink:href="#linear-gradient-3"/><linearGradient id="linear-gradient-27" x1="50.13" y1="48.62" x2="60.71" y2="48.62" xlink:href="#linear-gradient-3"/></defs><circle class="cls-1" cx="50" cy="50" r="40.05"/><polygon class="cls-2" points="27.17 58.39 24.48 46.66 30.78 37.04 41.22 33.38 52.27 30.94 55.64 19.69 47.04 7.68 29.11 4.34 13.93 6.08 3.57 15.48 1.57 25.55 3.29 36.1 10.02 43.33 17.79 46.25 21.75 58.55 27.17 58.39"/><polyline class="cls-3" points="43.11 9.45 26.12 14.42 29.23 6.25 26.12 14.42 15.78 7.92 15.38 19.1 6.75 16.42 15.38 19.1 14.45 25.39 5.54 25.21 14.45 25.39 14.3 33.68 6.31 35.17 14.3 33.68 11.29 41.63 14.3 33.68 23.27 24.28 14.45 25.39 15.38 19.1 23.27 24.28 15.38 19.1 26.12 14.42 23.27 24.28 35.55 23.05 34.97 11.83 35.55 23.05 50.04 20.66 35.55 23.05 47.65 29.88 35.55 23.05 23.27 24.28 28.55 36.84 33.34 27.79 39.46 31.55 33.34 27.79 28.55 36.84 14.3 33.68 22.16 45.41"/><line class="cls-3" x1="33.34" y1="28.2" x2="35.55" y2="23.46"/><rect class="cls-4" x="22.14" y="91.89" width="66.57" height="3.12"/><polygon class="cls-5" points="94.13 90.92 88.71 95.01 88.71 91.89 94.13 87.8 94.13 90.92"/><polygon class="cls-6" points="88.71 91.89 22.14 91.89 27.55 87.8 94.13 87.8 88.71 91.89"/><rect class="cls-7" x="28.61" y="87.8" width="57.34" height="3.12"/><polygon class="cls-8" points="89.83 87.98 85.95 90.92 85.95 87.8 89.83 84.86 89.83 87.98"/><polygon class="cls-9" points="85.95 87.8 28.61 87.8 32.49 84.86 89.83 84.86 85.95 87.8"/><rect class="cls-10" x="33.79" y="58.55" width="8.16" height="28.56"/><polygon class="cls-11" points="44.12 85.48 41.95 87.11 41.95 58.55 44.12 56.91 44.12 85.48"/><polygon class="cls-12" points="41.95 58.55 33.79 58.55 35.95 56.91 44.12 56.91 41.95 58.55"/><rect class="cls-13" x="54.05" y="58.55" width="8.16" height="28.56"/><polygon class="cls-14" points="64.37 85.48 62.21 87.11 62.21 58.55 64.37 56.91 64.37 85.48"/><polygon class="cls-15" points="62.21 58.55 54.05 58.55 56.21 56.91 64.37 56.91 62.21 58.55"/><rect class="cls-16" x="74.31" y="58.55" width="8.16" height="28.56"/><polygon class="cls-17" points="84.63 85.48 82.47 87.11 82.47 58.55 84.63 56.91 84.63 85.48"/><polygon class="cls-18" points="82.47 58.55 74.31 58.55 76.47 56.91 84.63 56.91 82.47 58.55"/><rect class="cls-19" x="22.14" y="56.7" width="66.57" height="3.12"/><polygon class="cls-20" points="94.13 55.73 88.71 59.82 88.71 56.7 94.13 52.61 94.13 55.73"/><polygon class="cls-21" points="88.71 56.7 22.14 56.7 27.55 52.61 94.13 52.61 88.71 56.7"/><polygon class="cls-22" points="88.7 56.7 88.7 59.82 22.14 59.82 22.14 56.7 55.42 37.42 59.98 40.15 88.7 56.7"/><polygon class="cls-23" points="60.84 33.33 60.84 36.45 59.98 40.15 55.42 37.42 60.84 33.33"/><polygon class="cls-24" points="60.84 33.33 55.42 37.42 22.14 56.7 27.55 52.61 60.84 33.33"/><polygon class="cls-25" points="94.13 52.61 94.13 55.73 88.7 59.82 88.7 56.7 94.13 52.61"/><polygon class="cls-26" points="94.13 52.61 88.7 56.7 59.98 40.15 55.42 37.42 60.84 33.33 94.13 52.61"/><rect class="cls-27" x="22.14" y="56.7" width="66.57" height="3.12"/><circle class="cls-28" cx="55.42" cy="48.62" r="5.29"/><rect class="cls-29" x="22.14" y="91.89" width="66.57" height="3.12"/><rect class="cls-29" x="28.61" y="87.8" width="57.34" height="3.12"/><rect class="cls-29" x="22.14" y="56.7" width="66.57" height="3.12"/><circle class="cls-29" cx="55.42" cy="48.62" r="5.29"/><path class="cls-30" d="M57.91,46.82v-.23a1.06,1.06,0,0,0-.24-.7.75.75,0,0,0-.6-.3H55.71v-1h-.58v1H53.77a.75.75,0,0,0-.6.3,1.06,1.06,0,0,0-.24.7V48a1.09,1.09,0,0,0,.24.71.75.75,0,0,0,.6.3h3.3a.29.29,0,0,1,.26.32v1.38a.29.29,0,0,1-.26.32h-3.3c-.15,0-.25-.14-.25-.32v-.23h-.59v.23a1.08,1.08,0,0,0,.24.7.75.75,0,0,0,.6.3h1.36v.94h.58v-.94h1.36a.75.75,0,0,0,.6-.3,1.08,1.08,0,0,0,.24-.7V49.28a1.08,1.08,0,0,0-.24-.7.75.75,0,0,0-.6-.3h-3.3c-.15,0-.25-.14-.25-.33V46.59c0-.19.1-.33.25-.33h3.3c.15,0,.26.14.26.33v.23Z"/></svg>